<?xml version="1.0" encoding="utf-8"?>
<!-- Generated by IcoMoon.io -->
<!DOCTYPE svg PUBLIC "-//W3C//DTD SVG 1.1//EN" "http://www.w3.org/Graphics/SVG/1.1/DTD/svg11.dtd">

<svg version="1.1" xmlns="http://www.w3.org/2000/svg" xmlns:xlink="http://www.w3.org/1999/xlink">
<g id="icon-group_v" viewBox="0 0 1024 1024">
	<path class="path1" d="M208.896 727.040c0 10.24 8.192 16.384 16.384 16.384h573.44c8.192 0 16.384-8.192 16.384-16.384v-364.544c0-10.24-8.192-16.384-16.384-16.384h-280.576v32.768c0 16.384-12.288 30.72-28.672 30.72h-280.576v317.44z"></path>
	<path class="path2" d="M493.568 364.544v-67.584c0-10.24-8.192-16.384-16.384-16.384h-251.904c-8.192 0-16.384 8.192-16.384 16.384v83.968h268.288c8.192 0 16.384-6.144 16.384-16.384z"></path>
	<path class="path3" d="M149.504 354.304c12.288 0 22.528-10.24 22.528-22.528v-32.768c0-8.192 2.048-16.384 6.144-24.576 6.144-12.288 2.048-24.576-10.24-30.72s-24.576-2.048-30.72 10.24c-6.144 14.336-10.24 28.672-10.24 45.056v32.768c-2.048 12.288 8.192 22.528 22.528 22.528z"></path>
	<path class="path4" d="M149.504 491.52c12.288 0 22.528-10.24 22.528-22.528v-69.632c0-12.288-10.24-22.528-22.528-22.528s-22.528 10.24-22.528 22.528v69.632c-2.048 12.288 8.192 22.528 22.528 22.528z"></path>
	<path class="path5" d="M729.088 309.248h69.632c6.144 0 10.24-2.048 14.336-4.096 2.048 4.096 6.144 8.192 10.24 10.24 14.336 8.192 24.576 20.48 28.672 36.864 2.048 10.24 12.288 18.432 22.528 18.432 2.048 0 2.048 0 4.096 0 12.288-2.048 20.48-14.336 18.432-26.624-6.144-30.72-24.576-55.296-53.248-69.632-8.192-4.096-18.432-2.048-24.576 2.048-4.096-8.192-12.288-12.288-20.48-12.288h-69.632c-12.288 0-22.528 10.24-22.528 22.528s10.24 22.528 22.528 22.528z"></path>
	<path class="path6" d="M149.504 630.784c12.288 0 22.528-10.24 22.528-22.528v-69.632c0-12.288-10.24-22.528-22.528-22.528s-22.528 10.24-22.528 22.528v69.632c-2.048 12.288 8.192 22.528 22.528 22.528z"></path>
	<path class="path7" d="M591.872 309.248h69.632c12.288 0 22.528-10.24 22.528-22.528s-10.24-22.528-22.528-22.528h-69.632c-12.288 0-22.528 10.24-22.528 22.528s10.24 22.528 22.528 22.528z"></path>
	<path class="path8" d="M348.16 243.712h69.632c12.288 0 22.528-10.24 22.528-22.528s-10.24-22.528-24.576-22.528h-67.584c-12.288 0-22.528 10.24-22.528 22.528s8.192 22.528 22.528 22.528z"></path>
	<path class="path9" d="M483.328 243.712c16.384 2.048 30.72 12.288 38.912 24.576 4.096 6.144 12.288 10.24 20.48 10.24 4.096 0 8.192-2.048 12.288-4.096 10.24-6.144 14.336-20.48 8.192-30.72-16.384-26.624-43.008-43.008-73.728-47.104-12.288-2.048-24.576 8.192-26.624 20.48-2.048 14.336 8.192 24.576 20.48 26.624z"></path>
	<path class="path10" d="M208.896 245.76c2.048 0 4.096 0 4.096 0 4.096 0 8.192-2.048 10.24-2.048h53.248c12.288 0 22.528-10.24 22.528-22.528s-10.24-22.528-22.528-22.528h-51.2c-6.144 0-14.336 0-20.48 2.048-12.288 2.048-20.48 14.336-18.432 26.624 2.048 10.24 12.288 18.432 22.528 18.432z"></path>
	<path class="path11" d="M874.496 530.432c-12.288 0-22.528 10.24-22.528 22.528v69.632c0 12.288 10.24 22.528 22.528 22.528s22.528-10.24 22.528-22.528v-69.632c2.048-12.288-8.192-22.528-22.528-22.528z"></path>
	<path class="path12" d="M811.008 778.24c-4.096 0-8.192 2.048-12.288 2.048h-53.248c-12.288 0-22.528 10.24-22.528 22.528s10.24 22.528 22.528 22.528h53.248c8.192 0 14.336 0 20.48-2.048 12.288-2.048 20.48-14.336 18.432-26.624s-14.336-20.48-26.624-18.432z"></path>
	<path class="path13" d="M874.496 669.696c-12.288 0-22.528 10.24-22.528 22.528v34.816c0 8.192-2.048 16.384-6.144 24.576-6.144 12.288 0 24.576 10.24 30.72 4.096 2.048 6.144 2.048 10.24 2.048 8.192 0 16.384-4.096 20.48-12.288 6.144-14.336 10.24-28.672 10.24-45.056v-32.768c2.048-14.336-8.192-24.576-22.528-24.576z"></path>
	<path class="path14" d="M874.496 393.216c-12.288 0-22.528 10.24-22.528 22.528v69.632c0 12.288 10.24 22.528 22.528 22.528s22.528-10.24 22.528-22.528v-69.632c2.048-12.288-8.192-22.528-22.528-22.528z"></path>
	<path class="path15" d="M262.144 780.288h-36.864c-8.192 0-14.336-2.048-22.528-4.096-12.288-6.144-24.576 0-30.72 12.288s0 24.576 12.288 30.72c12.288 6.144 26.624 8.192 40.96 8.192h36.864c12.288 0 22.528-10.24 22.528-22.528s-10.24-24.576-22.528-24.576z"></path>
	<path class="path16" d="M174.080 739.328c-2.048-4.096-2.048-8.192-2.048-14.336v-49.152c0-12.288-10.24-22.528-22.528-22.528s-24.576 10.24-24.576 22.528v49.152c0 8.192 2.048 16.384 4.096 24.576 2.048 10.24 12.288 16.384 22.528 16.384 2.048 0 4.096 0 6.144 0 12.288-2.048 18.432-14.336 16.384-26.624z"></path>
	<path class="path17" d="M401.408 780.288h-69.632c-12.288 0-22.528 10.24-22.528 22.528s10.24 22.528 22.528 22.528h69.632c12.288 0 22.528-10.24 22.528-22.528s-10.24-22.528-22.528-22.528z"></path>
	<path class="path18" d="M538.624 780.288h-69.632c-12.288 0-22.528 10.24-22.528 22.528s10.24 22.528 22.528 22.528h69.632c12.288 0 22.528-10.24 22.528-22.528s-10.24-22.528-22.528-22.528z"></path>
	<path class="path19" d="M677.888 780.288h-69.632c-12.288 0-22.528 10.24-22.528 22.528s10.24 22.528 22.528 22.528h69.632c12.288 0 22.528-10.24 22.528-22.528s-10.24-22.528-22.528-22.528z"></path>
</g>
</svg>
