<?xml version="1.0" standalone="no"?>
<!DOCTYPE svg PUBLIC "-//W3C//DTD SVG 1.1//EN" "http://www.w3.org/Graphics/SVG/1.1/DTD/svg11.dtd" >
<svg>
<metadata>
Created by FontForge 20090914 at Wed Nov 26 19:33:47 2014
 By www-data
URW Software, Copyright 1994 by URW
</metadata>
<defs>
<font id="NimbusSanNovD-UltrLigh" horiz-adv-x="1024" >
  <font-face 
    font-family="NimbusSanNovDUltLig"
    font-weight="400"
    font-stretch="normal"
    units-per-em="2048"
    panose-1="0 0 0 0 0 0 0 0 0 0"
    ascent="1707"
    descent="-341"
    x-height="979"
    cap-height="1365"
    bbox="-307 -512 2029 1800"
    underline-thickness="40"
    underline-position="-151"
    unicode-range="U+0020-U+F002"
  />
<missing-glyph horiz-adv-x="512" 
d="M51 0v1365h410v-1365h-410zM410 51v1263h-308v-1263h308z" />
    <glyph glyph-name=".notdef" horiz-adv-x="512" 
d="M51 0v1365h410v-1365h-410zM410 51v1263h-308v-1263h308z" />
    <glyph glyph-name="space" unicode=" " horiz-adv-x="512" 
 />
    <glyph glyph-name="exclam" unicode="!" horiz-adv-x="342" 
d="M211 1365v-1016h-39v1016h39zM211 188v-188h-39v188h39z" />
    <glyph glyph-name="quotedbl" unicode="&#x22;" horiz-adv-x="457" 
d="M142 816h-30l-6 549h41zM346 816h-30l-5 549h41z" />
    <glyph glyph-name="numbersign" unicode="#" horiz-adv-x="1119" 
d="M710 502l-63 -445h-39l63 445h-268l-63 -445h-39l63 445h-282l5 37h282l36 258h-282l6 38h281l58 412h40l-58 -412h267l58 412h40l-58 -412h281l-5 -38h-282l-36 -258h282l-5 -37h-282zM712 797h-268l-36 -258h268z" />
    <glyph glyph-name="dollar" unicode="$" horiz-adv-x="1120" 
d="M563 1488l-0.00195312 -155.999c278.667 -15.333 423 -142.333 433 -381h-40c-10 216 -141 331 -393 345v-610c156 -39.333 253.333 -68 292 -86c112 -52.667 168 -145.334 168 -278.001c0 -109.333 -40.5 -194.833 -121.5 -256.5s-193.833 -93.167 -338.5 -94.5v-176
h-39v177c-118 10 -214.333 39 -289 87c-51.333 33.333 -92.333 80.5 -123 141.5s-46 126.167 -46 195.5v25h38c-1.33301 -248.667 138.667 -386.334 420 -413.001v650c-127.333 32.667 -213.666 60.667 -258.999 84c-107.333 56.667 -161 147.334 -161 272.001
c0 99.333 36.833 177 110.5 233s176.834 84.667 309.501 86v155h39zM562.998 648.001v-641.001c100 0.666992 188 19 264 55c48.667 23.333 87 58 115 104s42 97.667 42 155c0 122.667 -53.667 207 -161 253c-34 14.667 -120.667 39.334 -260 74.001zM523.998 696v601
c-99.333 -1.33301 -181 -19 -245 -53c-90.667 -49.333 -136 -127.333 -136 -234c0 -112 48 -191.333 144 -238c45.333 -22 124.333 -47.333 237 -76z" />
    <glyph glyph-name="percent" unicode="%" horiz-adv-x="1413" 
d="M1172 1385l-897 -1440h-44l897 1440h44zM1057 626c89.333 0 160.167 -28.6689 212.5 -86.002s78.5 -134.666 78.5 -231.999c0 -101.333 -26 -181.333 -78 -240s-123.333 -88 -214 -88c-92.667 0 -165 28.5 -217 85.5s-78 136.167 -78 237.5
c0 100.667 26 179.334 78 236.001c54 58 126.667 87 218 87zM1058 589.998c-84.667 0 -149.332 -24.832 -193.999 -74.499s-67 -121.5 -67 -215.5c0 -90.667 22 -160.334 66 -209.001c46.667 -51.333 110.667 -77 192 -77c88.667 0 155.667 31 201 93
c38 52 57 119.333 57 202c0 86.667 -22.333 154.667 -67 204s-107.334 75 -188.001 77zM365.003 1351c98 0 174.667 -36.333 230 -109c40 -52.667 60 -124 60 -214c0 -98 -27.167 -176.667 -81.5 -236s-125.833 -89 -214.5 -89c-91.333 0 -163 29 -215 87
s-78 137.667 -78 239c0 96 24.667 172.333 74 229c54 62 129 93 225 93zM364.003 1314c-82.667 0 -147.001 -25.333 -193.001 -76s-69 -121.667 -69 -213c0 -88 21.667 -157.667 65 -209c44 -50.667 107.667 -76 191 -76c94.667 0 164.667 34.333 210 103
c34 52 51 114 51 186c0 89.333 -22.167 158.833 -66.5 208.5s-107.166 75.167 -188.499 76.5z" />
    <glyph glyph-name="ampersand" unicode="&#x26;" horiz-adv-x="1091" 
d="M934 526c-0.666992 -94 -21 -184.333 -61 -271l206 -255h-47l-175 220c-31.333 -49.333 -61 -88.333 -89 -117c-82.667 -86 -185.334 -129 -308.001 -129c-102.667 0 -188.667 25.333 -258 76c-90 64.667 -135 152.334 -135 263.001c0 112.667 60 214.334 180 305.001
c34 26 97.667 69 191 129l-11 14c-73.333 93.333 -116.666 149.333 -129.999 168c-40.667 55.333 -61 111.666 -61 168.999c0 73.333 26.333 133.166 79 179.499s120.667 69.5 204 69.5c70.667 0 130.334 -19.667 179.001 -59c60.667 -49.333 91 -111.333 91 -186
c0 -70.667 -30 -138 -90 -202c-28.667 -31.333 -92.334 -81.333 -191.001 -150l-18 -13l358 -450c4.66699 12.667 7.66699 20 9 22c24.667 60.667 38.667 133 42 217h35zM468 766c90.667 50.667 160.833 104.999 210.5 162.999s74.5 115 74.5 171c0 62 -22.333 113 -67 153
s-101 60 -169 60c-82 0 -146 -24.667 -192 -74c-36.667 -40 -55 -87.667 -55 -143c0 -33.333 6.33301 -63.166 19 -89.499s40 -65.833 82 -118.5l38 -50c25.333 -32.667 45 -56.667 59 -72zM458.999 716.999c-66 -37.333 -130 -80.333 -192 -129
c-109.333 -83.333 -164 -175 -164 -275c0 -104 42.333 -184.667 127 -242c65.333 -44 141.666 -66 228.999 -66c77.333 0 149.833 22.167 217.5 66.5s119.834 103.833 156.501 178.5z" />
    <glyph glyph-name="quotesingle" unicode="'" horiz-adv-x="253" 
d="M142 816h-30l-6 549h41z" />
    <glyph glyph-name="parenleft" unicode="(" horiz-adv-x="469" 
d="M360 1365c-70 -120.667 -125.001 -256.833 -165.001 -408.5s-60 -301.5 -60 -449.5c0 -140 19.333 -283 58 -429s94.334 -285.667 167.001 -419h-41c-148.667 278.667 -223 565.334 -223 860.001c0 139.333 19.5 283.166 58.5 431.499s93.833 286.5 164.5 414.5h41z" />
    <glyph glyph-name="parenright" unicode=")" horiz-adv-x="469" 
d="M109 -341c70.667 120.667 125.834 256.833 165.501 408.5s59.5 301.5 59.5 449.5c0 140 -19.333 283 -58 429s-94.334 285.667 -167.001 419h41c148.667 -278 223 -564.667 223 -860c0 -139.333 -19.5 -283.333 -58.5 -432s-93.833 -286.667 -164.5 -414h-41z" />
    <glyph glyph-name="asterisk" unicode="*" horiz-adv-x="1120" 
d="M836 1149l-252 -82l158 -212l-27 -22l-156 211l-165 -206l-27 23l166 206l-251 82l11 33l248 -81v264h34v-264l251 81z" />
    <glyph glyph-name="plus" unicode="+" horiz-adv-x="1120" 
d="M102 671h435v441h39v-441h442v-39h-442v-440h-39v440h-435v39z" />
    <glyph glyph-name="comma" unicode="," horiz-adv-x="247" 
d="M143 188v-174c1.33301 -124 -26 -204 -82 -240v52c30.667 30.667 45 89.667 43 177v185h39z" />
    <glyph glyph-name="hyphen" unicode="-" horiz-adv-x="423" 
d="M423 521v-37h-423v37h423z" />
    <glyph glyph-name="period" unicode="." horiz-adv-x="247" 
d="M143 188v-188h-39v188h39z" />
    <glyph glyph-name="slash" unicode="/" horiz-adv-x="832" 
d="M750 1365l-785 -1706h-40l785 1706h40z" />
    <glyph glyph-name="zero" unicode="0" horiz-adv-x="1120" 
d="M567 1332c75.333 0 145.999 -18.9971 211.999 -56.9971s121 -91.333 165 -160c72.667 -114 109 -267.333 109 -460c0 -186.667 -34.667 -337.667 -104 -453c-48 -80.667 -110 -140.667 -186 -180c-64 -34 -134 -51 -210 -51c-108 0 -201.333 32 -280 96
c-137.333 111.333 -206 298.666 -206 561.999c0 207.333 40 371.666 120 492.999c44.667 67.333 99.834 119.166 165.501 155.499s137.167 54.5 214.5 54.5zM568.999 1296c-149.333 0 -267.333 -67.999 -354 -203.999c-72.667 -114.667 -109 -270 -109 -466
c0 -162.667 29.667 -298.667 89 -408c40.667 -75.333 97.334 -131 170.001 -167c59.333 -29.333 122.666 -44 189.999 -44c104.667 0 196 35.667 274 107c123.333 113.333 185 293.666 185 540.999c0 172.667 -30.667 312.667 -92 420c-83.333 144 -201 217.667 -353 221z
" />
    <glyph glyph-name="one" unicode="1" horiz-adv-x="1120" 
d="M648 1304v-1304h-39v1263c-47.333 -61.333 -100.833 -112.166 -160.5 -152.499s-124.5 -69.833 -194.5 -88.5v39c76.667 20.667 149 58 217 112c32.667 28 77 71.667 133 131h44z" />
    <glyph glyph-name="two" unicode="2" horiz-adv-x="1120" 
d="M1013 36l0.00195312 -36h-880c12 96 42.667 172 92 228s169.666 151.333 360.999 286c128 90 218.667 170.5 272 241.5s80 146.833 80 227.5c0 105.333 -37.333 186 -112 242c-62.667 47.333 -144.334 71 -245.001 71c-150.667 0 -258.667 -52 -324 -156
c-38.667 -62 -59 -150.667 -61 -266h-39c2.66699 79.333 11.334 143.666 26.001 192.999s38 93.333 70 132c35.333 42 82 74.667 140 98s121 35 189 35c118 0 212.333 -30.333 283 -91c74.667 -64 112 -150 112 -258c0 -110.667 -45.667 -213 -137 -307
c-58.667 -61.333 -175.334 -153.666 -350.001 -276.999c-116.667 -82.667 -195.667 -148 -237 -196s-66.333 -104 -75 -168c20 0.666992 40.333 1 61 1h774z" />
    <glyph glyph-name="three" unicode="3" horiz-adv-x="1120" 
d="M139 897c5.33301 118 32.335 210.334 81.002 277.001c78.667 106 199.667 159 363 159c128.667 0 229.334 -32 302.001 -96c72 -63.333 108 -142.333 108 -237c0 -84.667 -25.833 -153 -77.5 -205s-125.5 -84 -221.5 -96c80 -12 142 -32.667 186 -62
c42.667 -28 76.167 -66 100.5 -114s36.5 -100.667 36.5 -158c0 -120 -46 -218.333 -138 -295c-78.667 -66 -182.667 -99 -312 -99c-160.667 0 -283.334 48.667 -368.001 146c-64 74 -96 167.333 -96 280c0 9.33301 0.333008 24.666 1 45.999h36
c-0.666992 -20.667 -1 -34.667 -1 -42c0 -116.667 34 -209 102 -277c78 -78 187 -117 327 -117c126.667 0 228 36 304 108c70.667 66.667 106 148.334 106 245.001c0 68.667 -16.5 128 -49.5 178s-80.167 86.667 -141.5 110c-62.667 23.333 -155 35.333 -277 36v35h17
c91.333 0 158.666 5 201.999 15c70 16 125 47.5 165 94.5s60 104.167 60 171.5c0 91.333 -33.333 163.666 -100 216.999s-157.334 80 -272.001 80c-129.333 0 -228.833 -34.167 -298.5 -102.5s-106.5 -167.5 -110.5 -297.5h-34z" />
    <glyph glyph-name="four" unicode="4" horiz-adv-x="1120" 
d="M1018 376v-36h-234v-340h-39v340h-658v45l646 919h51v-928h234zM745 376v886l-622 -886h622z" />
    <glyph glyph-name="five" unicode="5" horiz-adv-x="1120" 
d="M957 1304l-0.000976562 -36.001h-642l-122 -572c41.333 55.333 84.333 96.333 129 123c69.333 41.333 147 62 233 62c136 0 247.667 -46 335 -138c80.667 -85.333 121 -190.666 121 -315.999c0 -120 -37.667 -223 -113 -309c-86 -98 -199 -147 -339 -147
c-128 0 -234 36.667 -318 110c-88.667 78 -133 189.667 -133 335h34c4.66699 -87.333 19.334 -156 44.001 -206c32.667 -66 83.667 -116.667 153 -152c66.667 -34 140 -51 220 -51c130.667 0 235 45.667 313 137c66.667 77.333 100 171.333 100 282
c0 118.667 -37 216.667 -111 294c-79.333 83.333 -181 125 -305 125c-159.333 0 -280.333 -67.333 -363 -202h-45l140 661h669z" />
    <glyph glyph-name="six" unicode="6" horiz-adv-x="1120" 
d="M1004 987h-38.998c-16.667 88.667 -53.334 158.667 -110.001 210c-72.667 66 -161.334 99 -266.001 99c-295.333 0 -443 -253.667 -443 -761c16 50.667 31.333 89.5 46 116.5s35.667 54.5 63 82.5c88 90 195.667 135 323 135c128.667 0 236.667 -45.333 324 -136
c83.333 -86 125 -191 125 -315c0 -118.667 -41.667 -222.667 -125 -312c-83.333 -90 -191.666 -135 -324.999 -135c-106 0 -199.667 31.333 -281 94c-66 50.667 -113 116.5 -141 197.5s-42 190.833 -42 329.5c0 209.333 31.667 377.333 95 504
c79.333 157.333 205.666 236 378.999 236c74 0 141.5 -15.167 202.5 -45.5s110.833 -73.5 149.5 -129.5c30 -43.333 51.667 -100 65 -170zM582.002 833c-123.333 0 -226.332 -43.3311 -308.999 -129.998c-73.333 -76.667 -110 -170.667 -110 -282
c0 -120.667 41.333 -220.334 124 -299.001c80 -76.667 176.667 -115 290 -115c123.333 0 225.666 45.333 306.999 136c69.333 77.333 104 170.333 104 279c0 108 -34.667 199.667 -104 275c-81.333 87.333 -182 132.666 -302 135.999z" />
    <glyph glyph-name="seven" unicode="7" horiz-adv-x="1120" 
d="M1013 1304l-0.00195312 -45.998c-181.333 -174.667 -323.666 -374.334 -426.999 -599.001c-96 -212.667 -148.333 -432.334 -157 -659.001h-39c4.66699 224 56.334 445.333 155.001 664c54 119.333 119.833 232.5 197.5 339.5s158.167 195.167 241.5 264.5h-806v36h835z
" />
    <glyph glyph-name="eight" unicode="8" horiz-adv-x="1120" 
d="M423 709c-183.333 35.333 -274.998 134.999 -274.998 298.999c0 102.667 36 182.334 108 239.001s173.333 85 304 85c137.333 0 241 -28.667 311 -86c69.333 -56 104 -135 104 -237c0 -79.333 -23.833 -145.333 -71.5 -198s-114.834 -86.667 -201.501 -102
c91.333 -14.667 161.666 -42 210.999 -82c77.333 -63.333 116 -151.333 116 -264c0 -122 -40.833 -217.833 -122.5 -287.5s-194.167 -104.5 -337.5 -104.5c-158 0 -276 35 -354 105c-82.667 73.333 -124 168.333 -124 285c0 96.667 28.5 175 85.5 235
s139.167 97.667 246.5 113zM558.002 1297c-120.667 0 -212.667 -24.667 -276 -74s-95 -120.666 -95 -213.999c0 -90 33 -159.833 99 -209.5s158.667 -74.5 278 -74.5c122.667 0 216 27.333 280 82c61.333 51.333 92 118.666 92 201.999c0 189.333 -126 285.333 -378 288z
M560.002 691.999c-129.333 0 -230.667 -25.002 -304 -75.002c-84 -57.333 -126 -142.666 -126 -255.999c0 -112.667 38 -200 114 -262s183.333 -93 322 -93c142 0 249 34 321 102c68.667 64.667 103 149.334 103 254.001c0 107.333 -36.333 188.833 -109 244.5
s-179.667 84.167 -321 85.5z" />
    <glyph glyph-name="nine" unicode="9" horiz-adv-x="1120" 
d="M132 307l36.999 -0.00195312c14.667 -74 46 -136.333 94 -187c71.333 -75.333 164.333 -113 279 -113c74.667 0 142.167 17.667 202.5 53s108.166 85.333 143.499 150c48 87.333 76.667 208 86 362c1.33301 18.667 3 92 5 220c-20 -76.667 -48.667 -139.667 -86 -189
c-84 -110.667 -199.667 -166 -347 -166c-142 0 -257 50.667 -345 152c-72 82 -108 179.667 -108 293c0 136.667 48.667 248.667 146 336c84.667 76 185.334 114 302.001 114c88.667 0 169.334 -22.167 242.001 -66.5s127.334 -105.166 164.001 -182.499
c44 -92 66 -221 66 -387c0 -196 -21.667 -345 -65 -447c-42.667 -101.333 -102.334 -174.333 -179.001 -219c-67.333 -39.333 -142.333 -59 -225 -59c-108 0 -199.833 30.833 -275.5 92.5s-121.167 142.834 -136.5 243.501zM545.999 1296c-125.333 0 -228 -44.667 -308 -134
c-70.667 -78 -106 -171.667 -106 -281c0 -105.333 34.333 -196 103 -272c81.333 -90.667 184.666 -136 309.999 -136c126 0 228.667 44.667 308 134c32.667 36.667 58.334 80 77.001 130s28 99.667 28 149c0 105.333 -34.667 196 -104 272
c-81.333 88.667 -184 134.667 -308 138z" />
    <glyph glyph-name="colon" unicode=":" horiz-adv-x="281" 
d="M177 188v-188h-39v188h39zM177 939v-188h-39v188h39z" />
    <glyph glyph-name="semicolon" unicode=";" horiz-adv-x="281" 
d="M178 188v-174c1.33301 -124 -26 -204 -82 -240v52c30.667 30.667 45 89.667 43 177v185h39zM178 939v-188h-39v188h39z" />
    <glyph glyph-name="less" unicode="&#x3c;" 
d="M955 1084v-41l-841 -360l841 -361v-41l-887 381v42z" />
    <glyph glyph-name="equal" unicode="=" horiz-adv-x="1120" 
d="M102 808h916v-39h-916v39zM102 536h916v-39h-916v39z" />
    <glyph glyph-name="greater" unicode="&#x3e;" 
d="M69 281v41l840 361l-840 360v41l886 -380v-42z" />
    <glyph glyph-name="question" unicode="?" horiz-adv-x="924" 
d="M75 943c0 108 19.667 196.336 59 265.003c32.667 59.333 79.834 105.333 141.501 138s131.5 49 209.5 49c124 0 221 -36 291 -108c62.667 -64.667 94 -139.334 94 -224.001c0 -80 -29 -156.333 -87 -229c-14.667 -18.667 -65 -68.667 -151 -150
c-63.333 -59.333 -101.833 -105.5 -115.5 -138.5s-21.167 -98.5 -22.5 -196.5h-39c0 103.333 8.83301 175 26.5 215s64.167 93.667 139.5 161c77.333 69.333 131.666 129.166 162.999 179.499s47 103.166 47 158.499c0 80.667 -32 151 -96 211
c-60.667 56.667 -144 85 -250 85c-156 0 -265.667 -63.333 -329 -190c-26 -52.667 -40.333 -128 -43 -226h-38zM494 187.003v-187h-39v187h39z" />
    <glyph glyph-name="at" unicode="@" horiz-adv-x="1475" 
d="M1307 338l37 -0.00195312c-35.333 -84.667 -90.333 -155.334 -165 -212.001c-123.333 -94 -262 -141 -416 -141c-131.333 0 -251.333 34.333 -360 103c-104.667 66.667 -184.334 156.334 -239.001 269.001c-45.333 92.667 -68 192 -68 298c0 128.667 32.667 248 98 358
c58 97.333 135.333 175 232 233c107.333 64 224.666 96 351.999 96c104 0 202 -23 294 -69c114 -56 197.333 -134.333 250 -235c38.667 -73.333 58 -156 58 -248c0 -158 -56.667 -286 -170 -384c-84 -73.333 -166.667 -110 -248 -110c-26.667 0 -51.5 6.16699 -74.5 18.5
s-39.5 28.166 -49.5 47.499c-7.33301 14.667 -11 36.334 -11 65.001c-68 -83.333 -143.667 -125 -227 -125c-57.333 0 -103.166 20.833 -137.499 62.5s-51.5 96.834 -51.5 165.501c0 101.333 26.667 198.666 80 291.999c40 70 91.333 125.667 154 167
c42.667 28 90.334 42 143.001 42c90 0 151.333 -50.333 184 -151l43 120h38l-169 -480c-13.333 -37.333 -20 -68.666 -20 -93.999c0 -60.667 34 -91 102 -91c74.667 0 148.334 33.333 221.001 100c102.667 92.667 154 210.334 154 353.001c0 158 -58.667 285.333 -176 382
c-108.667 90 -236.667 135 -384 135c-123.333 0 -237 -32 -341 -96c-90.667 -55.333 -162.334 -128.333 -215.001 -219c-58.667 -100.667 -88 -212.667 -88 -336c0 -178.667 60 -328 180 -448c122 -122.667 270 -184 444 -184c115.333 0 222.5 28.667 321.5 86
s173.833 134 224.5 230zM867 581.998l47.001 129c18.667 50.667 28 89.334 28 116.001c0 33.333 -7.66699 63.333 -23 90c-30 54 -73.667 81 -131 81c-79.333 0 -154 -45.333 -224 -136c-76 -97.333 -114 -207 -114 -329c0 -62 12.667 -108.667 38 -140
c28.667 -36 66 -54 112 -54c62 0 118.667 24 170 72c20.667 20 37.667 41.667 51 65s28.666 58.666 45.999 105.999z" />
    <glyph glyph-name="A" unicode="A" horiz-adv-x="1175" 
d="M613 1365l547 -1365h-43l-180 451h-695l-183 -451h-44l560 1365h38zM923 487l-331 829l-336 -829h667z" />
    <glyph glyph-name="B" unicode="B" horiz-adv-x="1213" 
d="M131 1365l546.001 0.000976562c120.667 0 215 -22.333 283 -67c95.333 -62.667 143 -152.667 143 -270c0 -84 -27.167 -155.5 -81.5 -214.5s-124.833 -93.5 -211.5 -103.5c76.667 -12 132.667 -28 168 -48c52 -28.667 92.833 -69 122.5 -121s44.5 -109 44.5 -171
c0 -75.333 -20 -141.833 -60 -199.5s-96.333 -100.834 -169 -129.501c-68.667 -27.333 -168.334 -41 -299.001 -41h-486v1365zM170.001 1329l0.000976562 -604.001h426c79.333 0 142.166 3 188.499 9s84.5 16.333 114.5 31c52 25.333 92.5 60.833 121.5 106.5
s43.5 97.167 43.5 154.5c0 112.667 -48 196.334 -144 251.001c-60.667 34.667 -148.667 52 -264 52h-486zM170.002 689l0.000976562 -653h480c145.333 0 254.666 26.667 327.999 80c85.333 61.333 128 147.333 128 258c0 107.333 -43.333 190 -130 248
c-66 44.667 -164.667 67 -296 67h-510z" />
    <glyph glyph-name="C" unicode="C" horiz-adv-x="1347" 
d="M1290 535c-10 -129.333 -53.002 -243.666 -129.002 -342.999c-56 -74 -126 -130.333 -210 -169c-79.333 -36 -163.333 -54 -252 -54c-97.333 0 -188.166 20.667 -272.499 62s-154.5 100 -210.5 176c-93.333 124 -140 281.333 -140 472c0 206.667 55.333 376 166 508
c116.667 140 271.334 210 464.001 210c173.333 0 315.333 -58 426 -174c74.667 -78.667 118.667 -168 132 -268h-36c-18 92.667 -58 172 -120 238c-103.333 112 -238.666 168 -405.999 168c-188 0 -337.333 -72.667 -448 -218c-92.667 -122 -139 -276.333 -139 -463
c0 -180.667 42.333 -328.667 127 -444c59.333 -82 133.666 -142.667 222.999 -182c74 -32.667 151.333 -49 232 -49c86.667 0 167.667 17.833 243 53.5s139 86.167 191 151.5c66.667 85.333 108 193.666 124 324.999h35z" />
    <glyph glyph-name="D" unicode="D" horiz-adv-x="1267" 
d="M131 1365h446.001c91.333 0 171.666 -11.833 240.999 -35.5s130 -60.167 182 -109.5c61.333 -58.667 108.5 -133 141.5 -223s49.5 -190 49.5 -300c0 -234 -63.667 -414.333 -191 -541c-54 -54 -115.5 -93.5 -184.5 -118.5s-151.167 -37.5 -246.5 -37.5h-438v1365z
M170.001 1329l0.000976562 -1293h376c97.333 0 178.166 10.333 242.499 31s122.166 54.667 173.499 102c126.667 118 190 293.333 190 526c0 208 -54.333 369 -163 483c-50.667 53.333 -109.167 91.833 -175.5 115.5s-148.166 35.5 -245.499 35.5h-398z" />
    <glyph glyph-name="E" unicode="E" horiz-adv-x="1091" 
d="M1040 1365v-36h-870v-599h819v-36h-819v-658h879v-36h-918v1365h909z" />
    <glyph glyph-name="F" unicode="F" horiz-adv-x="974" 
d="M973 1365v-36h-803v-602h727v-36h-727v-691h-39v1365h842z" />
    <glyph glyph-name="G" unicode="G" horiz-adv-x="1414" 
d="M1310 643l-0.00195312 -644h-39v365c-21.333 -74 -54.666 -139 -99.999 -195c-109.333 -133.333 -260 -200 -452 -200c-134 0 -252.333 33 -355 99c-95.333 61.333 -168 146.333 -218 255c-46.667 102 -70 216 -70 342c0 106.667 16.167 207 48.5 301
s77.833 173.333 136.5 238c116.667 128 267.334 192 452.001 192c176 0 321 -62 435 -186c70 -77.333 115 -167.333 135 -270h-36c-18 86 -58 165 -120 237c-106.667 122 -244.667 183 -414 183c-204.667 0 -363 -82 -475 -246c-82 -120 -123 -270.667 -123 -452
c0 -184.667 48.333 -335 145 -451c54.667 -65.333 121.5 -116 200.5 -152s163.167 -54 252.5 -54c134 0 249.667 36.333 347 109c68 50 120.333 114.5 157 193.5s55 166.167 55 261.5c0 5.33301 -0.333008 18 -1 38h-530v36h569z" />
    <glyph glyph-name="H" unicode="H" horiz-adv-x="1297" 
d="M1166 1365v-1365h-39v694h-957v-694h-39v1365h39v-635h957v635h39z" />
    <glyph glyph-name="I" unicode="I" horiz-adv-x="301" 
d="M170 1365v-1365h-39v1365h39z" />
    <glyph glyph-name="J" unicode="J" horiz-adv-x="864" 
d="M754 1365l-0.000976562 -1026c0 -112 -25.333 -197 -76 -255c-66 -75.333 -163 -113 -291 -113c-167.333 0 -278.666 56.667 -333.999 170c-26 54 -39 132 -39 234c0 14 0.666992 30.333 2 49h35c0 -108.667 7 -185.334 21 -230.001c38 -124.667 143 -187 315 -187
c120 0 209.333 36 268 108c40 49.333 60 127 60 233v1017h39z" />
    <glyph glyph-name="K" unicode="K" horiz-adv-x="1183" 
d="M1172 1365l-661 -575l705 -790h-49l-684 764l-313 -278v-486h-39v1365h39v-828l948 828h54z" />
    <glyph glyph-name="L" unicode="L" horiz-adv-x="961" 
d="M974 36v-36h-843v1365h39v-1329h804z" />
    <glyph glyph-name="M" unicode="M" horiz-adv-x="1550" 
d="M1418 1365v-1365h-39v1307l-580 -1307h-48l-581 1307v-1307h-39v1365h56l588 -1323l590 1323h53z" />
    <glyph glyph-name="N" unicode="N" horiz-adv-x="1296" 
d="M1165 1365v-1365h-46l-949 1316v-1316h-39v1365h51l944 -1311v1311h39z" />
    <glyph glyph-name="O" unicode="O" horiz-adv-x="1427" 
d="M718 1396c121.333 0 233.333 -34 336 -102c104 -69.333 181 -163 231 -281c44 -103.333 66 -218.333 66 -345c0 -188 -50 -344.667 -150 -470c-121.333 -152.667 -285.333 -229 -492 -229c-204 0 -364 75.333 -480 226c-102 132.667 -153 294 -153 484
c0 212 57 382 171 510c122.667 138 279.667 207 471 207zM721 1360c-180 0 -327.666 -65.667 -442.999 -197c-108 -123.333 -162 -283 -162 -479c0 -182 47.667 -335.667 143 -461c110 -145.333 260 -218 450 -218c194 0 348.333 72.667 463 218
c93.333 118 140 267.333 140 448c0 202 -54.333 365.333 -163 490c-110.667 128 -253.334 194.333 -428.001 199z" />
    <glyph glyph-name="P" unicode="P" horiz-adv-x="1142" 
d="M131 1365l532.002 -0.00195312c69.333 0 125.666 -4.5 168.999 -13.5s81.666 -24.5 114.999 -46.5c48.667 -31.333 86.5 -74.166 113.5 -128.499s40.5 -115.166 40.5 -182.499c0 -112.667 -37 -202.5 -111 -269.5s-173 -100.5 -297 -100.5h-523v-624h-39v1365z
M170.002 1329l0.00195312 -669h463c71.333 0 124.166 2.83301 158.499 8.5s68.166 17.5 101.499 35.5c112.667 59.333 169 156 169 290c0 124 -43.667 216 -131 276c-32.667 22.667 -68 38.167 -106 46.5s-92.667 12.5 -164 12.5h-491z" />
    <glyph glyph-name="Q" unicode="Q" horiz-adv-x="1425" 
d="M1367 -16l-20 -27l-229 158c-109.333 -98 -243.333 -147 -402 -147c-194 0 -352.667 70 -476 210c-109.333 124 -164 286.333 -164 487c0 216 58.333 390.333 175 523c122.667 138.667 278 208 466 208c190.667 0 347 -73 469 -219c108 -128.667 162 -293.667 162 -495
c0 -105.333 -18 -205.833 -54 -301.5s-86 -176.5 -150 -242.5zM1114 161c130 148.667 194.999 322.669 194.999 522.002c0 174 -42.333 319.333 -127 436c-116 160.667 -271.333 241 -466 241c-132 0 -248.333 -37.667 -349 -113
c-82 -60.667 -144.5 -140.834 -187.5 -240.501s-64.5 -213.167 -64.5 -340.5c0 -178.667 43.667 -324.334 131 -437.001c54.667 -70.667 123.667 -126 207 -166c82 -39.333 170.333 -59 265 -59c69.333 0 132.333 10 189 30s116.334 54 179.001 102l-239 165l21 30z" />
    <glyph glyph-name="R" unicode="R" horiz-adv-x="1214" 
d="M131 1365l541.001 0.000976562c128 0 225.667 -22 293 -66c98 -63.333 147 -161 147 -293c0 -128.667 -52.667 -225.334 -158 -290.001c-40 -24.667 -93.333 -42.334 -160 -53.001c55.333 -7.33301 98.166 -16.666 128.499 -27.999s57.166 -28.333 80.499 -51
c34.667 -32.667 57.167 -70 67.5 -112s18.166 -125 23.499 -249c4.66699 -117.333 11.667 -185.666 21 -204.999l9 -18h-41c-13.333 17.333 -22.666 95 -27.999 233c-4.66699 119.333 -13.667 200.666 -27 243.999s-40.666 79 -81.999 107c-32.667 22 -73 37.5 -121 46.5
s-113.333 13.5 -196 13.5h-459v-644h-39v1365zM170.001 1329v-648.999h450c135.333 0 238 20.667 308 62c97.333 57.333 146 145.666 146 264.999c0 112.667 -41.333 197.667 -124 255c-64 44.667 -161.667 67 -293 67h-487z" />
    <glyph glyph-name="S" unicode="S" horiz-adv-x="1094" 
d="M1012 982h-40c-7.33301 109.333 -37.333 192.666 -90 249.999c-37.333 40 -88.333 71 -153 93s-137.667 33 -219 33c-125.333 0 -225.333 -27 -300 -81s-112 -131.667 -112 -233c0 -114 51.333 -194.333 154 -241c48.667 -22 159 -53.667 331 -95
c100.667 -23.333 171.167 -41.333 211.5 -54s75.5 -27 105.5 -43c92.667 -52 139 -139 139 -261c0 -118.667 -44 -211.5 -132 -278.5s-210 -100.5 -366 -100.5c-170 0 -299.667 41.333 -389 124c-40 37.333 -72 85.833 -96 145.5s-36 121.5 -36 185.5
c0 5.33301 0.333008 14 1 26h37c0 -121.333 30 -219.666 90 -294.999c36.667 -47.333 89.5 -84.166 158.5 -110.499s146.833 -39.5 233.5 -39.5c160.667 0 280 35.333 358 106c68 62 102 140.667 102 236c0 105.333 -38.333 181.333 -115 228c-28.667 16.667 -62 31 -100 43
s-113.333 31 -226 57c-118 27.333 -200.5 48.666 -247.5 63.999s-88.5 34.333 -124.5 57c-85.333 53.333 -128 136.666 -128 249.999c0 116.667 47 206.334 141 269.001c77.333 51.333 180.333 77 309 77c157.333 0 278.5 -34.833 363.5 -104.5s131.5 -172.167 139.5 -307.5
z" />
    <glyph glyph-name="T" unicode="T" horiz-adv-x="1003" 
d="M1016 1365v-36h-496v-1329h-39v1329h-495v36h1030z" />
    <glyph glyph-name="U" unicode="U" horiz-adv-x="1237" 
d="M1127 1365l-0.000976562 -854c0 -138 -25.333 -247.667 -76 -329c-86 -140.667 -226.667 -211 -422 -211c-218 0 -369.333 78 -454 234c-42.667 77.333 -64 181.333 -64 312v848h39v-852c0 -80 7 -146 21 -198s37.667 -100 71 -144
c82.667 -109.333 211.667 -164 387 -164c150.667 0 264.834 43 342.501 129s116.5 212.333 116.5 379v850h39z" />
    <glyph glyph-name="V" unicode="V" horiz-adv-x="1137" 
d="M1122 1365l-522 -1365h-50l-535 1365h43l517 -1324l509 1324h38z" />
    <glyph glyph-name="W" unicode="W" horiz-adv-x="1778" 
d="M1750 1365l-402 -1365h-52l-405 1332l-397 -1332h-49l-416 1365h45l395 -1309l392 1309h59l402 -1311l388 1311h40z" />
    <glyph glyph-name="X" unicode="X" horiz-adv-x="1121" 
d="M1089 1365l-501 -664l526 -701h-47l-507 671l-505 -671h-48l529 701l-499 664h47l477 -633l484 633h44z" />
    <glyph glyph-name="Y" unicode="Y" horiz-adv-x="1112" 
d="M1133 1365l-560 -791v-574h-39v575l-554 790h44l530 -752l536 752h43z" />
    <glyph glyph-name="Z" unicode="Z" horiz-adv-x="1084" 
d="M1037 1365v-49l-963 -1280h978v-36h-1014v51l961 1278h-908v36h946z" />
    <glyph glyph-name="bracketleft" unicode="[" horiz-adv-x="469" 
d="M383 1365v-35h-180v-1636h180v-35h-219v1706h219z" />
    <glyph glyph-name="backslash" unicode="\" horiz-adv-x="832" 
d="M82 1365h40l785 -1706h-40z" />
    <glyph glyph-name="bracketright" unicode="]" horiz-adv-x="469" 
d="M86 -341v35h180v1636h-180v35h219v-1706h-219z" />
    <glyph glyph-name="asciicircum" unicode="^" 
d="M143 806h-52l394 559h53l394 -559h-54l-369 528z" />
    <glyph glyph-name="underscore" unicode="_" 
d="M0 -150h1024v-40h-1024v40z" />
    <glyph glyph-name="grave" unicode="`" 
d="M325 1394l261 -268h-48l-264 268h51z" />
    <glyph glyph-name="a" unicode="a" horiz-adv-x="928" 
d="M934 42l0.00195312 -34.001c-18.667 -5.33301 -39 -8 -61 -8c-42.667 0 -71.667 11.667 -87 35c-10.667 16.667 -16 58 -16 124c0 21.333 0.333008 49.666 1 84.999c-29.333 -69.333 -63 -122.666 -101 -159.999c-74.667 -74 -172.334 -111 -293.001 -111
c-97.333 0 -174.333 20.667 -231 62c-65.333 47.333 -98 117.333 -98 210c0 126.667 60.667 212.667 182 258c54.667 20.667 149 35 283 43c118.667 7.33301 191 18.5 217 33.5s39 53.167 39 114.5c0 87.333 -16 149 -48 185c-52.667 60.667 -137.334 91 -254.001 91
c-196.667 0 -304 -96.333 -322 -289h-36c8 106 43 186.667 105 242s148 83 258 83c130.667 0 225.667 -36.333 285 -109c22 -27.333 35.833 -56.666 41.5 -87.999s8.5 -94.666 8.5 -189.999v-351c0 -108.667 1.66699 -171.334 5 -188.001c6.66699 -31.333 29 -47 67 -47
c16.667 0 35 3 55 9zM769.002 576.999c-22 -26 -46.333 -41.6689 -73 -47.002s-118.667 -13.333 -276 -24c-114.667 -8 -198.667 -33 -252 -75c-54 -43.333 -81 -105.666 -81 -186.999c0 -80 29.333 -141.333 88 -184c48 -34 114.667 -51 200 -51
c72.667 0 134.667 13 186 39s96.333 67 135 123c48.667 70.667 73 144.334 73 221.001v185z" />
    <glyph glyph-name="b" unicode="b" horiz-adv-x="1055" 
d="M122 1365h38.999v-652c28 73.333 59.333 129.333 94 168c76.667 83.333 175 125 295 125c126.667 0 228.334 -44 305.001 -132c84.667 -97.333 127 -229.333 127 -396c0 -132 -28.667 -242.333 -86 -331c-74.667 -116 -188 -174 -340 -174
c-100.667 0 -185 26.5 -253 79.5s-115.333 129.167 -142 228.5v-281h-39v1365zM557.999 971c-129.333 0 -230.667 -50 -304 -150c-61.333 -84 -92 -195 -92 -333s32.333 -250.333 97 -337c72 -95.333 171.333 -143 298 -143c96 0 176.667 27.667 242 83
c96 82 144 212 144 390c0 153.333 -36.333 274 -109 362c-67.333 82 -159.333 124.667 -276 128z" />
    <glyph glyph-name="c" unicode="c" horiz-adv-x="976" 
d="M914 338c-10.667 -80.667 -35.666 -148.999 -74.999 -204.999c-74 -107.333 -183 -161 -327 -161c-156.667 0 -274.334 64 -353.001 192c-56.667 91.333 -85 199.666 -85 324.999c0 75.333 10.667 146 32 212s51.333 120.667 90 164c82.667 94 190.334 141 323.001 141
c107.333 0 195.333 -28.5 264 -85.5s109 -135.167 121 -234.5h-39c-12.667 71.333 -35.667 127.333 -69 168c-64.667 78 -156 117 -274 117c-66 0 -126.833 -13.667 -182.5 -41s-100.834 -65.666 -135.501 -114.999c-60.667 -86 -91 -195 -91 -327
c0 -134 34 -246.667 102 -338c70 -94.667 168 -142 294 -142c100.667 0 183.5 29.167 248.5 87.5s104.167 139.166 117.5 242.499h39z" />
    <glyph glyph-name="d" unicode="d" horiz-adv-x="1055" 
d="M934 1365l-0.000976562 -1365h-39v281c-16.667 -62.667 -41 -114.667 -73 -156c-77.333 -101.333 -185 -152 -323 -152c-151.333 0 -264.333 58 -339 174c-57.333 88.667 -86 199 -86 331c0 166.667 42.333 298.667 127 396c76.667 88 178.334 132 305.001 132
c128.667 0 231.667 -47.333 309 -142c28 -34 54.667 -84.333 80 -151v652h39zM508.999 971c-121.333 0 -216.999 -42.6689 -286.999 -128.002c-72.667 -88 -109 -209 -109 -363c0 -121.333 24.333 -222.666 73 -303.999c32.667 -54.667 76.667 -96.667 132 -126
c53.333 -28 113.666 -42 180.999 -42c126.667 0 226 48 298 144c64.667 86 97 198.333 97 337s-30.667 249.334 -92 332.001c-71.333 96.667 -169 146.667 -293 150z" />
    <glyph glyph-name="e" unicode="e" horiz-adv-x="997" 
d="M924 346c-12 -75.333 -34.668 -138.331 -68.001 -188.998c-79.333 -122.667 -194 -184 -344 -184c-136.667 0 -245 49.667 -325 149c-75.333 93.333 -113 214 -113 362c0 163.333 43.667 292.666 131 387.999c81.333 89.333 184.333 134 309 134
c96.667 0 180 -28.333 250 -85c60.667 -48.667 104.5 -106.834 131.5 -174.501s39.833 -152.167 38.5 -253.5h-818c0 -86 10.333 -158.667 31 -218c28.667 -80 72.334 -143 131.001 -189c65.333 -52 143.333 -78 234 -78c98.667 0 180.667 29.667 246 89
s107.333 142.333 126 249h40zM893.999 529.002c-1.33301 62.667 -7 113.5 -17 152.5s-27.667 78.5 -53 118.5c-72 114 -175 171 -309 171c-99.333 0 -185.333 -32.667 -258 -98c-43.333 -39.333 -76 -85.5 -98 -138.5s-36.667 -121.5 -44 -205.5h779z" />
    <glyph glyph-name="f" unicode="f" horiz-adv-x="412" 
d="M441 1365v-37c-28.667 3.33301 -54.334 5 -77.001 5c-70 0 -117.333 -24 -142 -72c-9.33301 -19.333 -15.166 -40.333 -17.499 -63s-3.5 -72.667 -3.5 -150v-69h213v-36h-213v-943h-39v943h-171v36h171v119c0 95.333 12 161.333 36 198c32 50 89.667 75 173 75
c20 0 43.333 -2 70 -6z" />
    <glyph glyph-name="g" unicode="g" horiz-adv-x="1033" 
d="M912 979l-0.000976562 -912c0 -111.333 -17.333 -197.666 -52 -258.999c-64 -112 -184 -168 -360 -168c-116.667 0 -207 26.167 -271 78.5s-98.333 128.166 -103 227.499h38c7.33301 -68 23.666 -119.667 48.999 -155c55.333 -76.667 150.333 -115 285 -115
c148.667 0 252 41.333 310 124c43.333 62 65 158.667 65 290v245c-18 -50 -37 -89.333 -57 -118c-36.667 -52 -84 -92.167 -142 -120.5s-121.333 -42.5 -190 -42.5c-139.333 0 -246.333 51.333 -321 154c-58.667 80.667 -88 184.667 -88 312c0 145.333 36 261 108 347
c36.667 44 82.334 78.167 137.001 102.5s113 36.5 175 36.5c92 0 170.833 -25 236.5 -75s112.834 -121.333 141.501 -214v262h39zM498.999 970c-132.667 0 -234.334 -51.001 -305.001 -153.001c-53.333 -77.333 -80 -173.666 -80 -288.999c0 -125.333 29.667 -228 89 -308
c65.333 -87.333 159.333 -131 282 -131c74 0 141.667 18.667 203 56c122.667 75.333 184 203.333 184 384c0 140 -37 249.333 -111 328c-67.333 71.333 -154.666 109 -261.999 113z" />
    <glyph glyph-name="h" unicode="h" horiz-adv-x="994" 
d="M161 1365l-0.000976562 -643.001c24.667 73.333 55.334 130 92.001 170c70.667 76 160.667 114 270 114c126 0 223 -46.667 291 -140c44 -59.333 66 -139.666 66 -240.999v-625h-39v617c0 104 -21.333 182.667 -64 236c-63.333 78.667 -148.333 118 -255 118
c-110 0 -197.667 -41.333 -263 -124s-98 -194 -98 -334v-513h-39v1365h39z" />
    <glyph glyph-name="i" unicode="i" horiz-adv-x="282" 
d="M161 1368v-197h-39v197h39zM161 979v-979h-39v979h39z" />
    <glyph glyph-name="j" unicode="j" horiz-adv-x="282" 
d="M160 979l0.000976562 -1117c0 -76.667 -15.333 -129.334 -46 -158.001s-86.334 -43 -167.001 -43h-31v35c53.333 0.666992 87.833 2.16699 103.5 4.5s30.5 7.5 44.5 15.5c20 12 34.5 29 43.5 51s13.5 51 13.5 87v1125h39zM160.001 1368v-197h-39v197h39z" />
    <glyph glyph-name="k" unicode="k" horiz-adv-x="929" 
d="M900 979l-453 -370l483 -609h-50l-464 582l-255 -210v-372h-39v1365h39v-944l683 558h56z" />
    <glyph glyph-name="l" unicode="l" horiz-adv-x="282" 
d="M161 1365v-1365h-39v1365h39z" />
    <glyph glyph-name="m" unicode="m" horiz-adv-x="1520" 
d="M161 979l-0.00390625 -226.001c24.667 64.667 51.334 113.334 80.001 146.001c62.667 71.333 144.334 107 245.001 107c150 0 247.333 -76.333 292 -229c26 64.667 56.333 113 91 145c59.333 56 135 84 227 84c100.667 0 180.334 -32.667 239.001 -98
c26 -28.667 44.333 -61 55 -97s16 -83.333 16 -142v-669h-39v682c0 82 -16.667 145.333 -50 190c-49.333 66 -123.666 99 -222.999 99c-92.667 0 -166.834 -30.167 -222.501 -90.5s-83.5 -140.5 -83.5 -240.5v-640h-39v653c0 78.667 -11 139.667 -33 183
c-44.667 90 -122.667 135 -234 135c-97.333 0 -175.166 -36.167 -233.499 -108.5s-87.5 -168.833 -87.5 -289.5v-573h-39v979h39z" />
    <glyph glyph-name="n" unicode="n" horiz-adv-x="996" 
d="M161 979l-0.00195312 -244.002c20.667 61.333 47.334 110 80.001 146c74 83.333 170.667 125 290 125c117.333 0 209.666 -39.333 276.999 -118c28.667 -33.333 48.167 -68.666 58.5 -105.999s15.5 -91.333 15.5 -162v-620h-39v616c0 90 -12 158.333 -36 205
c-25.333 49.333 -64.333 87 -117 113c-49.333 24.667 -102.666 37 -159.999 37c-97.333 0 -178.666 -30 -243.999 -90c-83.333 -75.333 -125 -194.666 -125 -357.999v-523h-39v979h39z" />
    <glyph glyph-name="o" unicode="o" horiz-adv-x="1032" 
d="M528 1006c94.667 0 177.667 -27.001 249 -81.001c68 -52 117.667 -126.333 149 -223c22 -68 33 -141.333 33 -220c0 -146 -35 -263.667 -105 -353c-82 -104 -194.667 -156 -338 -156s-255 52.333 -335 157c-71.333 93.333 -107 212.333 -107 357
c0 146.667 37.333 267.334 112 362.001c82.667 104.667 196.667 157 342 157zM525 970.999c-130 0 -232.998 -48.001 -308.998 -144.001c-68.667 -86 -103 -198.667 -103 -338c0 -140 33 -252.333 99 -337c75.333 -96 177.666 -144 306.999 -144
c131.333 0 233.333 49 306 147c63.333 84.667 95 193.334 95 326.001c0 132 -30 242.333 -90 331c-68.667 102 -170.334 155 -305.001 159z" />
    <glyph glyph-name="p" unicode="p" horiz-adv-x="1055" 
d="M122 979h38.999v-266c28 74 59.333 130 94 168c76.667 83.333 175 125 295 125c126.667 0 228.334 -44.333 305.001 -133c84.667 -96.667 127 -228.667 127 -396c0 -131.333 -28.667 -241.333 -86 -330c-74.667 -116 -188 -174 -340 -174c-100.667 0 -185 26.5 -253 79.5
s-115.333 129.167 -142 228.5v-622h-39v1320zM557.999 971c-129.333 0 -230.667 -50 -304 -150c-61.333 -84 -92 -195 -92 -333s32.333 -250.333 97 -337c72 -95.333 171.333 -143 298 -143c96 0 176.667 27.667 242 83c96 82 144 212 144 390
c0 153.333 -36.333 274 -109 362c-67.333 82 -159.333 124.667 -276 128z" />
    <glyph glyph-name="q" unicode="q" horiz-adv-x="1055" 
d="M934 979v-1320h-39v622c-16.667 -62.667 -41 -114.667 -73 -156c-76.667 -101.333 -184.334 -152 -323.001 -152c-151.333 0 -264.333 58 -339 174c-57.333 88.667 -86 199 -86 331c0 166.667 42.333 298.334 127 395.001c76.667 88.667 178.334 133 305.001 133
c128.667 0 231.667 -47.333 309 -142c28 -34 54.667 -84.333 80 -151v266h39zM509 970.999c-121.333 0 -216.999 -42.6699 -286.999 -128.003c-72.667 -88 -109 -209 -109 -363c0 -121.333 24.333 -222.666 73 -303.999c32.667 -54.667 76.667 -96.667 132 -126
c53.333 -28 113.666 -42 180.999 -42c126.667 0 226 47.667 298 143c64.667 86.667 97 199.334 97 338.001s-30.667 249.334 -92 332.001c-71.333 96.667 -169 146.667 -293 150z" />
    <glyph glyph-name="r" unicode="r" horiz-adv-x="510" 
d="M551 979l-0.000976562 -38c-131.333 0 -228.666 -40.667 -291.999 -122c-37.333 -48 -62.833 -98.333 -76.5 -151s-20.5 -127 -20.5 -223v-445h-40v979h39v-280c61.333 190 191.333 283.333 390 280z" />
    <glyph glyph-name="s" unicode="s" horiz-adv-x="867" 
d="M770 694l-38.999 0.00292969c-4.66699 66.667 -18.334 119 -41.001 157c-49.333 80 -142.333 120 -279 120c-82 0 -147.333 -15.333 -196 -46c-63.333 -41.333 -95 -99 -95 -173c0 -72.667 34.333 -126.334 103 -161.001c34 -18 108 -40.333 222 -67
c106 -24.667 181.667 -48.334 227 -71.001c82.667 -41.333 124 -109 124 -203c0 -86 -37.333 -154.667 -112 -206c-68 -47.333 -153.333 -71 -256 -71c-155.333 0 -265.666 50.333 -330.999 151c-34 52.667 -51.667 124 -53 214h40c2 -84.667 18 -150.334 48 -197.001
c56.667 -88 155.334 -132 296.001 -132c99.333 0 177.333 21.333 234 64c63.333 48 95 108 95 180c0 75.333 -39.333 133 -118 173c-36.667 18.667 -104.334 39.334 -203.001 62.001c-126 28.667 -210 54.667 -252 78c-69.333 40 -104 101 -104 183c0 95.333 42 166 126 212
c53.333 29.333 123.666 44 210.999 44c127.333 0 222 -35 284 -105c41.333 -46.667 64.333 -115.334 69 -206.001z" />
    <glyph glyph-name="t" unicode="t" horiz-adv-x="419" 
d="M405 979l-0.000976562 -35.999h-217v-706c0 -72.667 5.33301 -120.334 16 -143.001c18.667 -40 59 -60 121 -60c19.333 0 46 2.66699 80 8v-39c-29.333 -4.66699 -55.666 -7 -78.999 -7c-76 0 -127 23.333 -153 70c-16 28.667 -24 87 -24 175v702h-186v36h186v313h39
v-313h217z" />
    <glyph glyph-name="u" unicode="u" horiz-adv-x="983" 
d="M862 979v-979.001h-39v235c-32 -74 -66.667 -129 -104 -165c-66.667 -64.667 -150 -97 -250 -97c-59.333 0 -114.333 11.833 -165 35.5s-91.667 56.834 -123 99.501c-44 59.333 -66 141.333 -66 246v625h39v-584c0 -84 6.33301 -145.667 19 -185
c20 -63.333 56.667 -113.333 110 -150s116 -55 188 -55c103.333 0 187.833 39 253.5 117s98.5 178.667 98.5 302v555h39z" />
    <glyph glyph-name="v" unicode="v" horiz-adv-x="827" 
d="M834 979l-376 -979h-53l-412 979h43l396 -941l361 941h41z" />
    <glyph glyph-name="w" unicode="w" horiz-adv-x="1373" 
d="M1367 979l-321 -979h-49l-308 939l-309 -939h-54l-319 979h40l306 -935l306 935h60l302 -929l306 929h40z" />
    <glyph glyph-name="x" unicode="x" horiz-adv-x="827" 
d="M798 979l-361 -468l396 -511h-50l-373 482l-372 -482h-45l394 511l-364 468h51l339 -438l340 438h45z" />
    <glyph glyph-name="y" unicode="y" horiz-adv-x="814" 
d="M821 979l-438 -1141c-26 -69.333 -55.833 -115.5 -89.5 -138.5s-87.167 -34.5 -160.5 -34.5h-29v34h23c76 0 128.333 13.333 157 40c19.333 17.333 41 55 65 113c40.667 98 59.667 150 57 156l-413 971h42l392 -924l355 924h39z" />
    <glyph glyph-name="z" unicode="z" horiz-adv-x="782" 
d="M751 979v-45l-701 -898h732v-36h-768v49l698 894h-644v36h683z" />
    <glyph glyph-name="braceleft" unicode="{" horiz-adv-x="469" 
d="M115 510c46 -17.333 78.835 -43.5029 98.502 -78.5029s29.5 -84.167 29.5 -147.5v-372c0 -79.333 14 -135.666 42 -168.999s77 -52.333 147 -57v-27c-85.333 0 -146 23 -182 69c-18 22.667 -30.333 51.334 -37 86.001s-10 86.667 -10 156v323
c0 61.333 -8.5 106.666 -25.5 135.999s-48.5 52.666 -94.5 69.999v21c45.333 16.667 76.666 39.834 93.999 69.501s26 75.167 26 136.5v369c0 86 12.333 147.667 37 185c37.333 56.667 98 85 182 85h10v-28c-68.667 -5.33301 -117.334 -24.166 -146.001 -56.499
s-43 -84.5 -43 -156.5v-397c0 -63.333 -9.16699 -110.666 -27.5 -141.999s-51.833 -56.333 -100.5 -75z" />
    <glyph glyph-name="bar" unicode="|" 
d="M492 1365h40v-1706h-40v1706z" />
    <glyph glyph-name="braceright" unicode="}" horiz-adv-x="469" 
d="M354 510c-48.667 18.667 -82.165 43.668 -100.498 75.001s-27.5 78.666 -27.5 141.999v397c0 72 -14.333 124.167 -43 156.5s-77.334 51.166 -146.001 56.499v28h10c84 0 144.667 -28.333 182 -85c24.667 -38 37 -99.667 37 -185v-369
c0 -61.333 8.66699 -106.666 26 -135.999s48.666 -52.666 93.999 -69.999v-21c-46 -18 -77.5 -41.333 -94.5 -70s-25.5 -74 -25.5 -136v-323c0 -74.667 -3.83301 -129.5 -11.5 -164.5s-22.167 -64.167 -43.5 -87.5c-36.667 -39.333 -94.667 -59 -174 -59v27
c70 4.66699 119 23.667 147 57s42 89.666 42 168.999v372c0 63.333 9.83301 112.5 29.5 147.5s52.5 61.167 98.5 78.5z" />
    <glyph glyph-name="asciitilde" unicode="~" horiz-adv-x="1365" 
d="M230 1235l-33.9961 21c39.333 67.333 78.833 115.833 118.5 145.5s85.167 44.5 136.5 44.5c54 0 135 -29.667 243 -89c59.333 -32.667 103.666 -54.5 132.999 -65.5s58 -16.5 86 -16.5c44 0 82.667 13.167 116 39.5s68.666 71.5 105.999 135.5l34 -21
c-39.333 -68 -78.833 -116.833 -118.5 -146.5s-84.834 -44.5 -135.501 -44.5c-32.667 0 -66.334 6.83301 -101.001 20.5s-95 43.5 -181 89.5c-76 41.333 -137 62 -183 62c-42 0 -80.167 -13.5 -114.5 -40.5s-69.5 -71.833 -105.5 -134.5z" />
    <glyph glyph-name="nbspace" unicode="&#xa0;" horiz-adv-x="512" 
 />
    <glyph glyph-name="exclamdown" unicode="&#xa1;" horiz-adv-x="342" 
d="M172 0v1017h39v-1017h-39zM172 1178v187h39v-187h-39z" />
    <glyph glyph-name="cent" unicode="&#xa2;" horiz-adv-x="1120" 
d="M985 521c-14.667 -110.667 -55.999 -197.832 -123.999 -261.499s-155.333 -97.5 -262 -101.5v-204h-39v204c-120.667 9.33301 -215.667 52.666 -285 129.999c-84.667 94 -127 222.333 -127 385c0 149.333 36 269.166 108 359.499s173.333 142.5 304 156.5v168h39v-168
c106 -6 192.333 -37.5 259 -94.5s106 -133.167 118 -228.5h-39c-15.333 87.333 -52.333 156 -111 206s-134.334 77.333 -227.001 82v-962c92 0.666992 169.5 30.834 232.5 90.501s100.833 139.167 113.5 238.5h40zM560.001 1153
c-107.333 -10.667 -192.998 -51.334 -256.998 -122.001c-77.333 -85.333 -116 -204.666 -116 -357.999c0 -80 12.167 -153.667 36.5 -221s58.166 -121.333 101.499 -162c59.333 -55.333 137.666 -88 234.999 -98v961z" />
    <glyph glyph-name="sterling" unicode="&#xa3;" horiz-adv-x="1120" 
d="M1005 880l-36.0029 -0.00390625c-1.33301 128.667 -29 226.334 -83 293.001c-67.333 82 -174.333 123 -321 123c-133.333 0 -234.666 -31.333 -303.999 -94c-63.333 -56.667 -95 -126 -95 -208c0 -58 22.333 -127.333 67 -208c6 -11.333 23 -40.666 51 -87.999l24 -42
h306v-36h-285c38 -78 57 -153 57 -225c0 -64.667 -14.167 -123.667 -42.5 -177s-79.166 -117 -152.499 -191l34 18c59.333 31.333 115 47 167 47c43.333 0 97.666 -12.333 162.999 -37c68 -25.333 113 -41 135 -47s46 -9 72 -9c46 0 98.667 15.667 158 47
s105 67.666 137 108.999l26 -27c-106 -110 -213.333 -165 -322 -165c-43.333 0 -98.666 12.667 -165.999 38c-63.333 23.333 -107.5 38.333 -132.5 45s-51.167 10 -78.5 10c-72 0 -149.333 -30.333 -232 -91l-33 39c70.667 52.667 126.334 113.834 167.001 183.501
s61 138.834 61 207.501c0 80.667 -19.667 155.667 -59 225h-151v36h130l-8 13c-46 76.667 -74 125.334 -84 146.001c-32 64 -48 124.333 -48 181c0 106.667 44.667 191.667 134 255c76 54 177.667 81 305 81c292 0 438.333 -150.667 439 -452z" />
    <glyph glyph-name="currency" unicode="&#xa4;" horiz-adv-x="1311" 
d="M153 224l175.998 176.998c-80 90.667 -120 191.334 -120 302.001c0 109.333 37.667 208 113 296l-177 178l28 28l177 -177c88.667 80 190.334 120 305.001 120c116 0 217 -39.667 303 -119l179 176l28 -28l-177 -177c74.667 -88 112 -187 112 -297
c0 -113.333 -38.667 -212.666 -116 -297.999l181 -181l-28 -28l-181 181c-89.333 -78 -189.666 -117 -300.999 -117c-112 0 -211 37.667 -297 113l-178 -177zM659.998 1111c-116 0 -213.667 -40.334 -293 -121.001c-78.667 -79.333 -118 -175.333 -118 -288
c0 -111.333 39.667 -206.666 119 -285.999s175 -119 287 -119s208 40 288 120c78.667 78.667 118 173.667 118 285c0 114.667 -39.333 210.667 -118 288c-78 78 -172.333 118.333 -283 121z" />
    <glyph glyph-name="yen" unicode="&#xa5;" horiz-adv-x="1120" 
d="M434 751l-325 553h46l405 -684l405 684h46l-326 -553h285v-36h-306l-85 -140v-83h350v-36h-350v-456h-39v456h-349v36h349v83l-85 140h-305v36h284z" />
    <glyph glyph-name="brokenbar" unicode="&#xa6;" 
d="M492 1365h40v-655h-40v655zM492 314h40v-655h-40v655z" />
    <glyph glyph-name="section" unicode="&#xa7;" horiz-adv-x="1120" 
d="M871 999l-38 0.00292969c0 71.333 -14 129.666 -42 174.999c-50.667 83.333 -136.334 125 -257.001 125c-74.667 0 -135.5 -19.333 -182.5 -58s-70.5 -89.334 -70.5 -152.001c0 -54.667 18 -100.334 54 -137.001c24 -24 78 -59 162 -105
c164.667 -90.667 278 -160.334 340 -209.001c98 -77.333 147 -159.666 147 -246.999c0 -58.667 -20.167 -111.5 -60.5 -158.5s-95.5 -81.167 -165.5 -102.5c78.667 -69.333 118 -139.666 118 -210.999c0 -77.333 -29 -140 -87 -188s-133.667 -72 -227 -72
c-108 0 -191.333 31.167 -250 93.5s-87.334 150.166 -86.001 263.499h37c1.33301 -85.333 18 -153 50 -203c50.667 -79.333 132.667 -119 246 -119c88 0 156.333 22 205 66c48 43.333 72 95.333 72 156c0 68.667 -29 126.667 -87 174c-38 31.333 -115.667 81.333 -233 150
c-149.333 88 -243.666 150 -282.999 186c-64.667 60.667 -97 125.334 -97 194.001c0 123.333 71.333 213.333 214 270c-33.333 21.333 -59.666 50.166 -78.999 86.499s-29 74.833 -29 115.5c0 71.333 27.167 129.5 81.5 174.5s124.833 67.5 211.5 67.5
c106.667 0 188.5 -28.333 245.5 -85s87.167 -140 90.5 -250zM383 870.003c-72 -30.667 -124.668 -65.833 -158.001 -105.5s-50 -87.167 -50 -142.5c0 -67.333 31.333 -126.333 94 -177c46.667 -37.333 170.334 -115.666 371.001 -234.999
c10.667 -6.66699 38.667 -25.334 84 -56.001c52.667 16 95.667 36.333 129 61c60.667 46.667 91 104.667 91 174c0 65.333 -32 127.5 -96 186.5s-184.667 137.5 -362 235.5c-46.667 26 -81 45.667 -103 59z" />
    <glyph glyph-name="dieresis" unicode="&#xa8;" 
d="M693 1368v-198h-39v198h39zM371 1368v-198h-39v198h39z" />
    <glyph glyph-name="copyright" unicode="&#xa9;" horiz-adv-x="1578" 
d="M800 1397c122 0 237.333 -32 346 -96c110.667 -65.333 197.667 -152.333 261 -261c64 -110 96 -229 96 -357c0 -127.333 -32 -246.333 -96 -357c-63.333 -110.667 -150.333 -197.667 -261 -261c-110.667 -64 -229.667 -96 -357 -96s-246.333 32 -357 96
s-197.667 151 -261 261c-64 111.333 -96 232.333 -96 363c0 205.333 79 380 237 524c134 122.667 296.667 184 488 184zM800 1358c-206.667 0 -377.333 -74.667 -512 -224c-116 -127.333 -174 -276 -174 -446c0 -124 30 -238.333 90 -343
c60.667 -104 143.334 -186.333 248.001 -247c104 -60 216.333 -90 337 -90s233 30 337 90c105.333 60.667 188 143 248 247c60 105.333 90 218 90 338c0 198 -74.667 365 -224 501c-120.667 110 -267.334 168 -440.001 174zM1165 603
c-5.33301 -64.667 -22.6631 -121.331 -51.9961 -169.998c-33.333 -56.667 -78.333 -100.667 -135 -132s-119.334 -47 -188.001 -47c-128.667 0 -230.334 47.667 -305.001 143c-58.667 74.667 -88 169 -88 283c0 124 34.667 225.333 104 304c74 84.667 172 127 294 127
c93.333 0 172.833 -25.667 238.5 -77s104.167 -117.666 115.5 -198.999h-36c-0.666992 3.33301 -2 9.66602 -4 18.999c-13.333 64 -49.833 116.667 -109.5 158s-128.834 62 -207.501 62c-106 0 -191.833 -36.333 -257.5 -109s-98.5 -167.667 -98.5 -285
c0 -104.667 25.667 -190.334 77 -257.001c68 -88 160.333 -132 277 -132c62.667 0 120.167 14.667 172.5 44s93.166 69.666 122.499 120.999c22 38.667 36.667 87.667 44 147h36z" />
    <glyph glyph-name="ordfeminine" unicode="&#xaa;" horiz-adv-x="611" 
d="M602 588l0.000976562 -35c-15.333 -4.66699 -30.333 -7 -45 -7c-35.333 0 -57 12 -65 36c-3.33301 10.667 -5 37.334 -5 80.001c-32 -49.333 -63.333 -82.666 -94 -99.999c-38.667 -21.333 -84.667 -32 -138 -32c-61.333 0 -110 12.667 -146 38
c-42 29.333 -63 72.666 -63 129.999c0 77.333 38.667 130.333 116 159c24.667 8.66699 48.334 14.5 71.001 17.5s84 8.16699 184 15.5c29.333 2 48.166 7.66699 56.499 17s12.5 29.666 12.5 60.999c0 46 -9 79 -27 99c-31.333 34 -81.333 51 -150 51
c-116 0 -179 -57 -189 -171h-37c9.33301 138 85.666 207 228.999 207c82 0 142 -22.333 180 -67c14.667 -17.333 23.667 -35 27 -53s5 -56.667 5 -116l1 -206c0 -65.333 1.5 -103.5 4.5 -114.5s12.833 -16.5 29.5 -16.5c12 0 26.333 2.33301 43 7zM486.001 875
c-14 -10 -28.666 -16.166 -43.999 -18.499s-69 -6.5 -161 -12.5c-67.333 -4.66699 -116.833 -18.834 -148.5 -42.501s-47.5 -58.5 -47.5 -104.5c0 -41.333 14.667 -73.5 44 -96.5s70.666 -34.5 123.999 -34.5c82.667 0 146 30.667 190 92c28.667 40.667 43 82.667 43 126v91
z" />
    <glyph glyph-name="guillemotleft" unicode="&#xab;" horiz-adv-x="532" 
d="M250 229l-186 252v35l186 260v-58l-154 -223l154 -203v-63zM440 226l-190 254v34l190 265v-56l-158 -227l158 -212v-58z" />
    <glyph glyph-name="logicalnot" unicode="&#xac;" 
d="M915 0v509h-847v37h887v-546h-40z" />
    <glyph glyph-name="sfthyphen" unicode="&#xad;" horiz-adv-x="423" 
d="M423 521v-37h-423v37h423z" />
    <glyph glyph-name="registered" unicode="&#xae;" horiz-adv-x="1578" 
d="M800 1397c122 0 237.333 -32 346 -96c110.667 -65.333 197.667 -152.333 261 -261c64 -110 96 -229 96 -357c0 -127.333 -32 -246.333 -96 -357c-63.333 -110.667 -150.333 -197.667 -261 -261c-110.667 -64 -229.667 -96 -357 -96s-246.333 32 -357 96
s-197.667 151 -261 261c-64 111.333 -96 232.333 -96 363c0 205.333 79 380 237 524c134 122.667 296.667 184 488 184zM800 1358c-206.667 0 -377.333 -74.667 -512 -224c-116 -127.333 -174 -276 -174 -446c0 -124 30 -238.333 90 -343
c60.667 -104 143.334 -186.333 248.001 -247c104 -60 216.333 -90 337 -90s233 30 337 90c105.333 60.667 188 143 248 247c60 105.333 90 218 90 338c0 198 -74.667 365 -224 501c-120.667 110 -267.334 168 -440.001 174zM485.001 1092h343
c80.667 0 142.667 -13.333 186 -40c62.667 -39.333 94 -99 94 -179c0 -49.333 -14 -91.666 -42 -126.999s-67 -60 -117 -74c46.667 -9.33301 82.334 -29.666 107.001 -60.999c14.667 -19.333 24.5 -40.5 29.5 -63.5s8.83301 -68.167 11.5 -135.5c2.66699 -68 7 -107 13 -117
l10 -22h-41c-10 14 -16.667 62.333 -20 145c-2.66699 64 -7.33398 108.167 -14.001 132.5s-19.667 44.166 -39 59.499s-44.5 26.166 -75.5 32.499s-74.167 9.5 -129.5 9.5h-277v-379h-39v819zM524.001 1055v-366h272c182.667 0 274 61.667 274 185
c0 120.667 -83.667 181 -251 181h-295z" />
    <glyph glyph-name="overscore" unicode="&#xaf;" 
d="M0 1556h1024v-40h-1024v40z" />
    <glyph glyph-name="degree" unicode="&#xb0;" horiz-adv-x="662" 
d="M334 1344c71.333 0 133.002 -26.333 185.002 -79c50.667 -51.333 76 -113.333 76 -186c0 -72 -25.333 -133.667 -76 -185c-51.333 -52 -113.333 -78 -186 -78c-78.667 0 -144.334 28.667 -197.001 86c-46 50 -69 110.333 -69 181c0 80.667 29.667 145.667 89 195
c51.333 43.333 110.666 65.333 177.999 66zM329.002 1305c-57.333 0 -106.667 -19.334 -148 -58.001c-50 -46 -75 -101.333 -75 -166c0 -56.667 18.667 -106.334 56 -149.001c44 -51.333 100.667 -77 170 -77c60 0 112 21.333 156 64c45.333 44 68 96.333 68 157
c0 64.667 -21.667 118.834 -65 162.501s-97.333 65.834 -162 66.501z" />
    <glyph glyph-name="plusminus" unicode="&#xb1;" horiz-adv-x="1120" 
d="M102 671h435v441h39v-441h442v-39h-442v-440h-39v440h-435v39zM102 107h916v-39h-916v39z" />
    <glyph glyph-name="twosuperior" unicode="&#xb2;" horiz-adv-x="723" 
d="M646 582v-35.9951h-553c7.33301 61.333 26.166 109.166 56.499 143.499s105.166 92.166 224.499 173.499c76.667 52 131 98.5 163 139.5s48 84.5 48 130.5c0 55.333 -18.667 98.666 -56 129.999s-88.666 47 -153.999 47c-76.667 0 -133.5 -20.333 -170.5 -61
s-56.167 -103.334 -57.5 -188.001h-38c1.33301 52.667 6.5 93.667 15.5 123s23.833 56.333 44.5 81c46.667 54 115.334 81 206.001 81c76 0 136.5 -19.333 181.5 -58s67.5 -90.334 67.5 -155.001c0 -67.333 -28.667 -129.333 -86 -186
c-36 -36.667 -107.333 -91.667 -214 -165c-68.667 -46.667 -115.5 -83.5 -140.5 -110.5s-40.167 -56.833 -45.5 -89.5h508z" />
    <glyph glyph-name="threesuperior" unicode="&#xb3;" horiz-adv-x="723" 
d="M97 1075c3.33301 76 20.666 134.335 51.999 175.002c49.333 64 125 96 227 96c80.667 0 143.667 -19.333 189 -58c46 -38.667 69 -87 69 -145c0 -90.667 -48.667 -150 -146 -178c50.667 -12 90 -35.333 118 -70s42 -77 42 -127c0 -70.667 -26.167 -128.167 -78.5 -172.5
s-120.166 -66.5 -203.499 -66.5c-88.667 0 -159.167 23.333 -211.5 70s-78.5 109.667 -78.5 189c0 8.66699 0.333008 20 1 34h37c-0.666992 -14.667 -1 -25.334 -1 -32.001c0 -66.667 20 -119.334 60 -158.001c46 -44.667 110.333 -67 193 -67c72 0 130.5 18.667 175.5 56
s67.5 85.333 67.5 144c0 82 -37.333 136.333 -112 163c-38 14 -95.667 21 -173 21v36c8.66699 0 33.667 0.333008 75 1c59.333 0 106.833 14.5 142.5 43.5s53.5 66.833 53.5 113.5c0 51.333 -19.667 92 -59 122s-93 45 -161 45c-157.333 0 -238 -78.333 -242 -235h-36z" />
    <glyph glyph-name="acute" unicode="&#xb4;" 
d="M747 1394l-263 -268h-44l256 268h51z" />
    <glyph glyph-name="mu" unicode="&#xb5;" 
d="M138 -333v1316h40v-592c0 -83.333 6.33301 -144 19 -182c20 -62.667 56.667 -112.167 110 -148.5s115.666 -54.5 186.999 -54.5c103.333 0 187.833 38.667 253.5 116s98.5 177 98.5 299v562h40v-983h-40v231c-29.333 -72 -63.666 -127 -102.999 -165
c-67.333 -64.667 -151 -97 -251 -97c-70 0 -130 14 -180 42s-94.667 72.333 -134 133v-477h-40z" />
    <glyph glyph-name="paragraph" unicode="&#xb6;" horiz-adv-x="1120" 
d="M524 -232v863.999c-78.667 0 -140.667 8.33301 -186 25c-70.667 26 -126.667 68.333 -168 127c-44 62.667 -66 133.334 -66 212.001c0 66 15.667 127.167 47 183.5s73.666 99.833 126.999 130.5c62.667 36.667 148.334 55 257.001 55h450v-36h-130v-1561h-39v1561h-253
v-1561h-39z" />
    <glyph glyph-name="middot" unicode="&#xb7;" horiz-adv-x="247" 
d="M143 596v-187h-39v187h39z" />
    <glyph glyph-name="cedilla" unicode="&#xb8;" 
d="M548 0l-83.001 -119.999c30.667 6 55.334 9 74.001 9c39.333 0 72 -10.667 98 -32s39 -48.333 39 -81c0 -42.667 -17 -77 -51 -103s-79 -39 -135 -39c-43.333 0 -99 12.667 -167 38l15 36c57.333 -26 108 -39 152 -39c43.333 0 78.166 9 104.499 27s39.5 41.667 39.5 71
c0 25.333 -10.167 46.166 -30.5 62.499s-46.166 24.5 -77.499 24.5c-28 0 -62 -8.33301 -102 -25l-25 22l107 149h42z" />
    <glyph glyph-name="onesuperior" unicode="&#xb9;" horiz-adv-x="723" 
d="M422 1329l0.000976562 -783h-39v730c-58.667 -68.667 -130.667 -112 -216 -130v38c42.667 11.333 77.167 25.833 103.5 43.5s64.166 51.5 113.499 101.5h38z" />
    <glyph glyph-name="ordmasculine" unicode="&#xba;" horiz-adv-x="660" 
d="M338 1154c90 0 159.667 -34.667 209 -104c40.667 -56 61 -126.667 61 -212c0 -88 -22 -159 -66 -213c-51.333 -63.333 -122 -95 -212 -95c-89.333 0 -159.333 31.667 -210 95c-44.667 56 -67 128 -67 216s23.333 160.333 70 217c52 64 123.667 96 215 96zM335 1118
c-76.667 0 -137.333 -27.332 -182 -81.999c-40.667 -49.333 -61 -114 -61 -194c0 -80.667 19.667 -145.334 59 -194.001c44 -54.667 104.333 -82 181 -82s137 28 181 84c37.333 48 56 110.333 56 187c0 84.667 -21 152.167 -63 202.5s-99 76.5 -171 78.5z" />
    <glyph glyph-name="guillemotright" unicode="&#xbb;" horiz-adv-x="532" 
d="M281 776l186 -252v-35l-186 -260v58l154 222l-154 204v63zM91 779l190 -254v-34l-190 -265v56l158 226l-158 213v58z" />
    <glyph glyph-name="onequarter" unicode="&#xbc;" horiz-adv-x="1729" 
d="M409 1329l0.000976562 -783h-39v730c-58.667 -68.667 -130.667 -112 -216 -130v38c42.667 11.333 77.167 25.833 103.5 43.5s64.166 51.5 113.499 101.5h38zM1314 1329l-856 -1329h-42l854 1329h44zM1669 236v-36h-142v-200h-39v200h-402v36l398 547h43v-547h142z
M1488 236v493l-358 -493h358z" />
    <glyph glyph-name="onehalf" unicode="&#xbd;" horiz-adv-x="1729" 
d="M409 1329l0.000976562 -783h-39v730c-58.667 -68.667 -130.667 -112 -216 -130v38c42.667 11.333 77.167 25.833 103.5 43.5s64.166 51.5 113.499 101.5h38zM1314 1329l-856 -1329h-42l854 1329h44zM1666 36l-0.00390625 -35.9961h-553c8 62 27 110 57 144
s104.667 91.667 224 173c76.667 52 131 98.5 163 139.5s48 84.5 48 130.5c0 55.333 -18.667 98.666 -56 129.999s-88.666 47 -153.999 47c-76.667 0 -133.5 -20.333 -170.5 -61s-56.167 -103.334 -57.5 -188.001h-38c1.33301 52.667 6.5 93.667 15.5 123
s23.833 56.333 44.5 81c46.667 54 115.334 81 206.001 81c76 0 136.5 -19.333 181.5 -58s67.5 -90.334 67.5 -155.001c0 -60 -19.167 -112.333 -57.5 -157s-119.166 -109.334 -242.499 -194.001c-68 -46 -114.667 -82.667 -140 -110s-40.666 -57.333 -45.999 -90h508z" />
    <glyph glyph-name="threequarters" unicode="&#xbe;" horiz-adv-x="1730" 
d="M83 1075c3.33301 76 20.666 134.335 51.999 175.002c49.333 64 125 96 227 96c80.667 0 143.667 -19.333 189 -58c46 -38.667 69 -87 69 -145c0 -90.667 -48.667 -150 -146 -178c50.667 -12 90 -35.333 118 -70s42 -77 42 -127c0 -70.667 -26.167 -128.167 -78.5 -172.5
s-120.166 -66.5 -203.499 -66.5c-88.667 0 -159.167 23.333 -211.5 70s-78.5 109.667 -78.5 189c0 8.66699 0.333008 20 1 34h37c-0.666992 -14.667 -1 -25.334 -1 -32.001c0 -66.667 20 -119.334 60 -158.001c46 -44.667 110.333 -67 193 -67c72 0 130.5 18.667 175.5 56
s67.5 85.333 67.5 144c0 62.667 -21.833 109 -65.5 139s-111.167 45 -202.5 45h-17v36h18c77.333 0 132 7.66699 164 23c59.333 28 89 73 89 135c0 51.333 -19.667 92 -59 122s-93 45 -161 45c-157.333 0 -238 -78.333 -242 -235h-36zM1314 1329l-856 -1329h-42l854 1329h44
zM1669 236.002v-36h-143v-200h-39v200h-401v36l397 547h43v-547h143zM1487 236.002v493l-357 -493h357z" />
    <glyph glyph-name="questiondown" unicode="&#xbf;" horiz-adv-x="924" 
d="M869 422c0 -108 -19.334 -196.334 -58.001 -265.001c-33.333 -58.667 -80.833 -104.5 -142.5 -137.5s-131.5 -49.5 -209.5 -49.5c-124 0 -221 36 -291 108c-62.667 64.667 -94 139.334 -94 224.001c0 80 29 156 87 228c15.333 20 66 70.333 152 151
c63.333 59.333 101.666 105.5 114.999 138.5s20.666 98.5 21.999 196.5h40c0 -102.667 -9 -174.167 -27 -214.5s-64.667 -94.166 -140 -161.499c-77.333 -68.667 -131.666 -128.334 -162.999 -179.001s-47 -103.667 -47 -159c0 -80.667 32 -151 96 -211
c60.667 -56.667 144.334 -85 251.001 -85c102 0 185.667 29.333 251 88c42.667 39.333 72.834 82.833 90.501 130.5s27.5 113.5 29.5 197.5h38zM449.999 1178v187h39v-187h-39z" />
    <glyph glyph-name="Agrave" unicode="&#xc0;" horiz-adv-x="1175" 
d="M613 1365l547 -1365h-43l-180 451h-695l-183 -451h-44l560 1365h38zM923 487l-331 829l-336 -829h667zM325 1722h57l278 -241h-51z" />
    <glyph glyph-name="Aacute" unicode="&#xc1;" horiz-adv-x="1175" 
d="M613 1365l547 -1365h-43l-180 451h-695l-183 -451h-44l560 1365h38zM923 487l-331 829l-336 -829h667zM851 1722l-284 -241h-51l278 241h57z" />
    <glyph glyph-name="Acircumflex" unicode="&#xc2;" horiz-adv-x="1175" 
d="M613 1365l547 -1365h-43l-180 451h-695l-183 -451h-44l560 1365h38zM923 487l-331 829l-336 -829h667zM871 1481h-53l-223 212l-223 -212h-53l251 247h50z" />
    <glyph glyph-name="Atilde" unicode="&#xc3;" horiz-adv-x="1175" 
d="M613 1365l547 -1365h-43l-180 451h-695l-183 -451h-44l560 1365h38zM923 487l-331 829l-336 -829h667zM866 1668c-22.667 -96.667 -66.6689 -145 -132.002 -145c-35.333 0 -76.666 18.333 -123.999 55c-33.333 25.333 -58 42.166 -74 50.499s-32.333 12.5 -49 12.5
c-52.667 0 -85.667 -39 -99 -117h-38c8.66699 46.667 25.334 83.834 50.001 111.501s54 41.5 88 41.5s77 -20 129 -60c49.333 -38.667 89.333 -58 120 -58c41.333 0 71.333 36.333 90 109h39z" />
    <glyph glyph-name="Adieresis" unicode="&#xc4;" horiz-adv-x="1175" 
d="M613 1365l547 -1365h-43l-180 451h-695l-183 -451h-44l560 1365h38zM923 487l-331 829l-336 -829h667zM806 1690v-178h-39v178h39zM422 1690v-178h-39v178h39z" />
    <glyph glyph-name="Aring" unicode="&#xc5;" horiz-adv-x="1175" 
d="M613 1365l547 -1365h-43l-180 451h-695l-183 -451h-44l560 1365h38zM923 487l-331 829l-336 -829h667zM597 1800c48 0 89 -18.668 123 -56.001c29.333 -32 44 -69.667 44 -113c0 -50.667 -18.667 -92.667 -56 -126c-32.667 -29.333 -70.667 -44 -114 -44
c-50 0 -91.667 18.667 -125 56c-29.333 32.667 -44 71 -44 115c0 46.667 16.667 86.334 50 119.001s74 49 122 49zM596 1762c-36.667 0 -68.001 -12.666 -94.001 -37.999s-39 -56 -39 -92c0 -37.333 12.833 -68.833 38.5 -94.5s56.5 -38.5 92.5 -38.5
c36.667 0 67.834 12.833 93.501 38.5s38.5 56.834 38.5 93.501c0 35.333 -12.5 65.666 -37.5 90.999s-55.833 38.666 -92.5 39.999z" />
    <glyph glyph-name="AE" unicode="&#xc6;" horiz-adv-x="1632" 
d="M1590 1365v-36h-754v-606h691v-36h-691v-651h754v-36h-793v527h-516l-278 -527h-44l725 1365h906zM797 563v769h-91l-407 -769h498z" />
    <glyph glyph-name="Ccedilla" unicode="&#xc7;" horiz-adv-x="1347" 
d="M1290 536c-11.333 -163.333 -71.834 -297.17 -181.501 -401.503s-247.5 -159.166 -413.5 -164.499l-63 -94c31.333 4.66699 55.666 7 72.999 7c39.333 0 71.833 -10.5 97.5 -31.5s38.5 -47.833 38.5 -80.5c0 -40.667 -17.333 -74.334 -52 -101.001s-78.667 -40 -132 -40
c-48 0 -104.333 13 -169 39l14 35c61.333 -24.667 113.333 -37 156 -37c30.667 0 58 5.66699 82 17c41.333 20 62 47.333 62 82c0 24 -10.5 43.833 -31.5 59.5s-47.167 23.5 -78.5 23.5c-27.333 0 -60.333 -7.33301 -99 -22l-30 20l86 123c-182 18 -326 96.667 -432 236
c-94 124 -141 281 -141 471c0 188.667 46.333 346.334 139 473.001c120.667 164 284 246 490 246c176.667 0 319 -58.667 427 -176c36 -39.333 64 -78.5 84 -117.5s37 -88.167 51 -147.5h-39c-16.667 72 -43.667 134.333 -81 187c-53.333 76 -122 132.667 -206 170
c-73.333 32 -151.666 48 -234.999 48c-124 0 -234.667 -34.333 -332 -103c-84.667 -60 -149 -138.833 -193 -236.5s-66 -210.5 -66 -338.5c0 -183.333 43.333 -332.666 130 -447.999c113.333 -150.667 262 -226 446 -226c180.667 0 325.334 67.333 434.001 202
c78 96.667 120 205.334 126 326.001h39z" />
    <glyph glyph-name="Egrave" unicode="&#xc8;" horiz-adv-x="1091" 
d="M1040 1365v-36h-870v-599h819v-36h-819v-658h879v-36h-918v1365h909zM392 1722h57l278 -241h-51z" />
    <glyph glyph-name="Eacute" unicode="&#xc9;" horiz-adv-x="1091" 
d="M1040 1365v-36h-870v-599h819v-36h-819v-658h879v-36h-918v1365h909zM843 1722l-284 -241h-51l278 241h57z" />
    <glyph glyph-name="Ecircumflex" unicode="&#xca;" horiz-adv-x="1091" 
d="M1040 1365v-36h-870v-599h819v-36h-819v-658h879v-36h-918v1365h909zM866 1481h-53l-223 212l-223 -212h-53l251 247h50z" />
    <glyph glyph-name="Edieresis" unicode="&#xcb;" horiz-adv-x="1091" 
d="M1040 1365v-36h-870v-599h819v-36h-819v-658h879v-36h-918v1365h909zM797 1690v-178h-39v178h39zM414 1690v-178h-39v178h39z" />
    <glyph glyph-name="Igrave" unicode="&#xcc;" horiz-adv-x="301" 
d="M170 1365v-1365h-39v1365h39zM-62 1722h53l219 -241h-43z" />
    <glyph glyph-name="Iacute" unicode="&#xcd;" horiz-adv-x="301" 
d="M170 1365v-1365h-39v1365h39zM366 1722l-229 -241h-43l219 241h53z" />
    <glyph glyph-name="Icircumflex" unicode="&#xce;" horiz-adv-x="301" 
d="M170 1365v-1365h-39v1365h39zM378 1481h-47l-181 217l-180 -217h-48l203 247h50z" />
    <glyph glyph-name="Idieresis" unicode="&#xcf;" horiz-adv-x="301" 
d="M170 1365v-1365h-39v1365h39zM290 1690v-178h-39v178h39zM50 1690v-178h-39v178h39z" />
    <glyph glyph-name="Eth" unicode="&#xd0;" horiz-adv-x="1289" 
d="M153 730v634.999h446c180 0 321 -48.333 423 -145c127.333 -121.333 191 -295.666 191 -522.999c0 -234 -63.667 -414.333 -191 -541c-54 -54 -115.333 -93.5 -184 -118.5s-151 -37.5 -247 -37.5h-438v694h-164v36h164zM192 729.999h439.002v-36h-439v-658h376
c97.333 0 178.166 10.333 242.499 31s122.166 54.667 173.499 102c126.667 118 190 293.333 190 526c0 208 -54.333 369 -163 483c-50.667 53.333 -109 91.833 -175 115.5s-147.667 35.5 -245 35.5h-399v-599z" />
    <glyph glyph-name="Ntilde" unicode="&#xd1;" horiz-adv-x="1296" 
d="M1165 1365v-1365h-46l-949 1316v-1316h-39v1365h51l944 -1311v1311h39zM927 1668c-22.667 -96.667 -66.6689 -145 -132.002 -145c-35.333 0 -76.666 18.333 -123.999 55c-33.333 25.333 -58 42.166 -74 50.499s-32.333 12.5 -49 12.5c-52.667 0 -85.667 -39 -99 -117h-38
c8.66699 46.667 25.334 83.834 50.001 111.501s54 41.5 88 41.5s77 -20 129 -60c49.333 -38.667 89.333 -58 120 -58c41.333 0 71.333 36.333 90 109h39z" />
    <glyph glyph-name="Ograve" unicode="&#xd2;" horiz-adv-x="1427" 
d="M718 1396c121.333 0 233.333 -34 336 -102c104 -69.333 181 -163 231 -281c44 -103.333 66 -218.333 66 -345c0 -188 -50 -344.667 -150 -470c-121.333 -152.667 -285.333 -229 -492 -229c-204 0 -364 75.333 -480 226c-102 132.667 -153 294 -153 484
c0 212 57 382 171 510c122.667 138 279.667 207 471 207zM721 1360c-180 0 -327.666 -65.667 -442.999 -197c-108 -123.333 -162 -283 -162 -479c0 -182 47.667 -335.667 143 -461c110 -145.333 260 -218 450 -218c194 0 348.333 72.667 463 218
c93.333 118 140 267.333 140 448c0 202 -54.333 365.333 -163 490c-110.667 128 -253.334 194.333 -428.001 199zM505.001 1722h57l278 -241h-51z" />
    <glyph glyph-name="Oacute" unicode="&#xd3;" horiz-adv-x="1427" 
d="M718 1396c121.333 0 233.333 -34 336 -102c104 -69.333 181 -163 231 -281c44 -103.333 66 -218.333 66 -345c0 -188 -50 -344.667 -150 -470c-121.333 -152.667 -285.333 -229 -492 -229c-204 0 -364 75.333 -480 226c-102 132.667 -153 294 -153 484
c0 212 57 382 171 510c122.667 138 279.667 207 471 207zM721 1360c-180 0 -327.666 -65.667 -442.999 -197c-108 -123.333 -162 -283 -162 -479c0 -182 47.667 -335.667 143 -461c110 -145.333 260 -218 450 -218c194 0 348.333 72.667 463 218
c93.333 118 140 267.333 140 448c0 202 -54.333 365.333 -163 490c-110.667 128 -253.334 194.333 -428.001 199zM956.001 1722l-284 -241h-51l278 241h57z" />
    <glyph glyph-name="Ocircumflex" unicode="&#xd4;" horiz-adv-x="1427" 
d="M718 1396c121.333 0 233.333 -34 336 -102c104 -69.333 181 -163 231 -281c44 -103.333 66 -218.333 66 -345c0 -188 -50 -344.667 -150 -470c-121.333 -152.667 -285.333 -229 -492 -229c-204 0 -364 75.333 -480 226c-102 132.667 -153 294 -153 484
c0 212 57 382 171 510c122.667 138 279.667 207 471 207zM721 1360c-180 0 -327.666 -65.667 -442.999 -197c-108 -123.333 -162 -283 -162 -479c0 -182 47.667 -335.667 143 -461c110 -145.333 260 -218 450 -218c194 0 348.333 72.667 463 218
c93.333 118 140 267.333 140 448c0 202 -54.333 365.333 -163 490c-110.667 128 -253.334 194.333 -428.001 199zM989.001 1481h-53l-223 212l-223 -212h-53l251 247h50z" />
    <glyph glyph-name="Otilde" unicode="&#xd5;" horiz-adv-x="1427" 
d="M718 1396c121.333 0 233.333 -34 336 -102c104 -69.333 181 -163 231 -281c44 -103.333 66 -218.333 66 -345c0 -188 -50 -344.667 -150 -470c-121.333 -152.667 -285.333 -229 -492 -229c-204 0 -364 75.333 -480 226c-102 132.667 -153 294 -153 484
c0 212 57 382 171 510c122.667 138 279.667 207 471 207zM721 1360c-180 0 -327.666 -65.667 -442.999 -197c-108 -123.333 -162 -283 -162 -479c0 -182 47.667 -335.667 143 -461c110 -145.333 260 -218 450 -218c194 0 348.333 72.667 463 218
c93.333 118 140 267.333 140 448c0 202 -54.333 365.333 -163 490c-110.667 128 -253.334 194.333 -428.001 199zM985.001 1668c-22.667 -96.667 -66.6689 -145 -132.002 -145c-35.333 0 -76.666 18.333 -123.999 55c-33.333 25.333 -58 42.166 -74 50.499
s-32.333 12.5 -49 12.5c-52.667 0 -85.667 -39 -99 -117h-38c8.66699 46.667 25.334 83.834 50.001 111.501s54 41.5 88 41.5s77 -20 129 -60c49.333 -38.667 89.333 -58 120 -58c41.333 0 71.333 36.333 90 109h39z" />
    <glyph glyph-name="Odieresis" unicode="&#xd6;" horiz-adv-x="1427" 
d="M718 1396c121.333 0 233.333 -34 336 -102c104 -69.333 181 -163 231 -281c44 -103.333 66 -218.333 66 -345c0 -188 -50 -344.667 -150 -470c-121.333 -152.667 -285.333 -229 -492 -229c-204 0 -364 75.333 -480 226c-102 132.667 -153 294 -153 484
c0 212 57 382 171 510c122.667 138 279.667 207 471 207zM721 1360c-180 0 -327.666 -65.667 -442.999 -197c-108 -123.333 -162 -283 -162 -479c0 -182 47.667 -335.667 143 -461c110 -145.333 260 -218 450 -218c194 0 348.333 72.667 463 218
c93.333 118 140 267.333 140 448c0 202 -54.333 365.333 -163 490c-110.667 128 -253.334 194.333 -428.001 199zM924.001 1690v-178h-39v178h39zM541.001 1690v-178h-39v178h39z" />
    <glyph glyph-name="multiply" unicode="&#xd7;" horiz-adv-x="1120" 
d="M216 1023l344 -343l347 347l28 -29l-347 -346l344 -344l-28 -29l-344 345l-347 -347l-28 28l347 347l-344 344z" />
    <glyph glyph-name="Oslash" unicode="&#xd8;" horiz-adv-x="1427" 
d="M1315 1328l-134 -146c60 -74 103.167 -151.5 129.5 -232.5s39.5 -176.167 39.5 -285.5c0 -188 -49.667 -343.333 -149 -466c-124 -153.333 -287.667 -230 -491 -230c-96 0 -179.333 15.167 -250 45.5s-139.667 80.833 -207 151.5l-137 -158l-26 26l140 159
c-102.667 134.667 -154 296.334 -154 485.001c0 211.333 56 381.666 168 510.999c120.667 138.667 274.667 208 462 208c182 0 332.333 -62.667 451 -188l131 144zM1133 1180c-46.667 45.333 -87.665 79.001 -122.998 101.001c-86.667 52.667 -188.334 79 -305.001 79
c-184.667 0 -334.334 -72.333 -449.001 -217c-94 -118.667 -141 -275.334 -141 -470.001c0 -176.667 48 -327 144 -451zM1156 1152l-875 -957c113.333 -127.333 256.333 -191 429 -191c184 0 334.333 68.667 451 206c100 118 150 270 150 456
c0 102.667 -12.167 192 -36.5 268s-63.833 148.667 -118.5 218z" />
    <glyph glyph-name="Ugrave" unicode="&#xd9;" horiz-adv-x="1237" 
d="M1127 1365l-0.000976562 -854c0 -138 -25.333 -247.667 -76 -329c-86 -140.667 -226.667 -211 -422 -211c-218 0 -369.333 78 -454 234c-42.667 77.333 -64 181.333 -64 312v848h39v-852c0 -80 7 -146 21 -198s37.667 -100 71 -144
c82.667 -109.333 211.667 -164 387 -164c150.667 0 264.834 43 342.501 129s116.5 212.333 116.5 379v850h39zM382.999 1722h57l278 -241h-51z" />
    <glyph glyph-name="Uacute" unicode="&#xda;" horiz-adv-x="1237" 
d="M1127 1365l-0.000976562 -854c0 -138 -25.333 -247.667 -76 -329c-86 -140.667 -226.667 -211 -422 -211c-218 0 -369.333 78 -454 234c-42.667 77.333 -64 181.333 -64 312v848h39v-852c0 -80 7 -146 21 -198s37.667 -100 71 -144
c82.667 -109.333 211.667 -164 387 -164c150.667 0 264.834 43 342.501 129s116.5 212.333 116.5 379v850h39zM860.999 1722l-284 -241h-51l278 241h57z" />
    <glyph glyph-name="Ucircumflex" unicode="&#xdb;" horiz-adv-x="1237" 
d="M1127 1365l-0.000976562 -854c0 -138 -25.333 -247.667 -76 -329c-86 -140.667 -226.667 -211 -422 -211c-218 0 -369.333 78 -454 234c-42.667 77.333 -64 181.333 -64 312v848h39v-852c0 -80 7 -146 21 -198s37.667 -100 71 -144
c82.667 -109.333 211.667 -164 387 -164c150.667 0 264.834 43 342.501 129s116.5 212.333 116.5 379v850h39zM894.999 1481h-53l-223 212l-223 -212h-53l251 247h50z" />
    <glyph glyph-name="Udieresis" unicode="&#xdc;" horiz-adv-x="1237" 
d="M1127 1365l-0.000976562 -854c0 -138 -25.333 -247.667 -76 -329c-86 -140.667 -226.667 -211 -422 -211c-218 0 -369.333 78 -454 234c-42.667 77.333 -64 181.333 -64 312v848h39v-852c0 -80 7 -146 21 -198s37.667 -100 71 -144
c82.667 -109.333 211.667 -164 387 -164c150.667 0 264.834 43 342.501 129s116.5 212.333 116.5 379v850h39zM829.999 1690v-178h-39v178h39zM446.999 1690v-178h-39v178h39z" />
    <glyph glyph-name="Yacute" unicode="&#xdd;" horiz-adv-x="1112" 
d="M1133 1365l-560 -791v-574h-39v575l-554 790h44l530 -752l536 752h43zM806 1722l-284 -241h-51l278 241h57z" />
    <glyph glyph-name="Thorn" unicode="&#xde;" horiz-adv-x="1149" 
d="M170 405l0.00195312 -404.999h-39v1365h39v-218h493c69.333 0 125.666 -4.5 168.999 -13.5s81.666 -24.5 114.999 -46.5c48.667 -31.333 86.5 -74.333 113.5 -129s40.5 -115.334 40.5 -182.001c0 -112.667 -37 -202.667 -111 -270s-173 -101 -297 -101h-523z
M170.002 1111l0.00195312 -670h463c71.333 0 124.166 2.83301 158.499 8.5s68.166 17.5 101.499 35.5c112.667 60 169 156.667 169 290c0 124.667 -43.667 217 -131 277c-32.667 22.667 -68 38.167 -106 46.5s-92.667 12.5 -164 12.5h-491z" />
    <glyph glyph-name="germandbls" unicode="&#xdf;" horiz-adv-x="961" 
d="M405 36c26.667 -0.666992 43.668 -1 51.001 -1c78.667 0 139.5 6.33301 182.5 19s80.5 35.334 112.5 68.001c65.333 68 98 160.333 98 277c0 181.333 -79 291 -237 329c-49.333 11.333 -118.333 17.333 -207 18v38c15.333 -0.666992 25.666 -1 30.999 -1
c108 0 191.333 25.333 250 76c60.667 52 91 123 91 213c0 77.333 -24.667 142.666 -74 195.999c-61.333 66 -142 99 -242 99c-94.667 0 -168.334 -25.833 -221.001 -77.5s-79 -124.167 -79 -217.5v-1072h-39v1014c0 110 12.333 187.667 37 233c26 48 66 85.833 120 113.5
s115 41.5 183 41.5c100 0 182.667 -29.333 248 -88c70.667 -64 106 -146.667 106 -248c0 -110.667 -41.333 -193.667 -124 -249c-28 -19.333 -68.667 -35.666 -122 -48.999c53.333 -4.66699 100.333 -17.334 141 -38.001c118 -60.667 177 -171.667 177 -333
c0 -136 -42.333 -241.333 -127 -316c-34 -30 -72.833 -51.167 -116.5 -63.5s-101.167 -18.5 -172.5 -18.5c-13.333 0 -35.666 0.333008 -66.999 1v36z" />
    <glyph glyph-name="agrave" unicode="&#xe0;" horiz-adv-x="928" 
d="M934 42l0.00195312 -34.001c-18.667 -5.33301 -39 -8 -61 -8c-42.667 0 -71.667 11.667 -87 35c-10.667 16.667 -16 58 -16 124c0 21.333 0.333008 49.666 1 84.999c-29.333 -69.333 -63 -122.666 -101 -159.999c-74.667 -74 -172.334 -111 -293.001 -111
c-97.333 0 -174.333 20.667 -231 62c-65.333 47.333 -98 117.333 -98 210c0 126.667 60.667 212.667 182 258c54.667 20.667 149 35 283 43c118.667 7.33301 191 18.5 217 33.5s39 53.167 39 114.5c0 87.333 -16 149 -48 185c-52.667 60.667 -137.334 91 -254.001 91
c-196.667 0 -304 -96.333 -322 -289h-36c8 106 43 186.667 105 242s148 83 258 83c130.667 0 225.667 -36.333 285 -109c22 -27.333 35.833 -56.666 41.5 -87.999s8.5 -94.666 8.5 -189.999v-351c0 -108.667 1.66699 -171.334 5 -188.001c6.66699 -31.333 29 -47 67 -47
c16.667 0 35 3 55 9zM769.002 576.999c-22 -26 -46.333 -41.6689 -73 -47.002s-118.667 -13.333 -276 -24c-114.667 -8 -198.667 -33 -252 -75c-54 -43.333 -81 -105.666 -81 -186.999c0 -80 29.333 -141.333 88 -184c48 -34 114.667 -51 200 -51
c72.667 0 134.667 13 186 39s96.333 67 135 123c48.667 70.667 73 144.334 73 221.001v185zM309.002 1394l261 -268h-48l-264 268h51z" />
    <glyph glyph-name="aacute" unicode="&#xe1;" horiz-adv-x="928" 
d="M934 42l0.00195312 -34.001c-18.667 -5.33301 -39 -8 -61 -8c-42.667 0 -71.667 11.667 -87 35c-10.667 16.667 -16 58 -16 124c0 21.333 0.333008 49.666 1 84.999c-29.333 -69.333 -63 -122.666 -101 -159.999c-74.667 -74 -172.334 -111 -293.001 -111
c-97.333 0 -174.333 20.667 -231 62c-65.333 47.333 -98 117.333 -98 210c0 126.667 60.667 212.667 182 258c54.667 20.667 149 35 283 43c118.667 7.33301 191 18.5 217 33.5s39 53.167 39 114.5c0 87.333 -16 149 -48 185c-52.667 60.667 -137.334 91 -254.001 91
c-196.667 0 -304 -96.333 -322 -289h-36c8 106 43 186.667 105 242s148 83 258 83c130.667 0 225.667 -36.333 285 -109c22 -27.333 35.833 -56.666 41.5 -87.999s8.5 -94.666 8.5 -189.999v-351c0 -108.667 1.66699 -171.334 5 -188.001c6.66699 -31.333 29 -47 67 -47
c16.667 0 35 3 55 9zM769.002 576.999c-22 -26 -46.333 -41.6689 -73 -47.002s-118.667 -13.333 -276 -24c-114.667 -8 -198.667 -33 -252 -75c-54 -43.333 -81 -105.666 -81 -186.999c0 -80 29.333 -141.333 88 -184c48 -34 114.667 -51 200 -51
c72.667 0 134.667 13 186 39s96.333 67 135 123c48.667 70.667 73 144.334 73 221.001v185zM690.002 1394l-263 -268h-44l256 268h51z" />
    <glyph glyph-name="acircumflex" unicode="&#xe2;" horiz-adv-x="928" 
d="M934 42l0.00195312 -34.001c-18.667 -5.33301 -39 -8 -61 -8c-42.667 0 -71.667 11.667 -87 35c-10.667 16.667 -16 58 -16 124c0 21.333 0.333008 49.666 1 84.999c-29.333 -69.333 -63 -122.666 -101 -159.999c-74.667 -74 -172.334 -111 -293.001 -111
c-97.333 0 -174.333 20.667 -231 62c-65.333 47.333 -98 117.333 -98 210c0 126.667 60.667 212.667 182 258c54.667 20.667 149 35 283 43c118.667 7.33301 191 18.5 217 33.5s39 53.167 39 114.5c0 87.333 -16 149 -48 185c-52.667 60.667 -137.334 91 -254.001 91
c-196.667 0 -304 -96.333 -322 -289h-36c8 106 43 186.667 105 242s148 83 258 83c130.667 0 225.667 -36.333 285 -109c22 -27.333 35.833 -56.666 41.5 -87.999s8.5 -94.666 8.5 -189.999v-351c0 -108.667 1.66699 -171.334 5 -188.001c6.66699 -31.333 29 -47 67 -47
c16.667 0 35 3 55 9zM769.002 576.999c-22 -26 -46.333 -41.6689 -73 -47.002s-118.667 -13.333 -276 -24c-114.667 -8 -198.667 -33 -252 -75c-54 -43.333 -81 -105.666 -81 -186.999c0 -80 29.333 -141.333 88 -184c48 -34 114.667 -51 200 -51
c72.667 0 134.667 13 186 39s96.333 67 135 123c48.667 70.667 73 144.334 73 221.001v185zM717.002 1126h-53l-191 237l-189 -237h-50l217 268h49z" />
    <glyph glyph-name="atilde" unicode="&#xe3;" horiz-adv-x="928" 
d="M934 42l0.00195312 -34.001c-18.667 -5.33301 -39 -8 -61 -8c-42.667 0 -71.667 11.667 -87 35c-10.667 16.667 -16 58 -16 124c0 21.333 0.333008 49.666 1 84.999c-29.333 -69.333 -63 -122.666 -101 -159.999c-74.667 -74 -172.334 -111 -293.001 -111
c-97.333 0 -174.333 20.667 -231 62c-65.333 47.333 -98 117.333 -98 210c0 126.667 60.667 212.667 182 258c54.667 20.667 149 35 283 43c118.667 7.33301 191 18.5 217 33.5s39 53.167 39 114.5c0 87.333 -16 149 -48 185c-52.667 60.667 -137.334 91 -254.001 91
c-196.667 0 -304 -96.333 -322 -289h-36c8 106 43 186.667 105 242s148 83 258 83c130.667 0 225.667 -36.333 285 -109c22 -27.333 35.833 -56.666 41.5 -87.999s8.5 -94.666 8.5 -189.999v-351c0 -108.667 1.66699 -171.334 5 -188.001c6.66699 -31.333 29 -47 67 -47
c16.667 0 35 3 55 9zM769.002 576.999c-22 -26 -46.333 -41.6689 -73 -47.002s-118.667 -13.333 -276 -24c-114.667 -8 -198.667 -33 -252 -75c-54 -43.333 -81 -105.666 -81 -186.999c0 -80 29.333 -141.333 88 -184c48 -34 114.667 -51 200 -51
c72.667 0 134.667 13 186 39s96.333 67 135 123c48.667 70.667 73 144.334 73 221.001v185zM714.002 1334c-20 -96.667 -60.665 -145 -121.998 -145c-32.667 0 -71 18 -115 54c-30.667 24.667 -53.5 41.167 -68.5 49.5s-29.833 12.5 -44.5 12.5
c-46.667 0 -76.334 -38.333 -89.001 -115h-39c8 46.667 23.5 83.667 46.5 111s50.167 41 81.5 41s71 -20 119 -60c46 -38 83 -57 111 -57c37.333 0 64.666 36.333 81.999 109h38z" />
    <glyph glyph-name="adieresis" unicode="&#xe4;" horiz-adv-x="928" 
d="M934 42l0.00195312 -34.001c-18.667 -5.33301 -39 -8 -61 -8c-42.667 0 -71.667 11.667 -87 35c-10.667 16.667 -16 58 -16 124c0 21.333 0.333008 49.666 1 84.999c-29.333 -69.333 -63 -122.666 -101 -159.999c-74.667 -74 -172.334 -111 -293.001 -111
c-97.333 0 -174.333 20.667 -231 62c-65.333 47.333 -98 117.333 -98 210c0 126.667 60.667 212.667 182 258c54.667 20.667 149 35 283 43c118.667 7.33301 191 18.5 217 33.5s39 53.167 39 114.5c0 87.333 -16 149 -48 185c-52.667 60.667 -137.334 91 -254.001 91
c-196.667 0 -304 -96.333 -322 -289h-36c8 106 43 186.667 105 242s148 83 258 83c130.667 0 225.667 -36.333 285 -109c22 -27.333 35.833 -56.666 41.5 -87.999s8.5 -94.666 8.5 -189.999v-351c0 -108.667 1.66699 -171.334 5 -188.001c6.66699 -31.333 29 -47 67 -47
c16.667 0 35 3 55 9zM769.002 576.999c-22 -26 -46.333 -41.6689 -73 -47.002s-118.667 -13.333 -276 -24c-114.667 -8 -198.667 -33 -252 -75c-54 -43.333 -81 -105.666 -81 -186.999c0 -80 29.333 -141.333 88 -184c48 -34 114.667 -51 200 -51
c72.667 0 134.667 13 186 39s96.333 67 135 123c48.667 70.667 73 144.334 73 221.001v185zM651.002 1368v-198h-39v198h39zM329.002 1368v-198h-39v198h39z" />
    <glyph glyph-name="aring" unicode="&#xe5;" horiz-adv-x="928" 
d="M934 42l0.00195312 -34.001c-18.667 -5.33301 -39 -8 -61 -8c-42.667 0 -71.667 11.667 -87 35c-10.667 16.667 -16 58 -16 124c0 21.333 0.333008 49.666 1 84.999c-29.333 -69.333 -63 -122.666 -101 -159.999c-74.667 -74 -172.334 -111 -293.001 -111
c-97.333 0 -174.333 20.667 -231 62c-65.333 47.333 -98 117.333 -98 210c0 126.667 60.667 212.667 182 258c54.667 20.667 149 35 283 43c118.667 7.33301 191 18.5 217 33.5s39 53.167 39 114.5c0 87.333 -16 149 -48 185c-52.667 60.667 -137.334 91 -254.001 91
c-196.667 0 -304 -96.333 -322 -289h-36c8 106 43 186.667 105 242s148 83 258 83c130.667 0 225.667 -36.333 285 -109c22 -27.333 35.833 -56.666 41.5 -87.999s8.5 -94.666 8.5 -189.999v-351c0 -108.667 1.66699 -171.334 5 -188.001c6.66699 -31.333 29 -47 67 -47
c16.667 0 35 3 55 9zM769.002 576.999c-22 -26 -46.333 -41.6689 -73 -47.002s-118.667 -13.333 -276 -24c-114.667 -8 -198.667 -33 -252 -75c-54 -43.333 -81 -105.666 -81 -186.999c0 -80 29.333 -141.333 88 -184c48 -34 114.667 -51 200 -51
c72.667 0 134.667 13 186 39s96.333 67 135 123c48.667 70.667 73 144.334 73 221.001v185zM473.002 1451c48 0 89 -18.668 123 -56.001c29.333 -32 44 -69.667 44 -113c0 -50 -18.667 -92 -56 -126c-32.667 -28.667 -70.667 -43 -114 -43c-50 0 -91.667 18.667 -125 56
c-29.333 32 -44 70 -44 114c0 46.667 16.667 86.334 50 119.001s74 49 122 49zM472.002 1413c-36.667 0 -68.001 -12.666 -94.001 -37.999s-39 -56 -39 -92c0 -36.667 12.833 -67.834 38.5 -93.501s56.5 -38.5 92.5 -38.5c36.667 0 67.834 12.833 93.501 38.5
s38.5 56.5 38.5 92.5s-12.5 66.5 -37.5 91.5s-55.833 38.167 -92.5 39.5z" />
    <glyph glyph-name="ae" unicode="&#xe6;" horiz-adv-x="1695" 
d="M1617 334c-14 -91.333 -44.998 -165.333 -92.998 -222c-78.667 -93.333 -185.334 -140 -320.001 -140c-103.333 0 -190.333 28.833 -261 86.5s-118.667 139.167 -144 244.5c-14.667 -56 -35.667 -103.667 -63 -143c-88 -124.667 -208.333 -187 -361 -187
c-103.333 0 -185 27.333 -245 82c-54.667 50 -82 114.333 -82 193c0 62.667 16.667 116.667 50 162s80 78.333 140 99c46 15.333 150.333 28 313 38c100.667 6 164 16.333 190 31s39 47.667 39 99c0 96 -21.333 166.667 -64 212c-51.333 54 -134 81 -248 81
c-105.333 0 -184.833 -24 -238.5 -72s-85.167 -122.333 -94.5 -223h-37c18.667 220.667 140 331 364 331c133.333 0 228.666 -32.667 285.999 -98c20.667 -24 35.5 -50.5 44.5 -79.5s15.5 -70.833 19.5 -125.5c27.333 83.333 64.333 147.333 111 192
c76 74 171.667 111 287 111c134 0 240 -48.333 318 -145c70 -88 105 -198.667 105 -332c0 -8 -0.333008 -21.667 -1 -41h-818c2.66699 -106 15 -186.333 37 -241c30 -76 76.333 -134.667 139 -176c63.333 -42 136.333 -63 219 -63c90.667 0 168.667 24.667 234 74
c70.667 54 116.667 138 138 252h36zM1596 524c-0.666992 110 -24.001 201.333 -70.001 274c-72 114.667 -177 172 -315 172c-89.333 0 -166.666 -24.667 -231.999 -74c-105.333 -80 -160.333 -204 -165 -372h782zM780.001 574c-23.333 -22.667 -48 -37.332 -74 -43.999
s-82.333 -12.334 -169 -17.001c-140.667 -8 -233.667 -19.667 -279 -35c-114 -38.667 -171 -115.334 -171 -230.001c0 -75.333 27.667 -134.333 83 -177c54.667 -41.333 123 -62 205 -62c126 0 229.333 47.333 310 142c63.333 74.667 95 166.334 95 275.001v148z" />
    <glyph glyph-name="ccedilla" unicode="&#xe7;" horiz-adv-x="976" 
d="M914 338c-14.667 -114 -58.834 -203.665 -132.501 -268.998s-167.167 -97.333 -280.5 -96l-63 -93c31.333 6 56.333 9 75 9c39.333 0 72 -10.667 98 -32s39 -48.333 39 -81c0 -42.667 -17 -77 -51 -103s-79 -39 -135 -39c-43.333 0 -99 12.667 -167 38l14 36
c58 -26 109 -39 153 -39c43.333 0 78.333 9 105 27s40 41.667 40 71c0 25.333 -10.167 46.166 -30.5 62.499s-46.5 24.5 -78.5 24.5c-28 0 -62 -8.33301 -102 -25l-25 22l86 122c-65.333 9.33301 -116.666 24 -153.999 44c-71.333 38 -127.833 98.667 -169.5 182
s-62.5 177.333 -62.5 282c0 169.333 45.667 302.666 137 399.999c78.667 83.333 181.667 125 309 125c106 0 193.167 -28.333 261.5 -85s109.166 -135 122.499 -235h-37c-12.667 68.667 -35 123 -67 163c-64 80.667 -158 121 -282 121
c-135.333 0 -239.666 -52 -312.999 -156c-61.333 -86.667 -92 -196 -92 -328c0 -128 30 -236.333 90 -325c70 -103.333 171 -155 303 -155c102.667 0 187 29.5 253 88.5s105.333 140.167 118 243.5h38z" />
    <glyph glyph-name="egrave" unicode="&#xe8;" horiz-adv-x="997" 
d="M924 346c-12 -75.333 -34.668 -138.331 -68.001 -188.998c-79.333 -122.667 -194 -184 -344 -184c-136.667 0 -245 49.667 -325 149c-75.333 93.333 -113 214 -113 362c0 163.333 43.667 292.666 131 387.999c81.333 89.333 184.333 134 309 134
c96.667 0 180 -28.333 250 -85c60.667 -48.667 104.5 -106.834 131.5 -174.501s39.833 -152.167 38.5 -253.5h-818c0 -86 10.333 -158.667 31 -218c28.667 -80 72.334 -143 131.001 -189c65.333 -52 143.333 -78 234 -78c98.667 0 180.667 29.667 246 89
s107.333 142.333 126 249h40zM893.999 529.002c-1.33301 62.667 -7 113.5 -17 152.5s-27.667 78.5 -53 118.5c-72 114 -175 171 -309 171c-99.333 0 -185.333 -32.667 -258 -98c-43.333 -39.333 -76 -85.5 -98 -138.5s-36.667 -121.5 -44 -205.5h779zM359.999 1394l261 -268
h-48l-264 268h51z" />
    <glyph glyph-name="eacute" unicode="&#xe9;" horiz-adv-x="997" 
d="M924 346c-12 -75.333 -34.668 -138.331 -68.001 -188.998c-79.333 -122.667 -194 -184 -344 -184c-136.667 0 -245 49.667 -325 149c-75.333 93.333 -113 214 -113 362c0 163.333 43.667 292.666 131 387.999c81.333 89.333 184.333 134 309 134
c96.667 0 180 -28.333 250 -85c60.667 -48.667 104.5 -106.834 131.5 -174.501s39.833 -152.167 38.5 -253.5h-818c0 -86 10.333 -158.667 31 -218c28.667 -80 72.334 -143 131.001 -189c65.333 -52 143.333 -78 234 -78c98.667 0 180.667 29.667 246 89
s107.333 142.333 126 249h40zM893.999 529.002c-1.33301 62.667 -7 113.5 -17 152.5s-27.667 78.5 -53 118.5c-72 114 -175 171 -309 171c-99.333 0 -185.333 -32.667 -258 -98c-43.333 -39.333 -76 -85.5 -98 -138.5s-36.667 -121.5 -44 -205.5h779zM740.999 1394
l-263 -268h-44l256 268h51z" />
    <glyph glyph-name="ecircumflex" unicode="&#xea;" horiz-adv-x="997" 
d="M924 346c-12 -75.333 -34.668 -138.331 -68.001 -188.998c-79.333 -122.667 -194 -184 -344 -184c-136.667 0 -245 49.667 -325 149c-75.333 93.333 -113 214 -113 362c0 163.333 43.667 292.666 131 387.999c81.333 89.333 184.333 134 309 134
c96.667 0 180 -28.333 250 -85c60.667 -48.667 104.5 -106.834 131.5 -174.501s39.833 -152.167 38.5 -253.5h-818c0 -86 10.333 -158.667 31 -218c28.667 -80 72.334 -143 131.001 -189c65.333 -52 143.333 -78 234 -78c98.667 0 180.667 29.667 246 89
s107.333 142.333 126 249h40zM893.999 529.002c-1.33301 62.667 -7 113.5 -17 152.5s-27.667 78.5 -53 118.5c-72 114 -175 171 -309 171c-99.333 0 -185.333 -32.667 -258 -98c-43.333 -39.333 -76 -85.5 -98 -138.5s-36.667 -121.5 -44 -205.5h779zM760.999 1126h-53
l-191 237l-189 -237h-50l217 268h49z" />
    <glyph glyph-name="edieresis" unicode="&#xeb;" horiz-adv-x="997" 
d="M924 346c-12 -75.333 -34.668 -138.331 -68.001 -188.998c-79.333 -122.667 -194 -184 -344 -184c-136.667 0 -245 49.667 -325 149c-75.333 93.333 -113 214 -113 362c0 163.333 43.667 292.666 131 387.999c81.333 89.333 184.333 134 309 134
c96.667 0 180 -28.333 250 -85c60.667 -48.667 104.5 -106.834 131.5 -174.501s39.833 -152.167 38.5 -253.5h-818c0 -86 10.333 -158.667 31 -218c28.667 -80 72.334 -143 131.001 -189c65.333 -52 143.333 -78 234 -78c98.667 0 180.667 29.667 246 89
s107.333 142.333 126 249h40zM893.999 529.002c-1.33301 62.667 -7 113.5 -17 152.5s-27.667 78.5 -53 118.5c-72 114 -175 171 -309 171c-99.333 0 -185.333 -32.667 -258 -98c-43.333 -39.333 -76 -85.5 -98 -138.5s-36.667 -121.5 -44 -205.5h779zM699.999 1368v-198h-39
v198h39zM377.999 1368v-198h-39v198h39z" />
    <glyph glyph-name="igrave" unicode="&#xec;" horiz-adv-x="282" 
d="M161 979v-979h-39v979h39zM-67 1394h48l216 -268h-42z" />
    <glyph glyph-name="iacute" unicode="&#xed;" horiz-adv-x="282" 
d="M160 979v-979h-39v979h39zM351 1394l-223 -268h-41l215 268h49z" />
    <glyph glyph-name="icircumflex" unicode="&#xee;" horiz-adv-x="282" 
d="M161 979v-979h-39v979h39zM348 1126h-48l-162 237l-155 -237h-49l182 268h50z" />
    <glyph glyph-name="idieresis" unicode="&#xef;" horiz-adv-x="282" 
d="M160 979v-979h-39v979h39zM266 1368v-198h-39v198h39zM54 1368v-198h-39v198h39z" />
    <glyph glyph-name="eth" unicode="&#xf0;" horiz-adv-x="1032" 
d="M417 1141l158 78l-88 143l34 20l93 -144l175 84l16 -31l-172 -86l125 -203c79.333 -122 128 -202.667 146 -242c36.667 -82.667 55 -175 55 -277c0 -161.333 -40.667 -287 -122 -377c-80 -88.667 -187 -133 -321 -133c-144.667 0 -256.667 53 -336 159
c-70.667 94 -106 214 -106 360c0 150.667 39.667 273 119 367c82.667 98 193 147 331 147c40.667 0 76.167 -4 106.5 -12s67.5 -23 111.5 -45l-148 239l-158 -79zM525 971c-130 0 -232.998 -48.001 -308.998 -144.001c-68.667 -86 -103 -198.667 -103 -338
c0 -140 33 -252.333 99 -337c75.333 -96 177.666 -144 306.999 -144c131.333 0 233.333 49 306 147c63.333 84.667 95 193.334 95 326.001c0 132 -30 242.333 -90 331c-68.667 102 -170.334 155 -305.001 159z" />
    <glyph glyph-name="ntilde" unicode="&#xf1;" horiz-adv-x="996" 
d="M161 979l-0.00195312 -244.002c20.667 61.333 47.334 110 80.001 146c74 83.333 170.667 125 290 125c117.333 0 209.666 -39.333 276.999 -118c28.667 -33.333 48.167 -68.666 58.5 -105.999s15.5 -91.333 15.5 -162v-620h-39v616c0 90 -12 158.333 -36 205
c-25.333 49.333 -64.333 87 -117 113c-49.333 24.667 -102.666 37 -159.999 37c-97.333 0 -178.666 -30 -243.999 -90c-83.333 -75.333 -125 -194.666 -125 -357.999v-523h-39v979h39zM737.998 1334c-20 -96.667 -60.665 -145 -121.998 -145c-32.667 0 -71 18 -115 54
c-30.667 24.667 -53.5 41.167 -68.5 49.5s-29.833 12.5 -44.5 12.5c-46.667 0 -76.334 -38.333 -89.001 -115h-39c8 46.667 23.5 83.667 46.5 111s50.167 41 81.5 41s71 -20 119 -60c46 -38 83 -57 111 -57c37.333 0 64.666 36.333 81.999 109h38z" />
    <glyph glyph-name="ograve" unicode="&#xf2;" horiz-adv-x="1032" 
d="M528 1006c94.667 0 177.667 -27.001 249 -81.001c68 -52 117.667 -126.333 149 -223c22 -68 33 -141.333 33 -220c0 -146 -35 -263.667 -105 -353c-82 -104 -194.667 -156 -338 -156s-255 52.333 -335 157c-71.333 93.333 -107 212.333 -107 357
c0 146.667 37.333 267.334 112 362.001c82.667 104.667 196.667 157 342 157zM525 970.999c-130 0 -232.998 -48.001 -308.998 -144.001c-68.667 -86 -103 -198.667 -103 -338c0 -140 33 -252.333 99 -337c75.333 -96 177.666 -144 306.999 -144
c131.333 0 233.333 49 306 147c63.333 84.667 95 193.334 95 326.001c0 132 -30 242.333 -90 331c-68.667 102 -170.334 155 -305.001 159zM357.002 1394l261 -268h-48l-264 268h51z" />
    <glyph glyph-name="oacute" unicode="&#xf3;" horiz-adv-x="1032" 
d="M528 1006c94.667 0 177.667 -27.001 249 -81.001c68 -52 117.667 -126.333 149 -223c22 -68 33 -141.333 33 -220c0 -146 -35 -263.667 -105 -353c-82 -104 -194.667 -156 -338 -156s-255 52.333 -335 157c-71.333 93.333 -107 212.333 -107 357
c0 146.667 37.333 267.334 112 362.001c82.667 104.667 196.667 157 342 157zM525 970.999c-130 0 -232.998 -48.001 -308.998 -144.001c-68.667 -86 -103 -198.667 -103 -338c0 -140 33 -252.333 99 -337c75.333 -96 177.666 -144 306.999 -144
c131.333 0 233.333 49 306 147c63.333 84.667 95 193.334 95 326.001c0 132 -30 242.333 -90 331c-68.667 102 -170.334 155 -305.001 159zM745.002 1394l-263 -268h-44l256 268h51z" />
    <glyph glyph-name="ocircumflex" unicode="&#xf4;" horiz-adv-x="1032" 
d="M528 1006c94.667 0 177.667 -27.001 249 -81.001c68 -52 117.667 -126.333 149 -223c22 -68 33 -141.333 33 -220c0 -146 -35 -263.667 -105 -353c-82 -104 -194.667 -156 -338 -156s-255 52.333 -335 157c-71.333 93.333 -107 212.333 -107 357
c0 146.667 37.333 267.334 112 362.001c82.667 104.667 196.667 157 342 157zM525 970.999c-130 0 -232.998 -48.001 -308.998 -144.001c-68.667 -86 -103 -198.667 -103 -338c0 -140 33 -252.333 99 -337c75.333 -96 177.666 -144 306.999 -144
c131.333 0 233.333 49 306 147c63.333 84.667 95 193.334 95 326.001c0 132 -30 242.333 -90 331c-68.667 102 -170.334 155 -305.001 159zM758.002 1126h-53l-191 237l-189 -237h-50l217 268h49z" />
    <glyph glyph-name="otilde" unicode="&#xf5;" horiz-adv-x="1032" 
d="M528 1006c94.667 0 177.667 -27.001 249 -81.001c68 -52 117.667 -126.333 149 -223c22 -68 33 -141.333 33 -220c0 -146 -35 -263.667 -105 -353c-82 -104 -194.667 -156 -338 -156s-255 52.333 -335 157c-71.333 93.333 -107 212.333 -107 357
c0 146.667 37.333 267.334 112 362.001c82.667 104.667 196.667 157 342 157zM525 970.999c-130 0 -232.998 -48.001 -308.998 -144.001c-68.667 -86 -103 -198.667 -103 -338c0 -140 33 -252.333 99 -337c75.333 -96 177.666 -144 306.999 -144
c131.333 0 233.333 49 306 147c63.333 84.667 95 193.334 95 326.001c0 132 -30 242.333 -90 331c-68.667 102 -170.334 155 -305.001 159zM755.002 1334c-20 -96.667 -60.665 -145 -121.998 -145c-32.667 0 -71 18 -115 54c-30.667 24.667 -53.5 41.167 -68.5 49.5
s-29.833 12.5 -44.5 12.5c-46.667 0 -76.334 -38.333 -89.001 -115h-39c8 46.667 23.5 83.667 46.5 111s50.167 41 81.5 41s71 -20 119 -60c46 -38 83 -57 111 -57c37.333 0 64.666 36.333 81.999 109h38z" />
    <glyph glyph-name="odieresis" unicode="&#xf6;" horiz-adv-x="1032" 
d="M528 1006c94.667 0 177.667 -27.001 249 -81.001c68 -52 117.667 -126.333 149 -223c22 -68 33 -141.333 33 -220c0 -146 -35 -263.667 -105 -353c-82 -104 -194.667 -156 -338 -156s-255 52.333 -335 157c-71.333 93.333 -107 212.333 -107 357
c0 146.667 37.333 267.334 112 362.001c82.667 104.667 196.667 157 342 157zM525 970.999c-130 0 -232.998 -48.001 -308.998 -144.001c-68.667 -86 -103 -198.667 -103 -338c0 -140 33 -252.333 99 -337c75.333 -96 177.666 -144 306.999 -144
c131.333 0 233.333 49 306 147c63.333 84.667 95 193.334 95 326.001c0 132 -30 242.333 -90 331c-68.667 102 -170.334 155 -305.001 159zM697.002 1368v-198h-39v198h39zM375.002 1368v-198h-39v198h39z" />
    <glyph glyph-name="divide" unicode="&#xf7;" horiz-adv-x="1120" 
d="M102 672h916v-39h-916v39zM561 962c13.333 0 24.833 -5 34.5 -15s14.5 -21.667 14.5 -35c0 -14 -4.83301 -25.833 -14.5 -35.5s-21.5 -14.5 -35.5 -14.5s-25.833 4.83301 -35.5 14.5s-14.5 21.5 -14.5 35.5s5 25.833 15 35.5s22 14.5 36 14.5zM561 443
c13.333 0 24.833 -5 34.5 -15s14.5 -21.667 14.5 -35c0 -14 -4.83301 -25.833 -14.5 -35.5s-21.5 -14.5 -35.5 -14.5s-25.833 4.83301 -35.5 14.5s-14.5 21.5 -14.5 35.5s5 25.833 15 35.5s22 14.5 36 14.5z" />
    <glyph glyph-name="oslash" unicode="&#xf8;" horiz-adv-x="1070" 
d="M993 942l-107.998 -111.001c62.667 -94 94 -206 94 -336c0 -161.333 -38.333 -287.666 -115 -378.999c-80 -95.333 -186.667 -143 -320 -143c-138.667 0 -250.334 49.667 -335.001 149l-105 -114l-25 27l106 116c-60 100.667 -90 213.667 -90 339
c0 155.333 42 281 126 377c82 92.667 189.667 139 323 139c131.333 0 238.666 -48.667 321.999 -146l100 106zM838.002 829.999c-73.333 94 -172.667 141 -298 141c-131.333 0 -235.333 -52 -312 -156c-62 -85.333 -93 -192.666 -93 -321.999
c0 -118.667 26 -223.334 78 -314.001zM858.001 800.999l-623 -652.001c75.333 -94 178.333 -141 309 -141c128 0 230.333 52.667 307 158c59.333 81.333 89 188.333 89 321c0 114.667 -27.333 219.334 -82 314.001z" />
    <glyph glyph-name="ugrave" unicode="&#xf9;" horiz-adv-x="983" 
d="M862 979v-979.001h-39v235c-32 -74 -66.667 -129 -104 -165c-66.667 -64.667 -150 -97 -250 -97c-59.333 0 -114.333 11.833 -165 35.5s-91.667 56.834 -123 99.501c-44 59.333 -66 141.333 -66 246v625h39v-584c0 -84 6.33301 -145.667 19 -185
c20 -63.333 56.667 -113.333 110 -150s116 -55 188 -55c103.333 0 187.833 39 253.5 117s98.5 178.667 98.5 302v555h39zM332 1394l261 -268h-48l-264 268h51z" />
    <glyph glyph-name="uacute" unicode="&#xfa;" horiz-adv-x="983" 
d="M862 979v-979.001h-39v235c-32 -74 -66.667 -129 -104 -165c-66.667 -64.667 -150 -97 -250 -97c-59.333 0 -114.333 11.833 -165 35.5s-91.667 56.834 -123 99.501c-44 59.333 -66 141.333 -66 246v625h39v-584c0 -84 6.33301 -145.667 19 -185
c20 -63.333 56.667 -113.333 110 -150s116 -55 188 -55c103.333 0 187.833 39 253.5 117s98.5 178.667 98.5 302v555h39zM714 1394l-263 -268h-44l256 268h51z" />
    <glyph glyph-name="ucircumflex" unicode="&#xfb;" horiz-adv-x="983" 
d="M862 979v-979.001h-39v235c-32 -74 -66.667 -129 -104 -165c-66.667 -64.667 -150 -97 -250 -97c-59.333 0 -114.333 11.833 -165 35.5s-91.667 56.834 -123 99.501c-44 59.333 -66 141.333 -66 246v625h39v-584c0 -84 6.33301 -145.667 19 -185
c20 -63.333 56.667 -113.333 110 -150s116 -55 188 -55c103.333 0 187.833 39 253.5 117s98.5 178.667 98.5 302v555h39zM730 1126h-53l-191 237l-189 -237h-50l217 268h49z" />
    <glyph glyph-name="udieresis" unicode="&#xfc;" horiz-adv-x="983" 
d="M862 979v-979.001h-39v235c-32 -74 -66.667 -129 -104 -165c-66.667 -64.667 -150 -97 -250 -97c-59.333 0 -114.333 11.833 -165 35.5s-91.667 56.834 -123 99.501c-44 59.333 -66 141.333 -66 246v625h39v-584c0 -84 6.33301 -145.667 19 -185
c20 -63.333 56.667 -113.333 110 -150s116 -55 188 -55c103.333 0 187.833 39 253.5 117s98.5 178.667 98.5 302v555h39zM669 1368v-198h-39v198h39zM347 1368v-198h-39v198h39z" />
    <glyph glyph-name="yacute" unicode="&#xfd;" horiz-adv-x="814" 
d="M821 979l-438 -1141c-26 -69.333 -55.833 -115.5 -89.5 -138.5s-87.167 -34.5 -160.5 -34.5h-29v34h23c76 0 128.333 13.333 157 40c19.333 17.333 41 55 65 113c40.667 98 59.667 150 57 156l-413 971h42l392 -924l355 924h39zM649 1394l-263 -268h-44l256 268h51z" />
    <glyph glyph-name="thorn" unicode="&#xfe;" horiz-adv-x="1055" 
d="M122 1365l38.999 -0.000976562v-652c28 73.333 59.333 129.333 94 168c76.667 83.333 175 125 295 125c126.667 0 228.334 -44 305.001 -132c84.667 -97.333 127 -229.666 127 -396.999c0 -131.333 -28.667 -241.333 -86 -330c-74.667 -116 -188 -174 -340 -174
c-100.667 0 -185 26.5 -253 79.5s-115.333 129.167 -142 228.5v-622h-39v1706zM557.999 970.999c-129.333 0 -230.667 -50 -304 -150c-61.333 -84 -92 -195 -92 -333s32.333 -250.333 97 -337c72 -95.333 171.333 -143 298 -143c96 0 176.667 27.667 242 83
c96 82 144 212 144 390c0 153.333 -36.333 274 -109 362c-67.333 82 -159.333 124.667 -276 128z" />
    <glyph glyph-name="ydieresis" unicode="&#xff;" horiz-adv-x="814" 
d="M821 979l-438 -1141c-26 -69.333 -55.833 -115.5 -89.5 -138.5s-87.167 -34.5 -160.5 -34.5h-29v34h23c76 0 128.333 13.333 157 40c19.333 17.333 41 55 65 113c40.667 98 59.667 150 57 156l-413 971h42l392 -924l355 924h39zM588 1368v-198h-39v198h39zM266 1368v-198
h-39v198h39z" />
    <glyph glyph-name="Cacute" unicode="&#x106;" horiz-adv-x="1347" 
d="M936 1722l-284 -241h-51l278 241h57zM1290 535c-10 -129.333 -53.002 -243.666 -129.002 -342.999c-56 -74 -126 -130.333 -210 -169c-79.333 -36 -163.333 -54 -252 -54c-97.333 0 -188.166 20.667 -272.499 62s-154.5 100 -210.5 176
c-93.333 124 -140 281.333 -140 472c0 206.667 55.333 376 166 508c116.667 140 271.334 210 464.001 210c173.333 0 315.333 -58 426 -174c74.667 -78.667 118.667 -168 132 -268h-36c-18 92.667 -58 172 -120 238c-103.333 112 -238.666 168 -405.999 168
c-188 0 -337.333 -72.667 -448 -218c-92.667 -122 -139 -276.333 -139 -463c0 -180.667 42.333 -328.667 127 -444c59.333 -82 133.666 -142.667 222.999 -182c74 -32.667 151.333 -49 232 -49c86.667 0 167.667 17.833 243 53.5s139 86.167 191 151.5
c66.667 85.333 108 193.666 124 324.999h35z" />
    <glyph glyph-name="cacute" unicode="&#x107;" horiz-adv-x="976" 
d="M737 1394l-263 -268h-44l256 268h51zM914 338c-10.667 -80.667 -35.666 -148.999 -74.999 -204.999c-74 -107.333 -183 -161 -327 -161c-156.667 0 -274.334 64 -353.001 192c-56.667 91.333 -85 199.666 -85 324.999c0 75.333 10.667 146 32 212s51.333 120.667 90 164
c82.667 94 190.334 141 323.001 141c107.333 0 195.333 -28.5 264 -85.5s109 -135.167 121 -234.5h-39c-12.667 71.333 -35.667 127.333 -69 168c-64.667 78 -156 117 -274 117c-66 0 -126.833 -13.667 -182.5 -41s-100.834 -65.666 -135.501 -114.999
c-60.667 -86 -91 -195 -91 -327c0 -134 34 -246.667 102 -338c70 -94.667 168 -142 294 -142c100.667 0 183.5 29.167 248.5 87.5s104.167 139.166 117.5 242.499h39z" />
    <glyph glyph-name="Ccaron" unicode="&#x10c;" horiz-adv-x="1347" 
d="M428 1728h53l223 -212l223 212h53l-251 -247h-50zM1290 535c-10 -129.333 -53.002 -243.666 -129.002 -342.999c-56 -74 -126 -130.333 -210 -169c-79.333 -36 -163.333 -54 -252 -54c-97.333 0 -188.166 20.667 -272.499 62s-154.5 100 -210.5 176
c-93.333 124 -140 281.333 -140 472c0 206.667 55.333 376 166 508c116.667 140 271.334 210 464.001 210c173.333 0 315.333 -58 426 -174c74.667 -78.667 118.667 -168 132 -268h-36c-18 92.667 -58 172 -120 238c-103.333 112 -238.666 168 -405.999 168
c-188 0 -337.333 -72.667 -448 -218c-92.667 -122 -139 -276.333 -139 -463c0 -180.667 42.333 -328.667 127 -444c59.333 -82 133.666 -142.667 222.999 -182c74 -32.667 151.333 -49 232 -49c86.667 0 167.667 17.833 243 53.5s139 86.167 191 151.5
c66.667 85.333 108 193.666 124 324.999h35z" />
    <glyph glyph-name="ccaron" unicode="&#x10d;" horiz-adv-x="976" 
d="M274 1394h53l191 -237l188 237h51l-217 -268h-49zM914 338c-10.667 -80.667 -35.666 -148.999 -74.999 -204.999c-74 -107.333 -183 -161 -327 -161c-156.667 0 -274.334 64 -353.001 192c-56.667 91.333 -85 199.666 -85 324.999c0 75.333 10.667 146 32 212
s51.333 120.667 90 164c82.667 94 190.334 141 323.001 141c107.333 0 195.333 -28.5 264 -85.5s109 -135.167 121 -234.5h-39c-12.667 71.333 -35.667 127.333 -69 168c-64.667 78 -156 117 -274 117c-66 0 -126.833 -13.667 -182.5 -41
s-100.834 -65.666 -135.501 -114.999c-60.667 -86 -91 -195 -91 -327c0 -134 34 -246.667 102 -338c70 -94.667 168 -142 294 -142c100.667 0 183.5 29.167 248.5 87.5s104.167 139.166 117.5 242.499h39z" />
    <glyph glyph-name="dmacron" unicode="&#x111;" horiz-adv-x="1077" 
d="M895 1197v168h39v-168h150v-36h-150v-1161h-39v281c-16.667 -62.667 -41 -114.667 -73 -156c-77.333 -101.333 -185 -152 -323 -152c-151.333 0 -264.333 58 -339 174c-57.333 88.667 -86 199 -86 331c0 166.667 42 298.667 126 396c76.667 88 178.667 132 306 132
c128.667 0 231.667 -47.333 309 -142c28 -34 54.667 -84.333 80 -151v448h-357v36h357zM509 971c-121.333 0 -217 -42.6689 -287 -128.002c-72.667 -88 -109 -209 -109 -363c0 -121.333 24.333 -222.666 73 -303.999c32.667 -54.667 76.667 -96.667 132 -126
c53.333 -28 113.333 -42 180 -42c127.333 0 227 48 299 144c64.667 86 97 198.333 97 337s-30.667 249.334 -92 332.001c-71.333 96.667 -169 146.667 -293 150z" />
    <glyph glyph-name="Gbreve" unicode="&#x11e;" horiz-adv-x="1414" 
d="M962 1713c-6.66699 -43.333 -18.6699 -79.665 -36.0029 -108.998c-46.667 -77.333 -115.334 -116 -206.001 -116c-65.333 0 -120.166 20.667 -164.499 62s-70.166 95.666 -77.499 162.999h39c6.66699 -42.667 19 -76.667 37 -102c39.333 -58 95 -87 167 -87
c54.667 0 99.334 16.167 134.001 48.5s57.334 79.166 68.001 140.499h39zM1310 643.001l-0.00195312 -644h-39v365c-21.333 -74 -54.666 -139 -99.999 -195c-109.333 -133.333 -260 -200 -452 -200c-134 0 -252.333 33 -355 99c-95.333 61.333 -168 146.333 -218 255
c-46.667 102 -70 216 -70 342c0 106.667 16.167 207 48.5 301s77.833 173.333 136.5 238c116.667 128 267.334 192 452.001 192c176 0 321 -62 435 -186c70 -77.333 115 -167.333 135 -270h-36c-18 86 -58 165 -120 237c-106.667 122 -244.667 183 -414 183
c-204.667 0 -363 -82 -475 -246c-82 -120 -123 -270.667 -123 -452c0 -184.667 48.333 -335 145 -451c54.667 -65.333 121.5 -116 200.5 -152s163.167 -54 252.5 -54c134 0 249.667 36.333 347 109c68 50 120.333 114.5 157 193.5s55 166.167 55 261.5
c0 5.33301 -0.333008 18 -1 38h-530v36h569z" />
    <glyph glyph-name="gbreve" unicode="&#x11f;" horiz-adv-x="1033" 
d="M276 1379h38c7.33301 -44.667 18.666 -81 33.999 -109c34.667 -62.667 85.334 -94 152.001 -94c50 0 90.833 17.167 122.5 51.5s53.167 84.833 64.5 151.5h37c-4.66699 -48 -16.667 -89.333 -36 -124c-41.333 -76.667 -104 -115 -188 -115c-61.333 0 -112 21.5 -152 64.5
s-64 101.167 -72 174.5zM912 979l-0.000976562 -912c0 -111.333 -17.333 -197.666 -52 -258.999c-64 -112 -184 -168 -360 -168c-116.667 0 -207 26.167 -271 78.5s-98.333 128.166 -103 227.499h38c7.33301 -68 23.666 -119.667 48.999 -155
c55.333 -76.667 150.333 -115 285 -115c148.667 0 252 41.333 310 124c43.333 62 65 158.667 65 290v245c-18 -50 -37 -89.333 -57 -118c-36.667 -52 -84 -92.167 -142 -120.5s-121.333 -42.5 -190 -42.5c-139.333 0 -246.333 51.333 -321 154
c-58.667 80.667 -88 184.667 -88 312c0 145.333 36 261 108 347c36.667 44 82.334 78.167 137.001 102.5s113 36.5 175 36.5c92 0 170.833 -25 236.5 -75s112.834 -121.333 141.501 -214v262h39zM498.999 970c-132.667 0 -234.334 -51.001 -305.001 -153.001
c-53.333 -77.333 -80 -173.666 -80 -288.999c0 -125.333 29.667 -228 89 -308c65.333 -87.333 159.333 -131 282 -131c74 0 141.667 18.667 203 56c122.667 75.333 184 203.333 184 384c0 140 -37 249.333 -111 328c-67.333 71.333 -154.666 109 -261.999 113z" />
    <glyph glyph-name="Idot" unicode="&#x130;" horiz-adv-x="301" 
d="M170 1690v-178h-39v178h39zM170 1365v-1365h-39v1365h39z" />
    <glyph glyph-name="dotlessi" unicode="&#x131;" horiz-adv-x="282" 
d="M161 979v-979h-39v979h39z" />
    <glyph glyph-name="Lslash" unicode="&#x141;" horiz-adv-x="983" 
d="M153 658v707h39v-685l348 249v-45l-348 -249v-599h804v-36h-843v612l-150 -113v45z" />
    <glyph glyph-name="lslash" unicode="&#x142;" horiz-adv-x="326" 
d="M143 748v617h39v-594l144 109v-45l-144 -109v-726h-39v703l-143 -108v45z" />
    <glyph glyph-name="OE" unicode="&#x152;" horiz-adv-x="2071" 
d="M2029 1365l0.000976562 -36h-848v-607h755v-36h-755v-650h848v-36h-887v134c-118.667 -110 -259.334 -165 -422.001 -165c-201.333 0 -366.333 80 -495 240c-99.333 122.667 -149 278 -149 466c0 210.667 58 380.667 174 510c126 140.667 287 211 483 211
c144.667 0 281 -50.667 409 -152v121h887zM1142 182v1012c0 4.66699 -15.167 18.667 -45.5 42s-56.166 40.666 -77.499 51.999c-89.333 48 -185 72 -287 72c-193.333 0 -350.333 -73.667 -471 -221c-97.333 -118.667 -146 -274.334 -146 -467.001
c0 -197.333 55 -355.333 165 -474c119.333 -128.667 265.666 -193 438.999 -193c121.333 0 233 32.667 335 98c15.333 9.33301 33.833 23.833 55.5 43.5s32.5 31.5 32.5 35.5z" />
    <glyph glyph-name="oe" unicode="&#x153;" horiz-adv-x="1729" 
d="M1659 326c-58 -235.333 -195.002 -353 -411.002 -353c-103.333 0 -187.166 28.167 -251.499 84.5s-106.833 139.166 -127.5 248.499c-54 -222 -180.667 -333 -380 -333c-145.333 0 -255.666 57.333 -330.999 172c-56 86 -84 197 -84 333
c0 163.333 38.667 293.333 116 390c74 92 173.333 138 298 138c130.667 0 231 -49 301 -147c31.333 -44 58 -109.667 80 -197c22 92.667 54 164.334 96 215.001c72 86.667 170.667 130 296 130c69.333 0 132.333 -15 189 -45s103 -72.667 139 -128
c50.667 -80 76.667 -195.333 78 -346h-778v-46c0 -141.333 35.333 -251 106 -329c63.333 -70 149 -105 257 -105c191.333 0 315 106 371 318h36zM1630 524c-6.66699 131.333 -30.665 228 -71.998 290c-68.667 104.667 -168.334 157 -299.001 157
c-140.667 0 -243.667 -58 -309 -174c-36.667 -66.667 -57.334 -157.667 -62.001 -273h742zM492 970c-129.333 0 -226.668 -50.001 -292.001 -150.001c-58 -88 -87 -202.667 -87 -344c0 -140 31 -251.667 93 -335c66.667 -88.667 161.334 -133 284.001 -133
c115.333 0 204.333 41.167 267 123.5s94 198.833 94 349.5c0 148.667 -26.667 263.334 -80 344.001c-62 92.667 -155 141 -279 145z" />
    <glyph glyph-name="Scedilla" unicode="&#x15e;" horiz-adv-x="1094" 
d="M557 -28l-61.999 -96c30.667 4.66699 54.667 7 72 7c39.333 0 71.833 -10.5 97.5 -31.5s38.5 -47.833 38.5 -80.5c0 -40.667 -17.333 -74.334 -52 -101.001s-78.667 -40 -132 -40c-48 0 -104.333 13 -169 39l14 35c62 -24.667 114 -37 156 -37c30.667 0 58 5.66699 82 17
c41.333 20 62 47.333 62 82c0 24 -10.5 43.833 -31.5 59.5s-47.167 23.5 -78.5 23.5c-26.667 0 -59.334 -7.33301 -98.001 -22l-30 20l85 124c-128.667 2.66699 -236 34.334 -322 95.001c-51.333 35.333 -92.333 85.666 -123 150.999s-46 134.666 -46 207.999
c0 6 0.333008 15 1 27h37c0 -121.333 30 -219.666 90 -294.999c36.667 -46.667 89.5 -83.167 158.5 -109.5s146.833 -39.5 233.5 -39.5c160.667 0 280 35.333 358 106c68 61.333 102 140 102 236c0 104.667 -38.333 180.334 -115 227.001
c-28.667 17.333 -62 31.833 -100 43.5s-113.333 30.5 -226 56.5c-118 27.333 -200.5 48.666 -247.5 63.999s-88.5 34.333 -124.5 57c-85.333 53.333 -128 136.666 -128 249.999c0 116.667 47 206.334 141 269.001c77.333 51.333 180.333 77 309 77
c157.333 0 278.5 -34.833 363.5 -104.5s131.5 -172.167 139.5 -307.5h-40c-7.33301 109.333 -37.333 192.666 -90 249.999c-37.333 40 -88.333 71 -153 93s-137.667 33 -219 33c-128 0 -228 -27 -300 -81c-74.667 -55.333 -112 -133 -112 -233
c0 -114 51.333 -194.333 154 -241c48.667 -22 159 -53.667 331 -95c102.667 -24 173.667 -42 213 -54s74 -26.333 104 -43c92.667 -52 139 -139 139 -261c0 -73.333 -18.333 -138.166 -55 -194.499s-89 -100.166 -157 -131.499c-66 -30 -156 -47.333 -270 -52z" />
    <glyph glyph-name="scedilla" unicode="&#x15f;" horiz-adv-x="867" 
d="M442 -27l-62 -92.9961c30.667 6 55.334 9 74.001 9c39.333 0 72 -10.667 98 -32s39 -48.333 39 -81c0 -42.667 -17 -77 -51 -103s-79 -39 -135 -39c-43.333 0 -99 12.667 -167 38l14 36c58 -26 109 -39 153 -39c43.333 0 78.166 9 104.499 27s39.5 41.667 39.5 71
c0 25.333 -10.167 46.166 -30.5 62.499s-46.166 24.5 -77.499 24.5c-28 0 -62 -8.33301 -102 -25l-25 22l85 122c-116 7.33301 -203.667 41.666 -263 102.999s-90 148.666 -92 261.999h40c2 -85.333 18 -151.333 48 -198c27.333 -42 66.833 -74.5 118.5 -97.5
s110.834 -34.5 177.501 -34.5c99.333 0 177.333 21.333 234 64c63.333 48 95 108 95 180c0 75.333 -39.333 133 -118 173c-36.667 18.667 -104.334 39.334 -203.001 62.001c-126 28.667 -210 55 -252 79c-69.333 40 -104 101 -104 183c0 95.333 42 166 126 212
c53.333 29.333 123.666 44 210.999 44c127.333 0 222 -35 284 -105c41.333 -46.667 64.333 -115.334 69 -206.001h-39c-4.66699 66.667 -18.334 119 -41.001 157c-49.333 80 -142.333 120 -279 120c-82 0 -147.333 -15.333 -196 -46c-63.333 -41.333 -95 -99 -95 -173
c0 -72.667 34.333 -126.667 103 -162c34 -17.333 108 -39.333 222 -66c106 -24.667 181.667 -48.334 227 -71.001c82.667 -41.333 124 -109 124 -203c0 -80 -32.667 -145.667 -98 -197s-150.666 -78 -255.999 -80z" />
    <glyph glyph-name="Scaron" unicode="&#x160;" horiz-adv-x="1094" 
d="M1012 982h-40c-7.33301 109.333 -37.333 192.666 -90 249.999c-37.333 40 -88.333 71 -153 93s-137.667 33 -219 33c-125.333 0 -225.333 -27 -300 -81s-112 -131.667 -112 -233c0 -114 51.333 -194.333 154 -241c48.667 -22 159 -53.667 331 -95
c100.667 -23.333 171.167 -41.333 211.5 -54s75.5 -27 105.5 -43c92.667 -52 139 -139 139 -261c0 -118.667 -44 -211.5 -132 -278.5s-210 -100.5 -366 -100.5c-170 0 -299.667 41.333 -389 124c-40 37.333 -72 85.833 -96 145.5s-36 121.5 -36 185.5
c0 5.33301 0.333008 14 1 26h37c0 -121.333 30 -219.666 90 -294.999c36.667 -47.333 89.5 -84.166 158.5 -110.499s146.833 -39.5 233.5 -39.5c160.667 0 280 35.333 358 106c68 62 102 140.667 102 236c0 105.333 -38.333 181.333 -115 228c-28.667 16.667 -62 31 -100 43
s-113.333 31 -226 57c-118 27.333 -200.5 48.666 -247.5 63.999s-88.5 34.333 -124.5 57c-85.333 53.333 -128 136.666 -128 249.999c0 116.667 47 206.334 141 269.001c77.333 51.333 180.333 77 309 77c157.333 0 278.5 -34.833 363.5 -104.5s131.5 -172.167 139.5 -307.5
zM254 1728h53l223 -212l223 212h53l-251 -247h-50z" />
    <glyph glyph-name="scaron" unicode="&#x161;" horiz-adv-x="867" 
d="M770 694l-38.999 0.00292969c-4.66699 66.667 -18.334 119 -41.001 157c-49.333 80 -142.333 120 -279 120c-82 0 -147.333 -15.333 -196 -46c-63.333 -41.333 -95 -99 -95 -173c0 -72.667 34.333 -126.334 103 -161.001c34 -18 108 -40.333 222 -67
c106 -24.667 181.667 -48.334 227 -71.001c82.667 -41.333 124 -109 124 -203c0 -86 -37.333 -154.667 -112 -206c-68 -47.333 -153.333 -71 -256 -71c-155.333 0 -265.666 50.333 -330.999 151c-34 52.667 -51.667 124 -53 214h40c2 -84.667 18 -150.334 48 -197.001
c56.667 -88 155.334 -132 296.001 -132c99.333 0 177.333 21.333 234 64c63.333 48 95 108 95 180c0 75.333 -39.333 133 -118 173c-36.667 18.667 -104.334 39.334 -203.001 62.001c-126 28.667 -210 54.667 -252 78c-69.333 40 -104 101 -104 183c0 95.333 42 166 126 212
c53.333 29.333 123.666 44 210.999 44c127.333 0 222 -35 284 -105c41.333 -46.667 64.333 -115.334 69 -206.001zM180.001 1394h53l191 -237l188 237h51l-217 -268h-49z" />
    <glyph glyph-name="Ydieresis" unicode="&#x178;" horiz-adv-x="1112" 
d="M768 1690v-178h-39v178h39zM385 1690v-178h-39v178h39zM1133 1365l-560 -791v-574h-39v575l-554 790h44l530 -752l536 752h43z" />
    <glyph glyph-name="Zcaron" unicode="&#x17d;" horiz-adv-x="1084" 
d="M1037 1365v-49l-963 -1280h978v-36h-1014v51l961 1278h-908v36h946zM287 1728h53l223 -212l223 212h53l-251 -247h-50z" />
    <glyph glyph-name="zcaron" unicode="&#x17e;" horiz-adv-x="782" 
d="M751 979v-45l-701 -898h732v-36h-768v49l698 894h-644v36h683zM169 1394h53l191 -237l188 237h51l-217 -268h-49z" />
    <glyph glyph-name="florin" unicode="&#x192;" horiz-adv-x="1120" 
d="M865 945l-5.00195 -35h-245l-154 -877c-24 -136 -56.667 -232.333 -98 -289s-99.666 -85 -174.999 -85c-29.333 0 -58.666 4.33301 -87.999 13l7 38c33.333 -7.33301 62 -11 86 -11c66.667 0 117.667 31 153 93c30.667 53.333 59.334 156 86.001 308l143 810h-231l7 35
h230l32 181c14 83.333 26.667 142 38 176s28.333 64 51 90c43.333 52 106.666 78 189.999 78c35.333 0 72.333 -4.66699 111 -14l-8 -36c-40 7.33301 -74.333 11 -103 11c-68 0 -119.667 -21.667 -155 -65s-62.333 -118 -81 -224l-34 -197h243z" />
    <glyph glyph-name="circumflex" unicode="&#x2c6;" 
d="M754 1126h-53l-191 237l-189 -237h-50l217 268h49z" />
    <glyph glyph-name="caron" unicode="&#x2c7;" 
d="M271 1394h53l191 -237l188 237h51l-217 -268h-49z" />
    <glyph glyph-name="macron" unicode="&#x2c9;" 
d="M781 1260v-36h-537v36h537z" />
    <glyph glyph-name="breve" unicode="&#x2d8;" 
d="M301 1379h38c7.33301 -44.667 18.666 -81 33.999 -109c34.667 -62.667 85.334 -94 152.001 -94c50 0 90.833 17.167 122.5 51.5s53.167 84.833 64.5 151.5h37c-4.66699 -48 -16.667 -89.333 -36 -124c-41.333 -76.667 -104 -115 -188 -115c-61.333 0 -112 21.5 -152 64.5
s-64 101.167 -72 174.5z" />
    <glyph glyph-name="dotaccent" unicode="&#x2d9;" 
d="M531 1368v-198h-39v198h39z" />
    <glyph glyph-name="ring" unicode="&#x2da;" 
d="M515 1451c48 0 89 -18.668 123 -56.001c29.333 -32 44 -69.667 44 -113c0 -50 -18.667 -92 -56 -126c-32.667 -28.667 -70.667 -43 -114 -43c-50 0 -91.667 18.667 -125 56c-29.333 32 -44 70 -44 114c0 46.667 16.667 86.334 50 119.001s74 49 122 49zM514 1413
c-36.667 0 -68.001 -12.666 -94.001 -37.999s-39 -56 -39 -92c0 -36.667 12.833 -67.834 38.5 -93.501s56.5 -38.5 92.5 -38.5c36.667 0 67.834 12.833 93.501 38.5s38.5 56.5 38.5 92.5s-12.5 66.5 -37.5 91.5s-55.833 38.167 -92.5 39.5z" />
    <glyph glyph-name="ogonek" unicode="&#x2db;" 
d="M582 0h47.999c-76.667 -56.667 -115 -113.667 -115 -171c0 -34.667 14 -63 42 -85s63.667 -33 107 -33c28.667 0 62.667 7.33301 102 22v-39c-39.333 -14 -74.666 -21 -105.999 -21c-57.333 0 -103.333 15.333 -138 46c-30.667 28 -46 63.667 -46 107
c0 64 35.333 122 106 174z" />
    <glyph glyph-name="tilde" unicode="&#x2dc;" 
d="M751 1334c-20 -96.667 -60.665 -145 -121.998 -145c-32.667 0 -71 18 -115 54c-30.667 24.667 -53.5 41.167 -68.5 49.5s-29.833 12.5 -44.5 12.5c-46.667 0 -76.334 -38.333 -89.001 -115h-39c8 46.667 23.5 83.667 46.5 111s50.167 41 81.5 41s71 -20 119 -60
c46 -38 83 -57 111 -57c37.333 0 64.666 36.333 81.999 109h38z" />
    <glyph glyph-name="hungarumlaut" unicode="&#x2dd;" 
d="M584 1394l-195 -268h-44l188 268h51zM816 1394l-195 -268h-44l188 268h51z" />
    <glyph glyph-name="pi" unicode="&#x3c0;" 
d="M186 0v942h-148v37h948v-37h-146v-942h-40v942h-574v-942h-40z" />
    <glyph glyph-name="endash" unicode="&#x2013;" horiz-adv-x="1120" 
d="M1003 520v-35h-887v35h887z" />
    <glyph glyph-name="emdash" unicode="&#x2014;" horiz-adv-x="1283" 
d="M1283 520v-35h-1283v35h1283z" />
    <glyph glyph-name="quoteleft" unicode="&#x2018;" horiz-adv-x="285" 
d="M123 965l-0.000976562 163.001c0 71.333 6.16699 126.666 18.5 165.999s33.5 70 63.5 92v-59c-29.333 -40.667 -43.666 -99 -42.999 -175v-187h-39z" />
    <glyph glyph-name="quoteright" unicode="&#x2019;" horiz-adv-x="285" 
d="M162 1365l0.000976562 -163.001c0 -71.333 -6.16699 -126.666 -18.5 -165.999s-33.5 -70 -63.5 -92v60c29.333 40.667 43.666 98.667 42.999 174v187h39z" />
    <glyph glyph-name="quotesinglbase" unicode="&#x201a;" horiz-adv-x="285" 
d="M162 188l0.000976562 -163c0 -72 -6.16699 -127.5 -18.5 -166.5s-33.5 -69.5 -63.5 -91.5v59c29.333 40.667 43.666 99 42.999 175v187h39z" />
    <glyph glyph-name="quotedblleft" unicode="&#x201c;" horiz-adv-x="480" 
d="M318 965l0.000976562 162.999c0 71.333 6.16699 126.5 18.5 165.5s33.166 69.833 62.499 92.5v-59c-28.667 -41.333 -42.667 -99.666 -42 -174.999v-187h-39zM123.001 964.999l-0.000976562 163.001c0 71.333 6.16699 126.666 18.5 165.999s33.5 70 63.5 92v-59
c-29.333 -40.667 -43.666 -99 -42.999 -175v-187h-39z" />
    <glyph glyph-name="quotedblright" unicode="&#x201d;" horiz-adv-x="480" 
d="M162 1365l0.000976562 -163.001c0 -71.333 -6.16699 -126.666 -18.5 -165.999s-33.5 -70 -63.5 -92v60c29.333 40.667 43.666 98.667 42.999 174v187h39zM356.001 1365l-0.000976562 -163c0 -71.333 -6.16699 -126.5 -18.5 -165.5s-33.166 -69.833 -62.499 -92.5v60
c28.667 40.667 42.667 98.667 42 174v187h39z" />
    <glyph glyph-name="quotedblbase" unicode="&#x201e;" horiz-adv-x="480" 
d="M162 188l0.000976562 -163c0 -72 -6.16699 -127.5 -18.5 -166.5s-33.5 -69.5 -63.5 -91.5v59c29.333 40.667 43.666 99 42.999 175v187h39zM356.001 188l-0.000976562 -163c0 -71.333 -6.16699 -126.5 -18.5 -165.5s-33.166 -69.833 -62.499 -92.5v59
c28.667 40.667 42.667 99 42 175v187h39z" />
    <glyph glyph-name="dagger" unicode="&#x2020;" horiz-adv-x="1120" 
d="M981 898v-36h-401v-1203h-39v1203h-403v36h403v467h39v-467h401z" />
    <glyph glyph-name="daggerdbl" unicode="&#x2021;" horiz-adv-x="1120" 
d="M980 968v-36h-399v-838h399v-36h-399v-399h-39v399h-402v36h402v838h-402v36h402v397h39v-397h399z" />
    <glyph glyph-name="bullet" unicode="&#x2022;" horiz-adv-x="1365" 
d="M689 978c75.333 0 140.666 -27.667 195.999 -83c56 -55.333 84 -122.333 84 -201s-27.667 -145.667 -83 -201s-122.333 -83 -201 -83c-77.333 0 -143.666 27.333 -198.999 82c-56.667 56 -85 123.333 -85 202c0 80.667 28 148 84 202c57.333 54.667 125.333 82 204 82z
" />
    <glyph glyph-name="ellipsis" unicode="&#x2026;" horiz-adv-x="741" 
d="M143 188v-188h-39v188h39zM390 188v-188h-39v188h39zM637 188v-188h-39v188h39z" />
    <glyph glyph-name="perthousand" unicode="&#x2030;" horiz-adv-x="2095" 
d="M1172 1385l-897 -1440h-44l897 1440h44zM1047 626c88 0 158.5 -28.834 211.5 -86.501s79.5 -134.5 79.5 -230.5c0 -102 -26 -182.333 -78 -241s-123.333 -88 -214 -88c-92.667 0 -165.167 28.5 -217.5 85.5s-78.5 136.167 -78.5 237.5c0 100.667 26 179.334 78 236.001
c54 58 127 87 219 87zM1046 589.999c-84 0 -148.333 -24.833 -193 -74.5s-67 -121.5 -67 -215.5c0 -90.667 22 -160.334 66 -209.001c46.667 -51.333 110.667 -77 192 -77c88.667 0 156 31 202 93c38 50.667 57 118.667 57 204c0 84.667 -22.833 151.834 -68.5 201.501
s-108.5 75.5 -188.5 77.5zM1740 627.999c88.667 0 159.001 -28.999 211.001 -86.999s78 -136 78 -234c0 -93.333 -24.667 -170.333 -74 -231c-51.333 -63.333 -124.333 -95 -219 -95c-104.667 0 -182.334 35.667 -233.001 107c-41.333 57.333 -62 129 -62 215
c0 101.333 25.333 179.666 76 234.999c54.667 60 129 90 223 90zM1740 592c-82 0 -146.333 -25.167 -193 -75.5s-70 -119.833 -70 -208.5c0 -86 21 -155.333 63 -208c44.667 -56 109.667 -84 195 -84c80.667 0 143.667 26 189 78s68 124 68 216
c0 84.667 -20 150.667 -60 198c-44.667 54 -108.667 82 -192 84zM364.001 1351c99.333 0 176.333 -36 231 -108c40 -53.333 60 -125 60 -215c0 -98 -27.167 -176.667 -81.5 -236s-125.833 -89 -214.5 -89c-91.333 0 -163 29 -215 87s-78 137.667 -78 239
c0 96 24.667 172.333 74 229c54 62 128.667 93 224 93zM361.001 1314c-80.667 0 -144.168 -26.001 -190.501 -78.001s-69.5 -123 -69.5 -213c0 -88.667 22.667 -158 68 -208s108.333 -75 189 -75c94.667 0 165 34.333 211 103c33.333 50.667 50 113 50 187
c0 88.667 -22.667 157.834 -68 207.501s-108.666 75.167 -189.999 76.5z" />
    <glyph glyph-name="guilsinglleft" unicode="&#x2039;" horiz-adv-x="346" 
d="M254 226l-190 254v34l190 265v-56l-158 -226l158 -213v-58z" />
    <glyph glyph-name="guilsinglright" unicode="&#x203a;" horiz-adv-x="346" 
d="M91 779l190 -254v-34l-190 -265v56l158 226l-158 213v58z" />
    <glyph glyph-name="franc" unicode="&#x20a3;" horiz-adv-x="1229" 
d="M880 1304v-36h-710v-568h609v-36h-609v-664h-39v1304h749zM1270 700v-38c-132 0 -229.333 -40.667 -292 -122c-38 -48 -63.833 -98.5 -77.5 -151.5s-20.5 -127.167 -20.5 -222.5v-166h-39v700h39v-280c59.333 190 189.333 283.333 390 280z" />
    <glyph glyph-name="trademark" unicode="&#x2122;" horiz-adv-x="1539" 
d="M591 1365v-38h-276v-740h-39v740h-276v38h591zM1416 1365v-778h-39v700l-311 -700h-37l-311 701v-701h-39v778h45l325 -726l323 726h44z" />
    <glyph glyph-name="Omega" unicode="&#x2126;" horiz-adv-x="1365" 
d="M58 0l0.000976562 36.998h449c-116.667 64.667 -214.334 147 -293.001 247c-104 132.667 -156 282.334 -156 449.001c0 155.333 42.333 291.666 127 408.999c70.667 98.667 160.667 169.667 270 213c72 28.667 148 43 228 43c132 0 250.333 -37.333 355 -112
c92.667 -66.667 163 -153.667 211 -261c39.333 -89.333 59 -186.666 59 -291.999c0 -180 -61.333 -341 -184 -483c-74 -85.333 -162.333 -156.333 -265 -213h449v-37h-518v37c113.333 64.667 201.333 128.667 264 192c143.333 146 215 315 215 507
c0 138.667 -38 263.667 -114 375c-64 94 -145 162.333 -243 205c-69.333 30 -145 45 -227 45c-131.333 0 -246.333 -37.667 -345 -113c-82.667 -62.667 -145.667 -145 -189 -247c-36 -83.333 -54 -171.666 -54 -264.999c0 -126.667 33 -245.667 99 -357
c42 -70 91.167 -130.5 147.5 -181.5s133.833 -104.5 232.5 -160.5v-37h-518z" />
    <glyph glyph-name="partialdiff" unicode="&#x2202;" 
d="M217 1342l6.99805 41c126.667 -20.667 233.667 -59.334 321 -116.001c119.333 -78 214.333 -190.5 285 -337.5s106 -305.5 106 -475.5c0 -114 -24.333 -209 -73 -285c-44 -68 -102.667 -119.667 -176 -155c-56 -27.333 -113.667 -41 -173 -41
c-107.333 0 -202 39.667 -284 119c-94 91.333 -141 205 -141 341c0 112 33.333 211 100 297c40.667 52.667 90.334 93.334 149.001 122.001s121 43 187 43c156 0 271.333 -68.333 346 -205c-48 190 -126.167 339.167 -234.5 447.5s-248.166 176.5 -419.499 204.5z
M533.998 858c-92 0 -173 -26.334 -243 -79.001c-41.333 -31.333 -76.333 -73.666 -105 -126.999c-37.333 -70 -56 -144 -56 -222c0 -124 43.333 -228 130 -312c74 -72 159.667 -108 257 -108c85.333 0 162 27.667 230 83c99.333 81.333 149 199 149 353
c0 142.667 -44 251 -132 325c-66 56 -142.667 85 -230 87z" />
    <glyph glyph-name="Delta" unicode="&#x2206;" horiz-adv-x="1229" 
d="M9 0l585 1365h40l585 -1365h-1210zM67 37h1094l-547 1279z" />
    <glyph glyph-name="product" unicode="&#x220f;" horiz-adv-x="1365" 
d="M69 1536h1228v-37h-155v-1974h155v-37h-368v37h173v1974h-839v-1974h172v-37h-366v37h154v1974h-154v37z" />
    <glyph glyph-name="summation" unicode="&#x2211;" horiz-adv-x="1365" 
d="M1183 1536v-425h-40v386h-1030l523 -939l-523 -1033h1049v382h40v-419h-1131v46l518 1024l-518 939v39h1112z" />
    <glyph glyph-name="minus" unicode="&#x2212;" horiz-adv-x="1120" 
d="M102 672h916v-39h-916v39z" />
    <glyph glyph-name="fraction" unicode="&#x2215;" horiz-adv-x="283" 
d="M591 1329l-856 -1329h-42l854 1329h44z" />
    <glyph glyph-name="periodcentered" unicode="&#x2219;" horiz-adv-x="247" 
d="M143 596v-187h-39v187h39z" />
    <glyph glyph-name="radical" unicode="&#x221a;" horiz-adv-x="1365" 
d="M1638 1693v-37h-436l-538 -1656h-26l-216 666h-149v37h179l199 -613l521 1603h466z" />
    <glyph glyph-name="infinity" unicode="&#x221e;" horiz-adv-x="1365" 
d="M683 665c-38 -58.667 -72 -104.329 -102 -136.996c-76 -84.667 -160.333 -127 -253 -127c-66 0 -122.667 16.667 -170 50c-78 56 -117 140 -117 252c0 99.333 33.667 175.666 101 228.999c53.333 42 116.333 63 189 63c64.667 0 124.5 -20.667 179.5 -62
s112.5 -109 172.5 -203c63.333 97.333 121.5 165.666 174.5 204.999s113.833 59 182.5 59c100 0 176 -37.333 228 -112c37.333 -52.667 56 -115.334 56 -188.001c0 -94 -30 -168 -90 -222c-53.333 -47.333 -118.333 -71 -195 -71c-68 0 -129.167 20.167 -183.5 60.5
s-111.833 108.166 -172.5 203.499zM705 698.005c29.333 -46.667 57.999 -86.667 85.999 -120c40 -49.333 80 -85 120 -107s84 -33 132 -33c76.667 0 137.667 28 183 84c38 46.667 57 105 57 175c0 93.333 -31 163.333 -93 210c-44.667 33.333 -94.334 50 -149.001 50
c-96.667 0 -184 -50.667 -262 -152c-9.33301 -12 -24.166 -32.667 -44.499 -62s-30.166 -44.333 -29.499 -45zM660.999 697.005c-30 46.667 -58.666 87.001 -85.999 121.001c-40.667 49.333 -80.834 85 -120.501 107s-83.834 33 -132.501 33
c-76.667 0 -137.667 -28 -183 -84c-38 -46.667 -57 -105 -57 -175c0 -93.333 31 -163.666 93 -210.999c44.667 -33.333 94.667 -50 150 -50c96.667 0 183.667 50.667 261 152c10.667 13.333 25.834 34.166 45.501 62.499s29.5 43.166 29.5 44.499z" />
    <glyph glyph-name="integral" unicode="&#x222b;" 
d="M287 -489l18.0029 35c27.333 -14 52.666 -21 75.999 -21c54 0 87.667 23.333 101 70c6.66699 21.333 10 72.333 10 153v1524c1.33301 74.667 2.66602 119.5 3.99902 134.5s4.66602 29.833 9.99902 44.5c22 56.667 69 85 141 85c28 0 58.333 -7.66699 91 -23l-19 -35
c-26.667 14 -52 21 -76 21c-54 0 -87.667 -23.333 -101 -70c-6.66699 -22 -10 -73 -10 -153v-1524c-0.666992 -74 -1.66699 -118.5 -3 -133.5s-5 -30.167 -11 -45.5c-22 -56.667 -69 -85 -141 -85c-28 0 -58 7.66699 -90 23z" />
    <glyph glyph-name="approxequal" unicode="&#x2248;" 
d="M59 712l-33.998 21.001c26 45.333 51.333 81.333 76 108c50.667 55.333 110.334 83 179.001 83c53.333 0 134.333 -30 243 -90c59.333 -32.667 103.666 -54.5 132.999 -65.5s58 -16.5 86 -16.5c44 0 82.667 13.167 116 39.5s68.666 71.5 105.999 135.5l34 -21
c-39.333 -68 -78.833 -116.833 -118.5 -146.5s-84.834 -44.5 -135.501 -44.5c-32.667 0 -66 6.66699 -100 20s-94.667 43.666 -182 90.999c-76 41.333 -137 62 -183 62c-42.667 0 -81 -13.667 -115 -41s-69 -72.333 -105 -135zM59.002 439.001l-33.9961 21
c39.333 67.333 78.833 115.833 118.5 145.5s85.167 44.5 136.5 44.5c54 0 135 -29.667 243 -89c59.333 -32.667 103.666 -54.5 132.999 -65.5s58 -16.5 86 -16.5c44 0 82.667 13.167 116 39.5s68.666 71.5 105.999 135.5l34 -21c-39.333 -68 -78.833 -116.833 -118.5 -146.5
s-84.834 -44.5 -135.501 -44.5c-32.667 0 -66.334 6.83301 -101.001 20.5s-95 43.5 -181 89.5c-76 41.333 -137 62 -183 62c-42 0 -80.167 -13.5 -114.5 -40.5s-69.5 -71.833 -105.5 -134.5z" />
    <glyph glyph-name="notequal" unicode="&#x2260;" 
d="M577 836l112 240h42l-112 -240h338v-34h-356l-109 -239h465v-34h-483l-124 -270h-43l125 270h-364v34h381l110 239h-491v34h509z" />
    <glyph glyph-name="lessequal" unicode="&#x2264;" 
d="M955 1134v-42l-841 -360l841 -360v-42l-887 381v42zM955 268v-37h-887v37h887z" />
    <glyph glyph-name="greaterequal" unicode="&#x2265;" 
d="M68 330v42l841 360l-841 360v42l887 -381v-42zM68 231v37h887v-37h-887z" />
    <glyph glyph-name="lozenge" unicode="&#x25ca;" horiz-adv-x="1365" 
d="M683 1419l531 -736l-531 -736l-532 736zM683 1238l-404 -555l404 -554l403 554z" />
    <glyph glyph-name="apple" unicode="&#xf000;" horiz-adv-x="1365" 
d="M984 1416l-0.000976562 -21.001c0 -107.333 -42.333 -195.666 -127 -264.999c-32 -26 -60.667 -44 -86 -54s-55.666 -15 -90.999 -15c2 97.333 30.167 177.833 84.5 241.5s127.5 101.5 219.5 113.5zM1277 935.999c-43.333 -33.333 -76.001 -64 -98.001 -92
c-44.667 -56.667 -67 -121 -67 -193c0 -68.667 18 -130 54 -184s85.667 -94.667 149 -122c-43.333 -107.333 -89.666 -192.666 -138.999 -255.999c-73.333 -95.333 -142.666 -143 -207.999 -143c-20 0 -36.833 2.16699 -50.5 6.5s-51.834 19.5 -114.501 45.5
c-10.667 4.66699 -36.667 7 -78 7c-34.667 0 -59.667 -1.83301 -75 -5.5s-51 -16.834 -107 -39.501c-28 -11.333 -54.333 -17 -79 -17c-36.667 0 -74.667 14.5 -114 43.5s-76.666 70.167 -111.999 123.5c-48.667 72 -88 149 -118 231c-36 99.333 -54 195.333 -54 288
c0 122 33.333 226.667 100 314c68.667 89.333 163 134 283 134c44 0 96.667 -12 158 -36c45.333 -17.333 77.666 -26 96.999 -26c23.333 0 53 7 89 21c53.333 20 90.5 32.5 111.5 37.5s46.5 7.5 76.5 7.5c126 0 224.667 -48.333 296 -145z" />
    <glyph glyph-name="fi" unicode="&#xf001;" horiz-adv-x="786" 
d="M441 1365v-37c-28.667 3.33301 -54.334 5 -77.001 5c-70 0 -117.333 -24 -142 -72c-9.33301 -19.333 -15.166 -40.333 -17.499 -63s-3.5 -72.667 -3.5 -150v-69h213v-36h-213v-943h-39v943h-171v36h171v119c0 95.333 12 161.333 36 198c32 50 89.667 75 173 75
c20 0 43.333 -2 70 -6zM664 1368v-197h-39v197h39zM664 979v-979h-39v979h39z" />
    <glyph glyph-name="fl" unicode="&#xf002;" horiz-adv-x="786" 
d="M441 1365v-37c-28.667 3.33301 -54.334 5 -77.001 5c-70 0 -117.333 -24 -142 -72c-9.33301 -19.333 -15.166 -40.333 -17.499 -63s-3.5 -72.667 -3.5 -150v-69h213v-36h-213v-943h-39v943h-171v36h171v119c0 95.333 12 161.333 36 198c32 50 89.667 75 173 75
c20 0 43.333 -2 70 -6zM664 1365v-1365h-39v1365h39z" />
    <glyph glyph-name="glyph1" horiz-adv-x="0" 
 />
    <glyph glyph-name="glyph2" horiz-adv-x="512" 
 />
    <glyph glyph-name="glyph172" horiz-adv-x="1120" 
 />
    <glyph glyph-name="glyph226" horiz-adv-x="512" 
 />
    <glyph glyph-name="glyph227" horiz-adv-x="512" 
 />
    <glyph glyph-name="glyph228" horiz-adv-x="512" 
 />
    <glyph glyph-name="glyph229" horiz-adv-x="512" 
 />
    <glyph glyph-name="glyph230" horiz-adv-x="512" 
 />
    <glyph glyph-name="glyph231" horiz-adv-x="512" 
 />
    <glyph glyph-name="glyph232" horiz-adv-x="512" 
 />
    <glyph glyph-name="glyph233" horiz-adv-x="512" 
 />
    <glyph glyph-name="glyph234" horiz-adv-x="512" 
 />
    <glyph glyph-name="glyph235" horiz-adv-x="512" 
 />
    <glyph glyph-name="glyph236" horiz-adv-x="512" 
 />
    <glyph glyph-name="glyph237" horiz-adv-x="512" 
 />
    <glyph glyph-name="glyph238" horiz-adv-x="512" 
 />
    <glyph glyph-name="glyph239" horiz-adv-x="512" 
 />
    <glyph glyph-name="glyph240" horiz-adv-x="512" 
 />
    <glyph glyph-name="glyph241" horiz-adv-x="512" 
 />
    <glyph glyph-name="glyph242" horiz-adv-x="512" 
 />
    <glyph glyph-name="glyph243" horiz-adv-x="512" 
 />
    <glyph glyph-name="glyph244" horiz-adv-x="512" 
 />
    <glyph glyph-name="glyph245" horiz-adv-x="512" 
 />
    <glyph glyph-name="glyph246" horiz-adv-x="512" 
 />
    <glyph glyph-name="glyph247" horiz-adv-x="512" 
 />
    <glyph glyph-name="glyph248" horiz-adv-x="512" 
 />
    <glyph glyph-name="glyph249" horiz-adv-x="512" 
 />
    <glyph glyph-name="glyph250" horiz-adv-x="512" 
 />
    <glyph glyph-name="glyph251" horiz-adv-x="512" 
 />
    <glyph glyph-name="glyph252" horiz-adv-x="512" 
 />
    <glyph glyph-name="glyph253" horiz-adv-x="512" 
 />
    <glyph glyph-name="glyph254" horiz-adv-x="512" 
 />
    <glyph glyph-name="glyph255" horiz-adv-x="512" 
 />
    <glyph glyph-name="glyph256" horiz-adv-x="512" 
 />
    <glyph glyph-name="glyph257" horiz-adv-x="512" 
 />
    <glyph glyph-name="glyph294" 
d="M652 1690v-178h-39v178h39zM412 1690v-178h-39v178h39z" />
    <glyph glyph-name="glyph295" 
d="M531 1690v-178h-39v178h39z" />
    <glyph glyph-name="glyph296" 
d="M757 1713c-6.66699 -43.333 -18.6699 -79.665 -36.0029 -108.998c-46.667 -77.333 -115.334 -116 -206.001 -116c-65.333 0 -120.166 20.667 -164.499 62s-70.166 95.666 -77.499 162.999h39c6.66699 -42.667 19 -76.667 37 -102c39.333 -58 95 -87 167 -87
c54.667 0 99.334 16.167 134.001 48.5s57.334 79.166 68.001 140.499h39z" />
    <glyph glyph-name="glyph297" 
d="M236 1728h53l223 -212l223 212h53l-251 -247h-50z" />
    <glyph glyph-name="glyph298" 
d="M788 1481h-53l-223 212l-223 -212h-53l251 247h50z" />
    <glyph glyph-name="glyph299" 
d="M249 1722h57l278 -241h-51z" />
    <glyph glyph-name="glyph300" 
d="M775 1722l-284 -241h-51l278 241h57z" />
    <glyph glyph-name="glyph301" 
d="M637 1368v-198h-39v198h39zM425 1368v-198h-39v198h39z" />
    <glyph glyph-name="glyph302" 
d="M723 1690v-178h-39v178h39zM340 1690v-178h-39v178h39z" />
    <glyph glyph-name="glyph303" 
d="M770 1668c-22.667 -96.667 -66.6689 -145 -132.002 -145c-35.333 0 -76.666 18.333 -123.999 55c-33.333 25.333 -58 42.166 -74 50.499s-32.333 12.5 -49 12.5c-52.667 0 -85.667 -39 -99 -117h-38c8.66699 46.667 25.334 83.834 50.001 111.501s54 41.5 88 41.5
s77 -20 129 -60c49.333 -38.667 89.333 -58 120 -58c41.333 0 71.333 36.333 90 109h39z" />
    <glyph glyph-name="glyph304" horiz-adv-x="512" 
 />
  </font>
</defs>
</svg>
