<?xml version="1.0" standalone="no"?>
<!DOCTYPE svg PUBLIC "-//W3C//DTD SVG 1.1//EN" "http://www.w3.org/Graphics/SVG/1.1/DTD/svg11.dtd" >
<svg>
<metadata>
Created by FontForge 20090914 at Wed Nov 26 19:39:06 2014
 By www-data
URW Software, Copyright 1994 by URW
</metadata>
<defs>
<font id="NimbusSanL-Bold" horiz-adv-x="556" >
  <font-face 
    font-family="Nimbus Sans L"
    font-weight="700"
    font-stretch="normal"
    units-per-em="1000"
    panose-1="2 0 5 3 4 0 0 2 0 4"
    ascent="800"
    descent="-200"
    x-height="540"
    cap-height="729"
    bbox="-173 -234 1003 949"
    underline-thickness="69"
    underline-position="-87"
    unicode-range="U+0020-U+FB02"
  />
<missing-glyph horiz-adv-x="278" 
 />
    <glyph glyph-name=".notdef" horiz-adv-x="278" 
 />
    <glyph glyph-name="space" unicode=" " horiz-adv-x="278" 
 />
    <glyph glyph-name="exclam" unicode="!" horiz-adv-x="333" 
d="M262 516l-42 -309h-67l-41 309v210h150v-210zM262 0h-150v146h150v-146z" />
    <glyph glyph-name="quotedbl" unicode="&#x22;" horiz-adv-x="474" 
d="M188 599l-42 -129h-56l-40 129v130h138v-130zM424 599l-42 -129h-56l-40 129v130h138v-130z" />
    <glyph glyph-name="numbersign" unicode="#" 
d="M40 -32l40 204h-77v99h97l30 153h-99v99h119l34 174h105l-34 -174h103l34 174h105l-34 -174h90v-99h-109l-31 -153h100v-99h-119l-40 -204h-105l40 204h-103l-40 -204h-106zM308 271l30 153h-103l-30 -153h103z" />
    <glyph glyph-name="dollar" unicode="$" 
d="M389 498c1.33301 30.667 -4.99902 55.832 -18.999 75.499s-33.667 31.167 -59 34.5v-201c38.667 -10.667 71.834 -22.5 99.501 -35.5s50 -28 67 -45s29.5 -36.333 37.5 -58s12 -46.167 12 -73.5c0 -39.333 -7.83301 -74.5 -23.5 -105.5s-38.167 -55.167 -67.5 -72.5
c-30.667 -19.333 -72.334 -32 -125.001 -38v-105h-68v105c-31.333 3.33301 -57.5 8.66602 -78.5 15.999s-41.167 18.333 -60.5 33c-26 19.333 -46.167 43.333 -60.5 72s-21.5 59 -21.5 91v16h131c3.33301 -70.667 33.333 -111 90 -121v213c-136 31.333 -204 102 -204 212
c0 56.667 17.833 102.334 53.5 137.001s85.834 55 150.501 61v54h68v-54c63.333 -3.33301 113.166 -23.666 149.499 -60.999s55.166 -87.333 56.499 -150h-128zM243.001 607.998c-54 -10.667 -81 -41.333 -81 -92c0 -22 6.5 -40 19.5 -54s33.5 -25.667 61.5 -35v181z
M311.001 85.999c56 14 84 46.333 84 97c0 48.667 -28 81.667 -84 99v-196z" />
    <glyph glyph-name="percent" unicode="%" horiz-adv-x="889" 
d="M208 701c24.667 0 48.166 -4.83398 70.499 -14.501s41.666 -22.667 57.999 -39s29.333 -35.666 39 -57.999s14.5 -45.833 14.5 -70.5c0 -25.333 -4.83301 -49 -14.5 -71s-22.834 -41.333 -39.501 -58s-36.167 -29.667 -58.5 -39s-46.166 -14 -71.499 -14
s-49.166 4.83301 -71.499 14.5s-41.833 22.667 -58.5 39s-29.834 35.5 -39.501 57.5s-14.5 45.667 -14.5 71s4.83301 49 14.5 71s22.834 41.333 39.501 58s36.334 29.667 59.001 39s47 14 73 14zM204.999 601.999c-23.333 0 -43.167 -8.16406 -59.5 -24.4971
s-24.5 -35.833 -24.5 -58.5c0 -23.333 8.33301 -43.166 25 -59.499s36.667 -24.5 60 -24.5c12 0 23.167 2.16699 33.5 6.5s19.333 10.166 27 17.499s13.667 16.166 18 26.499s6.5 21.166 6.5 32.499c0 23.333 -8.33301 43.166 -25 59.499s-37 24.5 -61 24.5z
M681.998 709.002l-395 -729h-77l396 729h76zM680.998 352.002c24.667 0 48.166 -4.83008 70.499 -14.4971s41.666 -22.834 57.999 -39.501s29.333 -36.167 39 -58.5s14.5 -45.833 14.5 -70.5c0 -25.333 -4.83301 -49 -14.5 -71s-22.834 -41.167 -39.501 -57.5
s-36.167 -29.333 -58.5 -39s-46.166 -14.5 -71.499 -14.5s-49.166 4.83301 -71.499 14.5s-41.833 22.667 -58.5 39s-29.834 35.5 -39.501 57.5s-14.5 45.667 -14.5 71s4.83301 49.166 14.5 71.499s22.834 41.666 39.501 57.999s36.334 29.333 59.001 39s47 14.5 73 14.5z
M677.997 253.005c-23.333 0 -43.167 -8.16699 -59.5 -24.5s-24.5 -36.166 -24.5 -59.499c0 -11.333 2.16699 -22.166 6.5 -32.499s10.333 -19.333 18 -27s16.667 -13.667 27 -18s21.5 -6.5 33.5 -6.5s23.167 2.16699 33.5 6.5s19.333 10.333 27 18s13.667 16.667 18 27
s6.5 21.166 6.5 32.499c0 23.333 -8.33301 43.166 -25 59.499s-37 24.5 -61 24.5z" />
    <glyph glyph-name="ampersand" unicode="&#x26;" horiz-adv-x="722" 
d="M639 373l0.000976562 -11.001v-5c-1.33301 -38.667 -8 -76.334 -20 -113.001s-28 -66.667 -48 -90l123 -154h-161l-46 56c-20.667 -15.333 -39.167 -28 -55.5 -38s-32 -18 -47 -24s-29.833 -10.333 -44.5 -13s-30.667 -4 -48 -4c-35.333 0 -67.666 5.16699 -96.999 15.5
s-54.333 25 -75 44s-36.667 41.667 -48 68s-17 55.833 -17 88.5c0 23.333 2.66699 44.5 8 63.5s14.166 36.667 26.499 53s28.5 31.833 48.5 46.5s44.667 29.667 74 45l-12 15l-28 34c-28 32.667 -42 68 -42 106c0 24 4.83301 46.167 14.5 66.5s23 38 40 53s37 26.667 60 35
s47.833 12.5 74.5 12.5s51 -3.66699 73 -11s40.667 -17.833 56 -31.5s27.333 -30 36 -49s13 -39.833 13 -62.5c0 -18.667 -2 -35.5 -6 -50.5s-10.5 -29.333 -19.5 -43s-21 -27.167 -36 -40.5s-33.5 -27.666 -55.5 -42.999l116 -144c11.333 21.333 19.166 40.333 23.499 57
s6.5 36.334 6.5 59.001v9h113zM231.001 289.999c-13.333 -9.33301 -23.833 -20.8311 -31.5 -34.498s-11.5 -28.834 -11.5 -45.501c0 -15.333 3 -30 9 -44s14 -26.333 24 -37s21.333 -19.334 34 -26.001s25.667 -10 39 -10c32 0 72 18.333 120 55l-136 171zM317.001 470.001
c40 22.667 60 51.6689 60 87.002c0 18 -5 32 -15 42s-24 15 -42 15c-17.333 0 -31.333 -4.33301 -42 -13s-16 -20.334 -16 -35.001c0 -6 0.5 -11.5 1.5 -16.5s3.33301 -10.833 7 -17.5s9.16699 -14.834 16.5 -24.501s17.333 -22.167 30 -37.5z" />
    <glyph glyph-name="quotesingle" unicode="'" horiz-adv-x="238" 
d="M188 599l-42 -129h-56l-40 129v130h138v-130z" />
    <glyph glyph-name="parenleft" unicode="(" horiz-adv-x="333" 
d="M303 729c-26.667 -51.333 -48.834 -97.333 -66.501 -138s-32 -79 -43 -115s-18.833 -71 -23.5 -105s-7 -69.333 -7 -106c0 -37.333 2.33301 -72.833 7 -106.5s12.334 -68.5 23.001 -104.5s25 -74.5 43 -115.5s40.333 -87.167 67 -138.5h-100
c-28.667 43.333 -53.334 84.666 -74.001 123.999s-37.5 77.833 -50.5 115.5s-22.667 75 -29 112s-9.5 74.833 -9.5 113.5s3.16699 76.334 9.5 113.001s16 73.834 29 111.501s29.833 76.167 50.5 115.5s45.334 80.666 74.001 123.999h100z" />
    <glyph glyph-name="parenright" unicode=")" horiz-adv-x="333" 
d="M22 -200c26.667 50.667 48.834 96.5 66.501 137.5s32 79.5 43 115.5s18.833 71 23.5 105s7 69.333 7 106s-2.33301 72 -7 106s-12.334 69 -23.001 105s-25 74.5 -43 115.5s-40.333 87.167 -67 138.5h100c28.667 -43.333 53.334 -84.666 74.001 -123.999
s37.5 -77.833 50.5 -115.5s22.667 -75 29 -112s9.5 -74.833 9.5 -113.5s-3.16699 -76.334 -9.5 -113.001s-16 -73.834 -29 -111.501s-29.833 -76.167 -50.5 -115.5s-45.334 -80.666 -74.001 -123.999h-100z" />
    <glyph glyph-name="asterisk" unicode="*" horiz-adv-x="389" 
d="M23 580l22 69l109 -36v116h72v-116l109 36l22 -70l-109 -35l67 -94l-58 -43l-67 94l-67 -94l-58 43l67 94z" />
    <glyph glyph-name="plus" unicode="+" horiz-adv-x="584" 
d="M533 172h-182v-182h-119v182h-182v119h182v182h119v-182h182v-119z" />
    <glyph glyph-name="comma" unicode="," horiz-adv-x="278" 
d="M214 146l-0.00195312 -137.001c0 -40 -4.16699 -70.833 -12.5 -92.5s-23.5 -40.5 -45.5 -56.5c-13.333 -9.33301 -27.166 -16.666 -41.499 -21.999s-31.166 -9.33301 -50.499 -12v56c59.333 10.667 88 50 86 118h-86v146h150z" />
    <glyph glyph-name="hyphen" unicode="-" horiz-adv-x="333" 
d="M298 207h-272v135h272v-135z" />
    <glyph glyph-name="period" unicode="." horiz-adv-x="278" 
d="M214 0h-150v146h150v-146z" />
    <glyph glyph-name="slash" unicode="/" horiz-adv-x="278" 
d="M275 714l-206 -728h-67l206 728h67z" />
    <glyph glyph-name="zero" unicode="0" 
d="M276 724c41.333 0 79 -9.66699 113 -29s61 -46.333 81 -81c31.333 -54.667 47 -142.667 47 -264c0 -70.667 -5.16699 -129.167 -15.5 -175.5s-26.5 -83.5 -48.5 -111.5c-43.333 -57.333 -103.333 -86 -180 -86c-42.667 0 -81 9.5 -115 28.5s-61.333 46.167 -82 81.5
c-31.333 52.667 -47 140.667 -47 264c0 70.667 5.16699 129.167 15.5 175.5s26.5 83.5 48.5 111.5c44 57.333 105 86 183 86zM272 611c-20 0 -37.5 -6.16797 -52.5 -18.501s-26.167 -29.833 -33.5 -52.5c-2.66699 -7.33301 -5 -17.5 -7 -30.5s-3.83301 -28 -5.5 -45
s-2.83398 -35.167 -3.50098 -54.5s-1 -39 -1 -59c0 -50 2 -92.333 6 -127s10 -59.667 18 -75c17.333 -34.667 44 -52 80 -52c42.667 0 71.667 23 87 69c2.66699 7.33301 5 17.333 7 30s3.66699 27.334 5 44.001s2.5 34.5 3.5 53.5s1.5 38.5 1.5 58.5
c0 50 -2.16699 93 -6.5 129s-10.166 61.667 -17.499 77c-17.333 35.333 -44.333 53 -81 53z" />
    <glyph glyph-name="one" unicode="1" 
d="M68 489v93c122.667 0 195 42.333 217 127h93v-709h-140v489h-170z" />
    <glyph glyph-name="two" unicode="2" 
d="M512 0l-481.998 0.000976562c2 32.667 6 61.667 12 87s15.167 48.5 27.5 69.5s28.666 41 48.999 60s45.5 38.833 75.5 59.5c39.333 28 70.833 51.5 94.5 70.5s42 36.333 55 52s21.5 30.834 25.5 45.501s6 32 6 52c0 36 -8.83301 64 -26.5 84s-42.167 30 -73.5 30
c-32.667 0 -57.667 -11 -75 -33s-26 -53.667 -26 -95v-20h-134c-0.666992 5.33301 -1 10 -1 14v11c0 75.333 20.333 133.666 61 174.999s98 62 172 62c37.333 0 71 -5.33301 101 -16s55.5 -25.667 76.5 -45s37.167 -43 48.5 -71s17 -59 17 -93
c0 -24 -2.5 -45.833 -7.5 -65.5s-13.667 -38.667 -26 -57s-28.666 -36.833 -48.999 -55.5s-45.833 -39.334 -76.5 -62.001l-63.5 -47c-16.333 -12.667 -29.833 -23.834 -40.5 -33.501s-18.834 -18.667 -24.501 -27s-10.834 -17.166 -15.501 -26.499h300v-125z" />
    <glyph glyph-name="three" unicode="3" 
d="M217 411h15.002c80.667 0 121 35.667 121 107c0 30 -7.66699 53 -23 69s-37 24 -65 24c-21.333 0 -39.5 -4.66699 -54.5 -14s-25.833 -22.333 -32.5 -39c-3.33301 -8.66699 -5.66602 -18.334 -6.99902 -29.001s-2.33301 -25 -3 -43h-130
c0 14.667 0.333008 27.334 1 38.001s1.66699 20.334 3 29.001s3 16.834 5 24.501s4.66699 15.834 8 24.501c15.333 38.667 41.666 68.667 78.999 90s82 32 134 32c34 0 65 -4.5 93 -13.5s51.667 -21.833 71 -38.5s34.333 -37 45 -61s16 -50.667 16 -80
c0 -32.667 -7.33301 -60.834 -22 -84.501s-38.334 -45.834 -71.001 -66.501c40 -19.333 69.333 -43 88 -71s28 -63 28 -105c0 -34.667 -5.83301 -66 -17.5 -94s-28.334 -51.833 -50.001 -71.5s-47.667 -34.834 -78 -45.501s-64.166 -16 -101.499 -16
c-74 0 -132.333 20.667 -175 62s-64.334 97.666 -65.001 168.999h136c4 -74 39.333 -111 106 -111c31.333 0 56.666 9.83301 75.999 29.5s29 45.5 29 77.5c0 26 -7 48.5 -21 67.5s-32.667 31.833 -56 38.5c-6 2 -11.167 3.33301 -15.5 4s-9.16602 1.33398 -14.499 2.00098
s-12 1 -20 1h-32v94z" />
    <glyph glyph-name="four" unicode="4" 
d="M522 157h-74v-157h-140v157h-284v118l259 434h165v-436h74v-116zM308 576l-185 -303h185v303z" />
    <glyph glyph-name="five" unicode="5" 
d="M489 584l-293.001 0.00292969l-23 -148c20.667 15.333 40.5 26.333 59.5 33s40.167 10 63.5 10c32.667 0 62.5 -6 89.5 -18s50.333 -28.667 70 -50s34.834 -47 45.501 -77s16 -63.333 16 -100c0 -38 -6.16699 -72.833 -18.5 -104.5s-29.833 -58.834 -52.5 -81.501
s-49.667 -40.167 -81 -52.5s-66 -18.5 -104 -18.5c-34.667 0 -66.167 5 -94.5 15s-52.833 24.167 -73.5 42.5s-36.667 40.166 -48 65.499s-17.333 53.666 -18 84.999h138c3.33301 -58.667 36 -88 98 -88c36 0 64 11.833 84 35.5s30 56.5 30 98.5c0 43.333 -10 77 -30 101
s-48 36 -84 36c-44.667 0 -74.667 -18 -90 -54h-126l63 395h379v-125z" />
    <glyph glyph-name="six" unicode="6" 
d="M377 548c-9.33301 22.667 -20.498 38.835 -33.498 48.502s-30.833 14.5 -53.5 14.5c-28 0 -51.5 -8.83301 -70.5 -26.5s-31.833 -42.834 -38.5 -75.501c-1.33301 -7.33301 -2.5 -13.5 -3.5 -18.5s-1.66699 -10.667 -2 -17s-0.833008 -14.833 -1.5 -25.5
s-1.33398 -25.334 -2.00098 -44.001c22 22.667 43.667 38.834 65 48.501s46.333 14.5 75 14.5c30.667 0 58.667 -5.66699 84 -17s47.166 -27 65.499 -47s32.5 -44.167 42.5 -72.5s15 -59.5 15 -93.5c0 -38.667 -5.66699 -74 -17 -106s-27.5 -59.333 -48.5 -82
s-46 -40.334 -75 -53.001s-61.167 -19 -96.5 -19c-42 0 -80.5 9.16699 -115.5 27.5s-62.833 44.166 -83.5 77.499c-18 28.667 -31 63 -39 103s-12 90.667 -12 152c0 32 1.16699 61.333 3.5 88s5.83301 51 10.5 73s10.667 42.5 18 61.5s16.333 37.167 27 54.5
c21.333 36 49.5 63.333 84.5 82s74.833 28 119.5 28c39.333 0 74.833 -7.33301 106.5 -22s56.5 -35.667 74.5 -63c8 -12.667 14.333 -25.667 19 -39s8.66699 -30.666 12 -51.999h-130zM277.002 356.001c-32 0 -57.833 -12.167 -77.5 -36.5s-29.5 -55.833 -29.5 -94.5
c0 -38 10 -68.833 30 -92.5s46 -35.5 78 -35.5c16 0 30.5 3.33301 43.5 10s24.333 15.667 34 27s17.167 25 22.5 41s8 33.667 8 53c0 40 -9.66699 71.333 -29 94s-46 34 -80 34z" />
    <glyph glyph-name="seven" unicode="7" 
d="M528 599c-42 -50.667 -78.1689 -99.834 -108.502 -147.501s-55.833 -95.667 -76.5 -144s-36.5 -97.666 -47.5 -147.999s-18.167 -103.5 -21.5 -159.5h-141c6.66699 60 16.334 115.5 29.001 166.5s28.834 99.5 48.501 145.5s43.5 91 71.5 135s61.333 89.667 100 137h-353
v125h499v-110z" />
    <glyph glyph-name="eight" unicode="8" 
d="M409 386c41.333 -22.667 71.001 -48.1689 89.001 -76.502s27 -63.5 27 -105.5c0 -33.333 -6.16699 -64 -18.5 -92s-29.5 -52 -51.5 -72s-48.5 -35.5 -79.5 -46.5s-64.833 -16.5 -101.5 -16.5c-37.333 0 -71.5 5.5 -102.5 16.5s-57.5 26.5 -79.5 46.5s-39.167 44 -51.5 72
s-18.5 58.667 -18.5 92c0 42 9 77.167 27 105.5s47.667 53.833 89 76.5c-32 17.333 -55.333 37.333 -70 60s-22 51 -22 85c0 28 5.66699 53.833 17 77.5s27.166 44 47.499 61s44.333 30.333 72 40s58.167 14.5 91.5 14.5c32.667 0 62.834 -4.83301 90.501 -14.5
s51.667 -23 72 -40s36.166 -37.167 47.499 -60.5s17 -49 17 -77c0 -23.333 -4 -45.166 -12 -65.499s-19.333 -37.166 -34 -50.499c-5.33301 -5.33301 -11.333 -10 -18 -14zM273.001 610.998c-30.667 0 -55.666 -8.5 -74.999 -25.5s-29 -39.167 -29 -66.5
c0 -28 9.66699 -50.667 29 -68s45 -26 77 -26c31.333 0 56.666 8.66699 75.999 26s29 40 29 68s-9.83301 50.333 -29.5 67s-45.5 25 -77.5 25zM272.002 329.998c-34 0 -60.833 -10.667 -80.5 -32s-29.5 -50 -29.5 -86c0 -35.333 10 -63.333 30 -84s47 -31 81 -31
c34.667 0 62 10.167 82 30.5s30 48.5 30 84.5c0 36.667 -10 65.5 -30 86.5s-47.667 31.5 -83 31.5z" />
    <glyph glyph-name="nine" unicode="9" 
d="M173 165c1.33301 -21.333 9.66797 -38.166 25.001 -50.499s35.666 -18.5 60.999 -18.5c40 0 69.5 16.5 88.5 49.5s28.5 83.833 28.5 152.5c-11.333 -13.333 -19.833 -22.833 -25.5 -28.5s-11.834 -10.834 -18.501 -15.501c-11.333 -8 -25 -14.333 -41 -19s-33 -7 -51 -7
c-31.333 0 -60 6 -86 18s-48.333 28.833 -67 50.5s-33.167 47.5 -43.5 77.5s-15.5 63.333 -15.5 100s5.83301 70.334 17.5 101.001s28 57 49 79s46 39.167 75 51.5s61.167 18.5 96.5 18.5c44 0 83.5 -10.333 118.5 -31s63.5 -50.667 85.5 -90
c30.667 -54 46 -131.333 46 -232c0 -59.333 -5.5 -114.5 -16.5 -165.5s-26.167 -92.5 -45.5 -124.5c-21.333 -34.667 -48.833 -60.834 -82.5 -78.501s-72.5 -26.5 -116.5 -26.5c-30.667 0 -59 4.66699 -85 14s-48.667 22.5 -68 39.5s-34.666 37 -45.999 60
s-17.333 48.167 -18 75.5h135zM262.002 610c-31.333 0 -56.001 -12.001 -74.001 -36.001s-27 -56.667 -27 -98s9.33301 -73.666 28 -96.999s44 -35 76 -35c32.667 0 58.834 11.833 78.501 35.5s29.5 55.5 29.5 95.5c0 42 -10 75 -30 99s-47 36 -81 36z" />
    <glyph glyph-name="colon" unicode=":" horiz-adv-x="333" 
d="M263 0h-150v146h150v-146zM263 374h-150v146h150v-146z" />
    <glyph glyph-name="semicolon" unicode=";" horiz-adv-x="333" 
d="M263 146l-0.00195312 -137.001c0 -40 -4.16699 -70.833 -12.5 -92.5s-23.5 -40.5 -45.5 -56.5c-13.333 -9.33301 -27.166 -16.666 -41.499 -21.999s-31.166 -9.33301 -50.499 -12v56c59.333 10.667 88 50 86 118h-86v146h150zM262.998 373.999h-150v146h150v-146z" />
    <glyph glyph-name="less" unicode="&#x3c;" horiz-adv-x="584" 
d="M529 365l-382 -133l382 -131v-111l-489 182v121l489 181v-109z" />
    <glyph glyph-name="equal" unicode="=" horiz-adv-x="584" 
d="M534 292h-484v119h484v-119zM534 52h-484v119h484v-119z" />
    <glyph glyph-name="greater" unicode="&#x3e;" horiz-adv-x="584" 
d="M40 99l382 133l-382 131v111l489 -182v-121l-489 -181v109z" />
    <glyph glyph-name="question" unicode="?" horiz-adv-x="611" 
d="M245 201c-0.666992 21.333 0.330078 40.4971 2.99707 57.4971s7.83398 33 15.501 48s18.167 29.833 31.5 44.5s30 30.667 50 48c14.667 12 26.5 22.5 35.5 31.5s16 17.5 21 25.5s8.5 16.333 10.5 25s3 18.667 3 30c0 33.333 -9.83301 60.833 -29.5 82.5
s-44.5 32.5 -74.5 32.5c-34.667 0 -61.834 -12.833 -81.501 -38.5s-29.5 -61.167 -29.5 -106.5h-136c0.666992 42.667 4.83398 77.667 12.501 105s20.5 52 38.5 74c44.667 56 108.667 84 192 84c36.667 0 70.334 -5.66699 101.001 -17s57 -27 79 -47s39 -44.167 51 -72.5
s18 -59.5 18 -93.5c0 -21.333 -1.83301 -40.166 -5.5 -56.499s-10.167 -32 -19.5 -47s-21.666 -29.667 -36.999 -44s-34.666 -29.833 -57.999 -46.5c-15.333 -10.667 -27.333 -19.667 -36 -27s-15.334 -15.166 -20.001 -23.499s-7.66699 -17.666 -9 -27.999
s-2 -23.833 -2 -40.5h-124zM384.997 -0.00292969h-150v146h150v-146z" />
    <glyph glyph-name="at" unicode="@" horiz-adv-x="975" 
d="M734 508l-78.002 -280.004c-2 -7.33301 -3.5 -13.166 -4.5 -17.499l-2.5 -10.5c-0.666992 -2.66699 -1 -5 -1 -7v-8c0 -14.667 4.33301 -26.334 13 -35.001s20.667 -13 36 -13c18 0 37.167 6.83301 57.5 20.5s38.833 32.5 55.5 56.5c15.333 22 27.166 46.5 35.499 73.5
s12.5 54.5 12.5 82.5c0 78.667 -32.667 147.334 -98 206.001c-35.333 31.333 -73.166 54.5 -113.499 69.5s-85.5 22.5 -135.5 22.5c-116.667 0 -211.334 -42 -284.001 -126c-32.667 -38 -58 -81 -76 -129s-27 -97 -27 -147c0 -101.333 39.333 -182.666 118 -243.999
c34 -26.667 71.833 -46.834 113.5 -60.501s85.5 -20.5 131.5 -20.5c36 0 72.167 3.5 108.5 10.5s68.833 16.833 97.5 29.5l28 -73c-35.333 -15.333 -71.666 -26.666 -108.999 -33.999s-80 -11 -128 -11c-64 0 -120.667 7.66699 -170 23s-94.666 39.333 -135.999 72
c-48 38 -85.167 83.5 -111.5 136.5s-39.5 109.833 -39.5 170.5c0 28.667 3.33301 58.167 10 88.5s16.167 60 28.5 89s27.333 57 45 84s37.5 51.833 59.5 74.5c46 48 98 84 156 108s121 36 189 36c64 0 122.833 -10.5 176.5 -31.5s101.834 -52.167 144.501 -93.5
c38 -37.333 66 -77.333 84 -120s27 -91 27 -145c0 -83.333 -29 -157 -87 -221c-23.333 -25.333 -49 -44.666 -77 -57.999s-56.667 -20 -86 -20c-32 0 -58.833 6.66699 -80.5 20s-36.5 31.666 -44.5 54.999c-19.333 -23.333 -42.166 -41.666 -68.499 -54.999
s-53.5 -20 -81.5 -20c-22.667 0 -44 4.5 -64 13.5s-37.333 21.167 -52 36.5s-26.334 33.333 -35.001 54s-13 43 -13 67c0 34 6.5 68.5 19.5 103.5s31.167 67.167 54.5 96.5c22.667 28.667 50.167 51 82.5 67s65.5 24 99.5 24c28 0 51 -5.66699 69 -17s33 -29.666 45 -54.999
l16 62h90zM508.998 446.996c-19.333 0 -38.166 -5.83398 -56.499 -17.501s-34.833 -27 -49.5 -46s-26.334 -40.667 -35.001 -65s-13 -49.166 -13 -74.499c0 -15.333 2.16699 -29.5 6.5 -42.5s10.5 -24.333 18.5 -34s17.5 -17.167 28.5 -22.5s22.833 -8 35.5 -8
c18.667 0 37 6.16699 55 18.5s34.167 28.5 48.5 48.5s25.833 42.667 34.5 68s13 51 13 77c0 30 -7.83301 53.833 -23.5 71.5s-36.5 26.5 -62.5 26.5z" />
    <glyph glyph-name="A" unicode="A" horiz-adv-x="722" 
d="M228 147l-49 -147h-153l259 729h166l252 -729h-154l-48 147h-273zM365 557l-95 -285h190z" />
    <glyph glyph-name="B" unicode="B" horiz-adv-x="722" 
d="M82 729h324.999c39.333 0 72.5 -4.16699 99.5 -12.5s51.167 -21.833 72.5 -40.5c20.667 -18 36.834 -39.333 48.501 -64s17.5 -49.667 17.5 -75c0 -31.333 -7.66699 -58.333 -23 -81s-41 -45.667 -77 -69c42 -24 72.667 -50.5 92 -79.5s29 -61.5 29 -97.5
c0 -30 -6.5 -59 -19.5 -87s-30.5 -51.333 -52.5 -70s-47.667 -32.167 -77 -40.5s-65 -12.5 -107 -12.5h-328v729zM231.999 439h163c70.667 0 106 27.667 106 83c0 54.667 -35.333 82 -106 82h-163v-165zM231.999 125h179c74 0 111 31.333 111 94c0 63.333 -37 95 -111 95
h-179v-189z" />
    <glyph glyph-name="C" unicode="C" horiz-adv-x="722" 
d="M539 482c-10 44.667 -27.5 77.6689 -52.5 99.002s-59.5 32 -103.5 32c-59.333 0 -105.666 -22.667 -138.999 -68s-50 -108.333 -50 -189s16 -143 48 -187s77.333 -66 136 -66c46.667 0 83.834 12.667 111.501 38s44.167 61.333 49.5 108h146
c-2 -42 -10.833 -79.667 -26.5 -113s-37 -61.833 -64 -85.5s-59.167 -41.834 -96.5 -54.501s-78.666 -19 -123.999 -19c-50.667 0 -96.334 8.83301 -137.001 26.5s-75.334 43 -104.001 76s-50.667 73 -66 120s-23 99.833 -23 158.5s7.66699 111.667 23 159
s37.5 87.666 66.5 120.999s64.167 58.833 105.5 76.5s87.666 26.5 138.999 26.5c56.667 0 107.167 -10.5 151.5 -31.5s80.5 -50.833 108.5 -89.5c13.333 -20 23.5 -40.5 30.5 -61.5s11.5 -46.5 13.5 -76.5h-143z" />
    <glyph glyph-name="D" unicode="D" horiz-adv-x="722" 
d="M77 729l284.999 0.00195312c56.667 0 103 -6.5 139 -19.5s66.667 -34.5 92 -64.5c28.667 -34.667 50.5 -75.834 65.5 -123.501s22.5 -99.834 22.5 -156.501c0 -57.333 -7.5 -109.833 -22.5 -157.5s-36.833 -88.5 -65.5 -122.5c-25.333 -30 -56.166 -51.667 -92.499 -65
s-82.5 -20 -138.5 -20h-285v729zM361.999 125.002c112.667 0 169 79.667 169 239c0 160 -56.333 240 -169 240h-135v-479h135z" />
    <glyph glyph-name="E" unicode="E" horiz-adv-x="667" 
d="M229 125h395v-125h-545v729h527v-125h-377v-165h349v-125h-349v-189z" />
    <glyph glyph-name="F" unicode="F" horiz-adv-x="611" 
d="M224 0h-150v729h512v-125h-362v-165h319v-125h-319v-314z" />
    <glyph glyph-name="G" unicode="G" horiz-adv-x="778" 
d="M711 -2l-90 0.000976562l-18 96c-28 -41.333 -59.333 -71.166 -94 -89.499s-76.667 -27.5 -126 -27.5s-94.833 9.5 -136.5 28.5s-77.667 45.5 -108 79.5s-54 74.333 -71 121s-25.5 97.667 -25.5 153c0 56.667 8.5 108.5 25.5 155.5s41 87.167 72 120.5
s68.167 59.333 111.5 78s91.333 28 144 28c44 0 84.333 -5.66699 121 -17s68.667 -27.666 96 -48.999s49.5 -47 66.5 -77s27.833 -64 32.5 -102h-141c-7.33301 19.333 -14.166 34.333 -20.499 45s-15.166 20.667 -26.499 30c-33.333 28 -75.666 42 -126.999 42
c-64.667 0 -114.834 -22.333 -150.501 -67s-53.5 -106.334 -53.5 -185.001c0 -37.333 5.16699 -71.666 15.5 -102.999s24.666 -58.333 42.999 -81s40.166 -40.334 65.499 -53.001s53.333 -19 84 -19c30 0 58.333 6.5 85 19.5s49 30.833 67 53.5
c10 13.333 17.5 26.666 22.5 39.999s8.5 29.666 10.5 48.999h-166v125h292v-394z" />
    <glyph glyph-name="H" unicode="H" horiz-adv-x="722" 
d="M218 331v-331h-150v729h150v-273h288v273h151v-729h-150v331h-289z" />
    <glyph glyph-name="I" unicode="I" horiz-adv-x="278" 
d="M213 0h-150v729h150v-729z" />
    <glyph glyph-name="J" unicode="J" 
d="M486 729l0.000976562 -538.999c0 -68.667 -20.333 -121.334 -61 -158.001s-98.334 -55 -173.001 -55c-68.667 0 -124.334 19.333 -167.001 58c-21.333 20 -36.833 42.667 -46.5 68s-14.5 57 -14.5 95v72h150v-70c0 -34 6.33301 -58.333 19 -73s33.334 -22 62.001 -22
c26 0 46 7.16699 60 21.5s21 35.5 21 63.5v539h150z" />
    <glyph glyph-name="K" unicode="K" horiz-adv-x="722" 
d="M224 0h-150v729h150v-320l285 320h177l-291 -314l322 -415h-179l-239 322l-75 -78v-244z" />
    <glyph glyph-name="L" unicode="L" horiz-adv-x="611" 
d="M230 125h349v-125h-499v729h150v-604z" />
    <glyph glyph-name="M" unicode="M" horiz-adv-x="833" 
d="M216 0h-150v729h224l132 -580l128 580h226v-729h-150v568l-129 -568h-150l-131 568v-568z" />
    <glyph glyph-name="N" unicode="N" horiz-adv-x="722" 
d="M218 504v-504h-150v729h154l289 -496v496h150v-729h-150z" />
    <glyph glyph-name="O" unicode="O" horiz-adv-x="778" 
d="M396 741c50.667 0 97.332 -9.33203 139.999 -27.999s79.167 -44.834 109.5 -78.501s54 -74 71 -121s25.5 -98.5 25.5 -154.5c0 -54.667 -9 -106.5 -27 -155.5s-43 -90.833 -75 -125.5c-62.667 -67.333 -145.667 -101 -249 -101s-186.333 33.667 -249 101
c-32 34.667 -57 76.5 -75 125.5s-27 100.5 -27 154.5c0 55.333 8.83301 107.333 26.5 156s42.834 90.667 75.501 126c32 34.667 68.667 60.167 110 76.5s89.333 24.5 144 24.5zM387.998 613.001c-30 0 -57.1699 -6.16797 -81.5029 -18.501s-45.166 -29.5 -62.499 -51.5
s-30.666 -48.667 -39.999 -80s-14 -66 -14 -104c0 -38.667 4.66699 -73.667 14 -105s22.833 -58 40.5 -80s38.834 -39 63.501 -51s52.334 -18 83.001 -18c30 0 57.5 6 82.5 18s46.167 29 63.5 51s30.833 48.667 40.5 80s14.5 66 14.5 104
c0 38.667 -4.83301 73.834 -14.5 105.501s-23.334 58.5 -41.001 80.5s-39 39 -64 51s-53.167 18 -84.5 18z" />
    <glyph glyph-name="P" unicode="P" horiz-adv-x="667" 
d="M226 0l-150.001 -0.000976562v729h322c76.667 0 135 -19.333 175 -58s60 -94.667 60 -168c0 -37.333 -5.16699 -70.833 -15.5 -100.5s-25 -55.167 -44 -76.5s-42.167 -37.666 -69.5 -48.999s-57.666 -17 -90.999 -17h-187v-260zM365.999 384.999
c40 0 69.5 8.83301 88.5 26.5s28.5 45.5 28.5 83.5c0 37.333 -9.5 64.833 -28.5 82.5s-48.5 26.5 -88.5 26.5h-140v-219h140z" />
    <glyph glyph-name="Q" unicode="Q" horiz-adv-x="778" 
d="M745 27l-76.001 -81l-86 81c-30 -17.333 -59.5 -30 -88.5 -38s-62.5 -12 -100.5 -12c-103.333 0 -186.333 33.667 -249 101c-32 34.667 -57 76.5 -75 125.5s-27 100.833 -27 155.5s8.83301 106.5 26.5 155.5s42.834 90.833 75.501 125.5
c62.667 67.333 145.667 101 249 101s186.333 -33.667 249 -101c32 -34 57 -75.5 75 -124.5s27 -100.5 27 -154.5c0 -24.667 -1.83301 -49.167 -5.5 -73.5s-9 -47.666 -16 -69.999s-15.5 -43.333 -25.5 -63s-21 -36.834 -33 -51.501zM561.999 200
c22 44 33.0039 96.667 33.0039 158c0 38.667 -4.83301 73.667 -14.5 105s-23.167 58.166 -40.5 80.499s-38.333 39.5 -63 51.5s-52.334 18 -83.001 18s-58.334 -6 -83.001 -18s-45.834 -29 -63.501 -51s-31.167 -48.667 -40.5 -80s-14 -66.333 -14 -105
c0 -38 4.83301 -72.667 14.5 -104s23.167 -58.166 40.5 -80.499s38.333 -39.5 63 -51.5s52 -18 82 -18c33.333 0 62.666 6.33301 87.999 19l-77 73l76 81z" />
    <glyph glyph-name="R" unicode="R" horiz-adv-x="722" 
d="M230 0l-149.997 -0.00390625v729h391c61.333 0 108.333 -16.667 141 -50c17.333 -18 30.833 -39.667 40.5 -65s14.5 -52.666 14.5 -81.999c0 -88 -41 -148 -123 -180c23.333 -10 41.5 -19.333 54.5 -28s22.833 -21.667 29.5 -39s10.834 -41.166 12.501 -71.499
s3.16699 -72.5 4.5 -126.5c0 -16 2.5 -28.333 7.5 -37s13.167 -16.334 24.5 -23.001v-27h-161c-4.66699 8.66699 -8.33398 16.834 -11.001 24.501s-4.83398 16 -6.50098 25s-2.83398 19.333 -3.50098 31s-1 25.834 -1 42.501v22.5c0 8.33301 0.333008 17.5 1 27.5v29
c0 30.667 -7.33301 52.834 -22 66.501s-38.334 20.5 -71.001 20.5h-172v-289zM411.003 413.996c39.333 0 66.833 7.16699 82.5 21.5s23.5 39.5 23.5 75.5c0 34 -8 58 -24 72s-43.333 21 -82 21h-181v-190h181z" />
    <glyph glyph-name="S" unicode="S" horiz-adv-x="667" 
d="M467 507c-2.66699 37.333 -16.834 65.667 -42.501 85s-62.5 29 -110.5 29c-38.667 0 -69.334 -8 -92.001 -24s-34 -38 -34 -66c0 -13.333 2.16699 -24.833 6.5 -34.5s11.833 -18 22.5 -25s24.834 -13.333 42.501 -19s39.834 -11.167 66.501 -16.5l114 -22
c67.333 -12.667 116.333 -34.834 147 -66.501s46 -76.167 46 -133.5c0 -75.333 -26.167 -133.666 -78.5 -174.999s-125.833 -62 -220.5 -62c-93.333 0 -165.833 20.5 -217.5 61.5s-79.834 100.833 -84.501 179.5h146c2.66699 -39.333 17.834 -69.333 45.501 -90
s67.167 -31 118.5 -31c46 0 82 8.66699 108 26s39 41.333 39 72c0 29.333 -10.333 52 -31 68s-56 28.667 -106 38l-102 20c-37.333 6.66699 -68.833 15.5 -94.5 26.5s-46.834 24.333 -63.501 40s-28.667 34.167 -36 55.5s-11 46 -11 74c0 71.333 24 126.5 72 165.5
s115.667 58.5 203 58.5c93.333 0 164.333 -20 213 -60s73.334 -98 74.001 -174h-140z" />
    <glyph glyph-name="T" unicode="T" horiz-adv-x="611" 
d="M385 0h-150v604h-221v125h584v-125h-213v-604z" />
    <glyph glyph-name="U" unicode="U" horiz-adv-x="722" 
d="M654 729v-494c0 -41.333 -5.66699 -76.833 -17 -106.5s-29.333 -55.5 -54 -77.5c-26.667 -24 -58.667 -42.333 -96 -55s-78 -19 -122 -19s-84.667 6.33301 -122 19s-69.333 31 -96 55c-24.667 22 -42.667 47.833 -54 77.5s-17 65.167 -17 106.5v494h150v-494
c0 -86.667 46.333 -130 139 -130s139 43.333 139 130v494h150z" />
    <glyph glyph-name="V" unicode="V" horiz-adv-x="667" 
d="M270 0l-246 729h151l162 -549l159 549h151l-250 -729h-127z" />
    <glyph glyph-name="W" unicode="W" horiz-adv-x="944" 
d="M595 0l-122 569l-119 -569h-135l-206 729h159l113 -546l113 546h148l118 -547l109 547h159l-202 -729h-135z" />
    <glyph glyph-name="X" unicode="X" horiz-adv-x="667" 
d="M653 0h-178l-140 253l-139 -253h-174l230 367l-222 362h178l128 -240l134 240h174l-225 -357z" />
    <glyph glyph-name="Y" unicode="Y" horiz-adv-x="667" 
d="M419 0h-150v270l-242 459h167l149 -322l139 322h168l-231 -459v-270z" />
    <glyph glyph-name="Z" unicode="Z" horiz-adv-x="611" 
d="M578 604l-372 -479h372v-125h-548v125l373 479h-373v125h548v-125z" />
    <glyph glyph-name="bracketleft" unicode="[" horiz-adv-x="333" 
d="M308 627h-112v-725h112v-102h-242v929h242v-102z" />
    <glyph glyph-name="backslash" unicode="\" horiz-adv-x="278" 
d="M289 -14h-67l-234 728h67z" />
    <glyph glyph-name="bracketright" unicode="]" horiz-adv-x="333" 
d="M18 -98h112v725h-112v102h242v-929h-242v102z" />
    <glyph glyph-name="asciicircum" unicode="^" horiz-adv-x="584" 
d="M409 270l-121 300l-115 -300h-112l165 425h125l171 -425h-113z" />
    <glyph glyph-name="underscore" unicode="_" 
d="M578 -189h-600v69h600v-69z" />
    <glyph glyph-name="grave" unicode="`" horiz-adv-x="333" 
d="M143 757l70 -150h-70l-126 150h126z" />
    <glyph glyph-name="a" unicode="a" 
d="M524 0l-152 -0.000976562c-6.66699 8 -11 15.5 -13 22.5s-3 17.5 -3 31.5c-49.333 -51.333 -104 -77 -164 -77c-24.667 0 -47.167 3.83301 -67.5 11.5s-37.666 18.667 -51.999 33s-25.333 31.5 -33 51.5s-11.5 42 -11.5 66c0 95.333 53 152 159 170l56 10
c17.333 2.66699 30.666 4.83398 39.999 6.50098s16.833 3.16699 22.5 4.5s10.167 2.66602 13.5 3.99902s7.33301 3.33301 12 6c16 8.66699 24 22.667 24 42c0 36 -27 54 -81 54c-34.667 0 -59 -5.33301 -73 -16s-22.667 -30 -26 -58h-135
c8.66699 124.667 85.667 187 231 187c147.333 0 221 -55.333 221 -166v-300c0 -14 2.16699 -25.667 6.5 -35s12.833 -19.666 25.5 -30.999v-17zM355 254.999c-4 -2 -7.66699 -3.66797 -11 -5.00098s-7 -2.66602 -11 -3.99902s-8.83301 -2.5 -14.5 -3.5
s-13.167 -2.5 -22.5 -4.5l-48 -9c-29.333 -6 -50 -14.5 -62 -25.5s-18 -27.167 -18 -48.5c0 -20 6.83301 -35.833 20.5 -47.5s32.167 -17.5 55.5 -17.5c36 0 63.5 11 82.5 33s28.5 53.333 28.5 94v38z" />
    <glyph glyph-name="b" unicode="b" horiz-adv-x="611" 
d="M199 729l0.000976562 -259c17.333 27.333 38 47.333 62 60s53 19 87 19c33.333 0 65.166 -7.83301 95.499 -23.5s54.833 -36.834 73.5 -63.501c18 -26 32.167 -56.5 42.5 -91.5s15.5 -70.833 15.5 -107.5c0 -40.667 -5.83301 -78.5 -17.5 -113.5
s-27.667 -65.167 -48 -90.5s-44.333 -45.333 -72 -60s-57.5 -22 -89.5 -22c-34 0 -63 6.33301 -87 19s-44.667 32.334 -62 59.001v-55h-140v729h140zM315.001 432c-17.333 0 -32.9971 -4.16992 -46.9971 -12.5029s-26.167 -20 -36.5 -35s-18.333 -32.833 -24 -53.5
s-8.5 -43.667 -8.5 -69s2.83301 -48.166 8.5 -68.499s13.667 -38 24 -53s22.666 -26.5 36.999 -34.5s30.5 -12 48.5 -12c17.333 0 33.166 4.16699 47.499 12.5s26.833 19.833 37.5 34.5s18.834 32.334 24.501 53.001s8.5 43.334 8.5 68.001
c0 25.333 -2.83301 48.333 -8.5 69s-13.834 38.5 -24.501 53.5s-23.334 26.667 -38.001 35s-31 12.5 -49 12.5z" />
    <glyph glyph-name="c" unicode="c" 
d="M388 338c-8 36 -19.5 61.333 -34.5 76s-36.833 22 -65.5 22c-41.333 0 -70.333 -15.333 -87 -46c-8.66699 -16 -15.334 -35.333 -20.001 -58s-7 -47 -7 -73c0 -53.333 9.83301 -94.833 29.5 -124.5s47.5 -44.5 83.5 -44.5c28 0 49.667 7.33301 65 22s27.333 39.667 36 75
h134c-3.33301 -32 -11.333 -61 -24 -87s-29.167 -48.167 -49.5 -66.5s-44.166 -32.333 -71.499 -42s-57.333 -14.5 -90 -14.5c-80.667 0 -143 24.5 -187 73.5s-66 118.5 -66 208.5c0 92.667 22.167 164.167 66.5 214.5s107.166 75.5 188.499 75.5
c68.667 0 123.334 -18.5 164.001 -55.5s63.667 -88.833 69 -155.5h-134z" />
    <glyph glyph-name="d" unicode="d" horiz-adv-x="611" 
d="M405 55c-17.333 -27.333 -38.001 -47.168 -62.001 -59.501s-53 -18.5 -87 -18.5c-33.333 0 -65.166 7.66699 -95.499 23s-54.833 36.333 -73.5 63c-18 26 -32.167 56.5 -42.5 91.5s-15.5 70.833 -15.5 107.5c0 40.667 5.83301 78.5 17.5 113.5s27.667 65.333 48 91
s44.333 45.834 72 60.501s57.5 22 89.5 22c34 0 63 -6.33301 87 -19s44.667 -32.667 62 -60v259h140v-729h-140v55zM284.999 431.998c-17.333 0 -32.999 -4.16406 -46.999 -12.4971s-26.167 -20 -36.5 -35s-18.333 -33 -24 -54s-8.5 -43.833 -8.5 -68.5
s2.83301 -47.334 8.5 -68.001s13.667 -38.334 24 -53.001s22.833 -26.167 37.5 -34.5s30.667 -12.5 48 -12.5s33.333 4 48 12s27.167 19.5 37.5 34.5s18.333 32.667 24 53s8.5 43.166 8.5 68.499c0 52 -10.833 93.333 -32.5 124s-50.834 46 -87.501 46z" />
    <glyph glyph-name="e" unicode="e" 
d="M162 226c1.33301 -26 3.49902 -46.165 6.49902 -60.498s8.16699 -26.833 15.5 -37.5c20.667 -29.333 50.667 -44 90 -44c25.333 0 47.333 6 66 18s32.334 28.667 41.001 50h138c-8 -26.667 -19.833 -50.834 -35.5 -72.501s-34.334 -40 -56.001 -55s-46 -26.667 -73 -35
s-55.5 -12.5 -85.5 -12.5c-38 0 -72.333 6.5 -103 19.5s-56.667 31.5 -78 55.5s-37.666 53.167 -48.999 87.5s-17 73.166 -17 116.499c0 45.333 5.83301 86 17.5 122s28.167 66.667 49.5 92s47.5 44.833 78.5 58.5s65.833 20.5 104.5 20.5c56.667 0 105.5 -14.5 146.5 -43.5
s70.167 -69.167 87.5 -120.5c6 -17.333 10.667 -37.833 14 -61.5s5 -48.167 5 -73.5v-10c0 -3.33301 -0.333008 -8 -1 -14h-362zM378.999 319.002c-3.33301 40 -14.333 70.5 -33 91.5s-44 31.5 -76 31.5c-62 0 -97.333 -41 -106 -123h215z" />
    <glyph glyph-name="f" unicode="f" horiz-adv-x="333" 
d="M313 436l-83 -0.000976562v-436h-140v436h-76v93h76v65c0 90 45.667 135 137 135c11.333 0 23.833 -0.166992 37.5 -0.5s28.167 -1.16602 43.5 -2.49902v-105c-14 2 -27.333 3 -40 3c-25.333 0 -38 -14 -38 -42v-53h83v-93z" />
    <glyph glyph-name="g" unicode="g" horiz-adv-x="611" 
d="M541 540l-0.000976562 -558c0 -64 -22.333 -113.333 -67 -148s-108 -52 -190 -52c-43.333 0 -80.5 4.5 -111.5 13.5s-57.167 22.833 -78.5 41.5c-17.333 15.333 -29.666 30.5 -36.999 45.5s-11.333 32.5 -12 52.5h145c11.333 -42 44.333 -63 99 -63
c35.333 0 64 10.167 86 30.5s33 46.833 33 79.5v73c-13.333 -14.667 -25.833 -27 -37.5 -37s-23.5 -18 -35.5 -24s-24.333 -10.333 -37 -13s-27 -4 -43 -4c-33.333 0 -63.5 6.66699 -90.5 20s-50.167 32.333 -69.5 57s-34.333 54.167 -45 88.5s-16 72.5 -16 114.5
s5.66699 80.833 17 116.5s27 66.5 47 92.5s43.667 46.333 71 61s57 22 89 22c31.333 0 58.833 -7.33301 82.5 -22s46.167 -38 67.5 -70v83h133zM285.999 432c-16.667 0 -31.833 -4.33301 -45.5 -13s-25.5 -20.667 -35.5 -36s-17.667 -33.666 -23 -54.999
s-8 -44.666 -8 -69.999c0 -49.333 10.333 -89 31 -119s48 -45 82 -45c18 0 34.5 4 49.5 12s28 19.333 39 34s19.5 32 25.5 52s9 42 9 66c0 25.333 -3 48.666 -9 69.999s-14.5 39.666 -25.5 54.999s-24.167 27.333 -39.5 36s-32 13 -50 13z" />
    <glyph glyph-name="h" unicode="h" horiz-adv-x="611" 
d="M207 729v-266.999c19.333 30 41.833 52 67.5 66s55.834 21 90.501 21c22.667 0 44.667 -3.5 66 -10.5s39.666 -17.167 54.999 -30.5c36.667 -30.667 55 -79.334 55 -146.001v-362h-140v330c0 66.667 -28.333 100 -85 100c-32 0 -58.167 -9.83301 -78.5 -29.5
s-30.5 -45.167 -30.5 -76.5v-324h-140v729h140z" />
    <glyph glyph-name="i" unicode="i" horiz-adv-x="278" 
d="M207 0h-140v540h140v-540zM207 604h-140v125h140v-125z" />
    <glyph glyph-name="j" unicode="j" horiz-adv-x="278" 
d="M210 -94c0 -44 -9.50195 -75.666 -28.502 -94.999s-50.5 -29 -94.5 -29c-11.333 0 -24.666 0.5 -39.999 1.5s-29.666 2.16699 -42.999 3.5v112c8 -2.66699 16.333 -4 25 -4c15.333 0 26 3.16699 32 9.5s9 17.166 9 32.499v603h140v-634zM209.998 604.001h-140v125h140
v-125z" />
    <glyph glyph-name="k" unicode="k" 
d="M376 540h159l-184 -204l197 -336h-164l-129 238l-56 -61v-177h-140v729h140v-399z" />
    <glyph glyph-name="l" unicode="l" horiz-adv-x="278" 
d="M207 0h-140v729h140v-729z" />
    <glyph glyph-name="m" unicode="m" horiz-adv-x="889" 
d="M199 540v-67c23.333 28 46 47.667 68 59s48.667 17 80 17c34 0 63.667 -7 89 -21s44.666 -33.667 57.999 -59c21.333 28 44.333 48.333 69 61s54.334 19 89.001 19c54 0 96.167 -14.667 126.5 -44s45.5 -70.333 45.5 -123v-382h-140v360
c0 21.333 -6.83301 38.333 -20.5 51s-32.167 19 -55.5 19c-30 0 -53.5 -9.33301 -70.5 -28s-25.5 -44.667 -25.5 -78v-324h-140v360c0 21.333 -6.83301 38.333 -20.5 51s-32.167 19 -55.5 19c-30 0 -53.5 -9.16699 -70.5 -27.5s-25.5 -44.5 -25.5 -78.5v-324h-140v540h139z
" />
    <glyph glyph-name="n" unicode="n" horiz-adv-x="611" 
d="M203 540l-0.000976562 -78.001c20 30.667 42.833 52.834 68.5 66.501s56.834 20.5 93.501 20.5c58.667 0 103.5 -16 134.5 -48s46.5 -78.333 46.5 -139v-362h-140v333c0 64.667 -30 97 -90 97c-34.667 0 -62.167 -9.66699 -82.5 -29s-30.5 -45 -30.5 -77v-324h-140v540
h140z" />
    <glyph glyph-name="o" unicode="o" horiz-adv-x="611" 
d="M306 549c40.667 0 77.167 -6.66699 109.5 -20s59.833 -32.333 82.5 -57s40.167 -54.667 52.5 -90s18.5 -75 18.5 -119c0 -44.667 -6.16699 -84.667 -18.5 -120s-30 -65.333 -53 -90s-51 -43.5 -84 -56.5s-70.167 -19.5 -111.5 -19.5s-78.5 6.5 -111.5 19.5
s-61 31.833 -84 56.5s-40.667 54.667 -53 90s-18.5 75 -18.5 119c0 91.333 23.667 162 71 212s114 75 200 75zM300 436c-18.667 0 -35.6689 -4.16699 -51.002 -12.5s-28.5 -20.166 -39.5 -35.499s-19.5 -33.5 -25.5 -54.5s-9 -44.5 -9 -70.5c0 -52 11.667 -93.833 35 -125.5
s54 -47.5 92 -47.5c18.667 0 35.834 4.16699 51.501 12.5s29.167 20 40.5 35s20 33 26 54s9 44.5 9 70.5c0 53.333 -11.667 95.666 -35 126.999s-54.666 47 -93.999 47z" />
    <glyph glyph-name="p" unicode="p" horiz-adv-x="611" 
d="M198 460c33.333 59.333 83.333 89.001 150 89.001c32.667 0 64.334 -7.83301 95.001 -23.5s55 -36.167 73 -61.5s32.167 -55.833 42.5 -91.5s15.5 -72.5 15.5 -110.5c0 -41.333 -5.66699 -79.333 -17 -114s-27 -64.834 -47 -90.501s-43.833 -45.667 -71.5 -60
s-57.834 -21.5 -90.501 -21.5c-66.667 0 -116.667 29.333 -150 88v-282h-140v758h140v-80zM314 432.001c-34.667 0 -62.666 -15.666 -83.999 -46.999s-32 -72.333 -32 -123s10.667 -91.5 32 -122.5s50 -46.5 86 -46.5c17.333 0 33.333 4 48 12s27.167 19.5 37.5 34.5
s18.333 32.667 24 53s8.5 43.166 8.5 68.499c0 52 -10.833 93.5 -32.5 124.5s-50.834 46.5 -87.501 46.5z" />
    <glyph glyph-name="q" unicode="q" horiz-adv-x="611" 
d="M544 540l-0.000976562 -758.001h-140v282c-32.667 -58.667 -83 -88 -151 -88c-32 0 -63.333 7.83301 -94 23.5s-55 36.167 -73 61.5c-18 24.667 -32.167 54.834 -42.5 90.501s-15.5 72.5 -15.5 110.5c0 41.333 5.66699 79.5 17 114.5s27 65.333 47 91
s43.833 45.667 71.5 60s57.834 21.5 90.501 21.5c66.667 0 116.667 -29.667 150 -89v80h140zM284.999 431.999c-17.333 0 -33.167 -4.16602 -47.5 -12.499s-26.666 -20 -36.999 -35s-18.333 -33 -24 -54s-8.5 -43.833 -8.5 -68.5c0 -50.667 10.833 -91.5 32.5 -122.5
s50.167 -46.5 85.5 -46.5c18 0 34.167 4 48.5 12s26.666 19.5 36.999 34.5s18.333 32.667 24 53s8.5 43.166 8.5 68.499c0 52 -10.833 93.5 -32.5 124.5s-50.5 46.5 -86.5 46.5z" />
    <glyph glyph-name="r" unicode="r" horiz-adv-x="389" 
d="M203 540v-106c15.333 36.667 36.166 65 62.499 85s55.5 30 87.5 30h8c2 0 5 -0.333008 9 -1v-142c-9.33301 1.33301 -17.166 2.33301 -23.499 3s-12.833 1 -19.5 1c-82.667 0 -124 -41 -124 -123v-287h-140v540h140z" />
    <glyph glyph-name="s" unicode="s" 
d="M370 366c-0.666992 48.667 -34.332 72.999 -100.999 72.999c-24.667 0 -44.334 -4.5 -59.001 -13.5s-22 -21.167 -22 -36.5c0 -11.333 3.33301 -19.666 10 -24.999s19.667 -11 39 -17l177 -51c70.667 -21.333 106 -66.666 106 -135.999
c0 -26.667 -5.66699 -51.834 -17 -75.501s-27 -43.5 -47 -59.5c-40 -32 -97.333 -48 -172 -48c-82.667 0 -145.334 15 -188.001 45s-65 75 -67 135h137c3.33301 -15.333 6.83301 -26.5 10.5 -33.5s9.83398 -13.167 18.501 -18.5c18 -12 45 -18 81 -18
c32.667 0 58.167 4.66699 76.5 14s27.5 22.333 27.5 39c0 11.333 -3.5 20.166 -10.5 26.499s-19.167 12.166 -36.5 17.499l-167 52c-13.333 4 -24.5 7.83301 -33.5 11.5s-16.667 7.16699 -23 10.5s-12 6.83301 -17 10.5s-9.83301 7.83398 -14.5 12.501
c-20 22 -30 51.333 -30 88c0 56 19.833 100 59.5 132s93.834 48 162.501 48c72.667 0 129.667 -16.167 171 -48.5s62.666 -77.166 63.999 -134.499h-135z" />
    <glyph glyph-name="t" unicode="t" horiz-adv-x="333" 
d="M301 436l-77.999 0.000976562v-294c0 -24 3 -39.833 9 -47.5s18.333 -11.5 37 -11.5c5.33301 0 10.166 0.166992 14.499 0.5s10.166 1.16602 17.499 2.49902v-98c-13.333 -4 -26.166 -6.83301 -38.499 -8.5s-26.833 -2.5 -43.5 -2.5c-90.667 0 -136 42.333 -136 127v332
h-69v93h69v145h140v-145h78v-93z" />
    <glyph glyph-name="u" unicode="u" horiz-adv-x="611" 
d="M401 0l0.000976562 64.001c-20 -30.667 -42.833 -52.834 -68.5 -66.501s-56.834 -20.5 -93.501 -20.5c-58.667 0 -103.5 16 -134.5 48s-46.5 78.333 -46.5 139v376h140v-347c0 -64.667 30 -97 90 -97c34.667 0 62.167 9.66699 82.5 29s30.5 45 30.5 77v338h140v-540h-140
z" />
    <glyph glyph-name="v" unicode="v" 
d="M203 0l-189 540h148l117 -395l109 395h148l-186 -540h-147z" />
    <glyph glyph-name="w" unicode="w" horiz-adv-x="778" 
d="M468 0l-81 381l-86 -381h-144l-152 540h145l86 -378l82 378h140l81 -378l82 378h145l-153 -540h-145z" />
    <glyph glyph-name="x" unicode="x" 
d="M535 0h-168l-91 168l-92 -168h-168l180 272l-176 268h168l88 -163l87 163h168l-176 -268z" />
    <glyph glyph-name="y" unicode="y" 
d="M538 540l-221.999 -638.999c-6 -16.667 -11.667 -30.667 -17 -42s-11.166 -21 -17.499 -29s-13.333 -14.5 -21 -19.5s-16.5 -9.5 -26.5 -13.5c-12.667 -5.33301 -27.834 -9.33301 -45.501 -12s-35.167 -4 -52.5 -4c-8.66699 0 -16.5 0.333008 -23.5 1
s-15.833 1.66699 -26.5 3v105c8.66699 -2.66699 15.667 -4.33398 21 -5.00098s10.666 -1 15.999 -1c26 0 47 8.66699 63 26s24 40 24 68l-201 562h154l119 -393l112 393h144z" />
    <glyph glyph-name="z" unicode="z" horiz-adv-x="500" 
d="M459 427l-265 -314h274v-113h-447v113l267 314h-249v113h420v-113z" />
    <glyph glyph-name="braceleft" unicode="{" horiz-adv-x="389" 
d="M317 630l-37 0.00292969c-15.333 0 -26.666 -4.5 -33.999 -13.5s-11 -23.5 -11 -43.5v-195c0 -18 -1.5 -33.333 -4.5 -46s-8.33301 -23.167 -16 -31.5s-17.667 -15 -30 -20s-27.833 -8.83301 -46.5 -11.5c18.667 -3.33301 34.167 -7.33301 46.5 -12
s22.333 -11.334 30 -20.001s13 -19.334 16 -32.001s4.5 -28 4.5 -46v-195c0 -24.667 3.16699 -41.667 9.5 -51s18.166 -14 35.499 -14h37v-99h-76c-18 0 -34.5 3.5 -49.5 10.5s-28 16.667 -39 29s-19.5 27 -25.5 44s-9 35.833 -9 56.5v210c0 20.667 -2.33301 35.667 -7 45
s-13 16.666 -25 21.999c-5.33301 2 -10.833 3.33301 -16.5 4s-15.167 1 -28.5 1l-4 1v92h4h12c43.333 0.666992 65 21.667 65 63v211c0 20.667 3 39.5 9 56.5s14.5 31.667 25.5 44s24 22 39 29s31.5 10.5 49.5 10.5h76v-99z" />
    <glyph glyph-name="bar" unicode="|" horiz-adv-x="280" 
d="M180 -200h-80v929h80v-929z" />
    <glyph glyph-name="braceright" unicode="}" horiz-adv-x="389" 
d="M72 -101l37 -0.00195312c15.333 0 26.666 4.5 33.999 13.5s11 23.5 11 43.5v195c0 18 1.5 33.333 4.5 46s8.33301 23.167 16 31.5s17.667 15 30 20s27.833 8.83301 46.5 11.5c-18.667 2.66699 -34.167 6.5 -46.5 11.5s-22.333 11.833 -30 20.5s-13 19.334 -16 32.001
s-4.5 28 -4.5 46v195c0 24.667 -3.16699 41.667 -9.5 51s-18.166 14 -35.499 14h-37v99h76c18 0 34.5 -3.5 49.5 -10.5s28 -16.667 39 -29s19.5 -27 25.5 -44s9 -35.833 9 -56.5v-210c0 -20.667 2.33301 -35.667 7 -45s13 -16.666 25 -21.999
c5.33301 -2 10.833 -3.33301 16.5 -4s15.167 -1 28.5 -1l4 -1v-92h-4h-12c-43.333 -0.666992 -65 -21.667 -65 -63v-211c0 -20.667 -3 -39.5 -9 -56.5s-14.5 -31.667 -25.5 -44s-24 -22 -39 -29s-31.5 -10.5 -49.5 -10.5h-76v99z" />
    <glyph glyph-name="asciitilde" unicode="~" horiz-adv-x="584" 
d="M519 288c-6 -97.333 -48.332 -146.001 -126.999 -146.001c-16.667 0 -31.334 2 -44.001 6s-25.667 10.667 -39 20l-57 42c-11.333 8.66699 -21.666 14.834 -30.999 18.501s-19.333 5.5 -30 5.5c-24.667 0 -40.667 -9.33301 -48 -28
c-1.33301 -4 -2.33301 -7.83301 -3 -11.5s-1.33398 -12.167 -2.00098 -25.5h-78c4.66699 96.667 47 145 127 145c32 0 59.667 -8.33301 83 -25l57 -42c13.333 -10 24.166 -16.667 32.499 -20s17.833 -5 28.5 -5c24.667 0 40.667 9.66699 48 29
c1.33301 3.33301 2.33301 7 3 11s1.33398 12.667 2.00098 26h78z" />
    <glyph glyph-name="nonbreakingspace" unicode="&#xa0;" horiz-adv-x="278" 
 />
    <glyph glyph-name="exclamdown" unicode="&#xa1;" horiz-adv-x="333" 
d="M66 24l42 309h67l41 -309v-210h-150v210zM66 540h150v-146h-150v146z" />
    <glyph glyph-name="cent" unicode="&#xa2;" 
d="M303 91c23.333 3.33301 41.4971 12.502 54.4971 27.502s23.167 37.833 30.5 68.5h134c-2.66699 -30 -10 -57.5 -22 -82.5s-27.667 -46.833 -47 -65.5s-41.666 -33.334 -66.999 -44.001s-53 -16.667 -83 -18v-101h-44v102c-70 4.66699 -124.5 31.834 -163.5 81.501
s-58.5 116.167 -58.5 199.5c0 87.333 18.833 155.5 56.5 204.5s92.834 77.167 165.501 84.5v86h44v-85c30.667 -0.666992 59 -6.16699 85 -16.5s48.5 -24.833 67.5 -43.5s34.333 -40.834 46 -66.501s18.5 -53.834 20.5 -84.501h-134c-6.66699 31.333 -16.667 54.5 -30 69.5
s-31.666 24.167 -54.999 27.5v-344zM258.997 433.002c-26.667 -6.66699 -47 -24.668 -61 -54.001s-21 -69 -21 -119c0 -46.667 7 -84.167 21 -112.5s34.333 -46.166 61 -53.499v339z" />
    <glyph glyph-name="sterling" unicode="&#xa3;" 
d="M375 316h-122.001c6 -13.333 10 -24 12 -32s3 -17 3 -27c0 -14.667 -2 -28.667 -6 -42s-10.667 -26.666 -20 -39.999s-21.333 -27.333 -36 -42s-32.667 -30.334 -54 -47.001c16 8 29.333 14.333 40 19s20.167 8.33398 28.5 11.001s15.833 4.5 22.5 5.5s13.667 1.5 21 1.5
c8.66699 0 16.667 -0.666992 24 -2s20.666 -4.33301 39.999 -9c24.667 -6.66699 45.667 -10 63 -10c32 0 67 9.66699 105 29l41 -109c-28 -16.667 -53 -28.334 -75 -35.001s-45 -10 -69 -10c-14 0 -28 1.16699 -42 3.5s-33.333 6.5 -58 12.5s-43.834 10.167 -57.501 12.5
s-27.167 3.5 -40.5 3.5c-19.333 0 -36.833 -2.16699 -52.5 -6.5s-34.5 -12.166 -56.5 -23.499l-55 101c20.667 14 38 27 52 39s25.333 23.833 34 35.5s14.834 23.667 18.501 36s5.5 25.833 5.5 40.5c0 12.667 -1.5 25 -4.5 37s-8.5 28 -16.5 48h-89v55h60l-27.5 50
c-7 13.333 -12.333 25.166 -16 35.499s-6.16699 20 -7.5 29s-2 19.167 -2 30.5c0 28.667 6.5 56.167 19.5 82.5s31.167 48.833 54.5 67.5c42.667 32.667 97.334 49 164.001 49c54 0 100 -9.83301 138 -29.5s65.667 -48.167 83 -85.5
c6.66699 -14 11.834 -29.833 15.501 -47.5s6.83398 -40.5 9.50098 -68.5h-132l-1 11c-3.33301 23.333 -7.33301 40.5 -12 51.5s-12.334 21.167 -23.001 30.5c-20 18 -45.667 27 -77 27c-28.667 0 -52.167 -8.5 -70.5 -25.5s-27.5 -38.5 -27.5 -64.5
c0 -5.33301 0.166992 -10 0.5 -14s1.5 -8.83301 3.5 -14.5s4.83301 -12.334 8.5 -20.001l14.5 -29.5c9.33301 -19.333 15.833 -33.166 19.5 -41.499l10.5 -23.5h139v-55z" />
    <glyph glyph-name="currency" unicode="&#xa4;" 
d="M461 601l68.9961 -69.002l-75 -75c10.667 -20.667 17.834 -38.167 21.501 -52.5s5.5 -31.166 5.5 -50.499c0 -38 -9.66699 -74 -29 -108l77 -76l-69 -68l-75 75l-30.5 -15c-8.33301 -4 -16.166 -7.16699 -23.499 -9.5s-14.5 -3.83301 -21.5 -4.5s-15.167 -1 -24.5 -1
c-20 0 -40.167 2.83301 -60.5 8.5s-37.166 13.167 -50.499 22.5l-79 -78l-68 69l78 77c-11.333 20 -19.166 37.833 -23.499 53.5s-6.5 33.167 -6.5 52.5c0 39.333 9.66699 74.333 29 105l-79 79l69 68l77 -77c15.333 9.33301 32.666 16.833 51.999 22.5s38.333 8.5 57 8.5
c19.333 0 38.333 -2.66699 57 -8s35.334 -12.666 50.001 -21.999zM277.996 459.998c-14.667 0 -28.332 -2.83301 -40.999 -8.5s-23.834 -13.334 -33.501 -23.001s-17.334 -21 -23.001 -34s-8.5 -26.833 -8.5 -41.5c0 -15.333 2.83301 -29.5 8.5 -42.5
s13.334 -24.333 23.001 -34s21 -17.334 34 -23.001s26.833 -8.5 41.5 -8.5s28.5 2.83301 41.5 8.5s24.333 13.334 34 23.001s17.334 21 23.001 34s8.5 26.833 8.5 41.5s-2.83301 28.667 -8.5 42s-13.334 24.833 -23.001 34.5s-21.167 17.334 -34.5 23.001
s-27.333 8.5 -42 8.5z" />
    <glyph glyph-name="yen" unicode="&#xa5;" 
d="M497 292h-142v-53h142v-59h-142v-180h-140v180h-145v59h145v53h-145v59h138l-203 353h139l139 -254l134 254h135l-192 -353h137v-59z" />
    <glyph glyph-name="brokenbar" unicode="&#xa6;" horiz-adv-x="280" 
d="M180 340h-80v389h80v-389zM180 -200h-80v389h80v-389z" />
    <glyph glyph-name="section" unicode="&#xa7;" 
d="M346 544c-6.66699 51.333 -32.666 77 -77.999 77c-19.333 0 -34.833 -4.5 -46.5 -13.5s-17.5 -21.167 -17.5 -36.5c0 -7.33301 1.33301 -14.166 4 -20.499s7.5 -12.666 14.5 -18.999s16.167 -13.166 27.5 -20.499s26 -16 44 -26l127 -70
c34 -18.667 58.667 -40.334 74 -65.001s23 -54 23 -88s-7.16699 -61.667 -21.5 -83s-38.5 -39.666 -72.5 -54.999c46.667 -32.667 70 -77.334 70 -134.001c0 -28.667 -5.33301 -54.667 -16 -78s-25.5 -43.333 -44.5 -60s-41.833 -29.667 -68.5 -39s-56.334 -14 -89.001 -14
c-139.333 0 -209.666 67 -210.999 201h131v-10c1.33301 -16 3.16602 -28.167 5.49902 -36.5s6.83301 -15.5 13.5 -21.5c14.667 -14.667 35.334 -22 62.001 -22c22.667 0 41 5.66699 55 17s21 26 21 44s-6 33 -18 45c-2.66699 2.66699 -5 4.83398 -7 6.50098
s-4.66699 3.5 -8 5.5s-7.83301 4.5 -13.5 7.5s-13.5 7.5 -23.5 13.5l-171 100c-25.333 15.333 -44.833 34.166 -58.5 56.499s-20.5 47.5 -20.5 75.5c0 14.667 1.33301 28.167 4 40.5s7.5 24 14.5 35s16.5 22.167 28.5 33.5s27 24 45 38c-12.667 12.667 -20.667 21 -24 25
l-10 12c-8.66699 11.333 -15.334 24.666 -20.001 39.999s-7 30.666 -7 45.999c0 24.667 5.16699 47.667 15.5 69s24.833 39.5 43.5 54.5s40.834 26.833 66.501 35.5s53.5 13 83.5 13c40 0 75.5 -7 106.5 -21s54.167 -33.667 69.5 -59c8 -13.333 13.667 -27.333 17 -42
s5.66602 -33.667 6.99902 -57h-127zM194.001 382c-15.333 -9.33301 -26.332 -18.832 -32.999 -28.499s-10 -21.834 -10 -36.501c0 -15.333 3.66699 -28 11 -38s21.666 -20.667 42.999 -32l147 -80c17.333 12.667 29.333 23.834 36 33.501s10 20.5 10 32.5
c0 15.333 -4.33301 28.166 -13 38.499s-24.667 21.833 -48 34.5z" />
    <glyph glyph-name="dieresis" unicode="&#xa8;" horiz-adv-x="333" 
d="M128 621h-110v122h110v-122zM314 621h-110v122h110v-122z" />
    <glyph glyph-name="copyright" unicode="&#xa9;" horiz-adv-x="737" 
d="M373 743c52 0 100.835 -10.168 146.502 -30.501s85.667 -47.833 120 -82.5s61.5 -75.167 81.5 -121.5s30 -95.5 30 -147.5c0 -53.333 -10 -103.166 -30 -149.499s-47.333 -86.833 -82 -121.5s-75.167 -62 -121.5 -82s-95.833 -30 -148.5 -30s-102.334 10 -149.001 30
s-87.334 47.333 -122.001 82s-62 75.167 -82 121.5s-30 95.833 -30 148.5c0 53.333 10 103.333 30 150s47.5 87.167 82.5 121.5s76 61.5 123 81.5s97.5 30 151.5 30zM365.002 670.999c-41.333 0 -80.167 -8.16895 -116.5 -24.502s-68.166 -38.666 -95.499 -66.999
s-49 -61.333 -65 -99s-24 -77.5 -24 -119.5c0 -42.667 8 -82.834 24 -120.501s37.833 -70.667 65.5 -99s59.834 -50.666 96.501 -66.999s76 -24.5 118 -24.5s81.5 8.16699 118.5 24.5s69.333 38.5 97 66.5s49.5 60.833 65.5 98.5s24 77.834 24 120.501
c0 43.333 -8 84 -24 122s-37.833 71 -65.5 99s-60.334 50 -98.001 66s-77.834 24 -120.501 24zM462.001 430.997c-5.33301 27.333 -15.4961 47.167 -30.4961 59.5s-35.833 18.5 -62.5 18.5c-36 0 -64 -13.167 -84 -39.5s-30 -63.166 -30 -110.499s9.66699 -83.833 29 -109.5
s46.666 -38.5 81.999 -38.5c58.667 0 90.667 28.667 96 86h92c-2.66699 -52.667 -20.834 -94 -54.501 -124s-78.834 -45 -135.501 -45c-62.667 0 -111.834 20.667 -147.501 62s-53.5 98 -53.5 170c0 36 4.66699 68.333 14 97s22.833 53 40.5 73s39 35.333 64 46
s53.167 16 84.5 16c34.667 0 65.667 -6.5 93 -19.5s49.333 -31.167 66 -54.5c8.66699 -12.667 15 -25.334 19 -38.001s6.66699 -29 8 -49h-90z" />
    <glyph glyph-name="ordfeminine" unicode="&#xaa;" horiz-adv-x="370" 
d="M321 262h-284v78h284v-78zM329 400l-92 -0.000976562c-4 5.33301 -6.5 10 -7.5 14s-1.83301 10 -2.5 18c-29.333 -30.667 -62 -46 -98 -46c-30 0 -53.833 9 -71.5 27s-26.5 42 -26.5 72c0 57.333 31.667 91.333 95 102l34 6c10 2 17.833 3.5 23.5 4.5
s10.167 1.83301 13.5 2.5s6 1.5 8 2.5s4.66699 2.16699 8 3.5c9.33301 5.33301 14 13.333 14 24c0 20.667 -16.333 31 -49 31c-20 0 -34.333 -3.16699 -43 -9.5s-14 -17.833 -16 -34.5h-78c1.33301 74.667 46.333 112 135 112s133 -33.333 133 -100v-179
c0 -8.66699 1.33301 -15.667 4 -21s8 -11.666 16 -18.999v-10zM227 552.999c-5.33301 -2.66699 -9.66797 -4.49902 -13.001 -5.49902s-10.666 -2.5 -21.999 -4.5l-29 -6c-17.333 -3.33301 -29.666 -8.33301 -36.999 -15s-11 -16.334 -11 -29.001c0 -12 4 -21.5 12 -28.5
s19.333 -10.5 34 -10.5c21.333 0 37.666 6.66699 48.999 20s17 32 17 56v23z" />
    <glyph glyph-name="guillemotleft" unicode="&#xab;" 
d="M88 332l167 149v-117l-101 -89l101 -89v-114l-167 146v114zM301 332l167 149v-117l-101 -89l101 -89v-114l-167 146v114z" />
    <glyph glyph-name="logicalnot" unicode="&#xac;" horiz-adv-x="584" 
d="M544 375v-289h-77v212h-427v77h504z" />
    <glyph glyph-name="sfthyphen" unicode="&#xad;" horiz-adv-x="333" 
d="M298 207h-272v135h272v-135z" />
    <glyph glyph-name="registered" unicode="&#xae;" horiz-adv-x="737" 
d="M373 743c52 0 100.835 -10.168 146.502 -30.501s85.667 -47.833 120 -82.5s61.5 -75.167 81.5 -121.5s30 -95.5 30 -147.5c0 -53.333 -10 -103.166 -30 -149.499s-47.333 -86.833 -82 -121.5s-75.167 -62 -121.5 -82s-95.833 -30 -148.5 -30s-102.334 10 -149.001 30
s-87.334 47.333 -122.001 82s-62 75.167 -82 121.5s-30 95.833 -30 148.5c0 53.333 10 103.333 30 150s47.5 87.167 82.5 121.5s76 61.5 123 81.5s97.5 30 151.5 30zM365.002 670.999c-41.333 0 -80.167 -8.16895 -116.5 -24.502s-68.166 -38.666 -95.499 -66.999
s-49 -61.333 -65 -99s-24 -77.5 -24 -119.5c0 -42.667 8 -82.834 24 -120.501s37.833 -70.667 65.5 -99s59.834 -50.666 96.501 -66.999s76 -24.5 118 -24.5s81.5 8.16699 118.5 24.5s69.333 38.5 97 66.5s49.5 60.833 65.5 98.5s24 77.834 24 120.501
c0 43.333 -8 84 -24 122s-37.833 71 -65.5 99s-60.334 50 -98.001 66s-77.834 24 -120.501 24zM288.001 139.997l-96 -0.00390625v443h238c38 0 67.667 -10.667 89 -32s32 -51 32 -89c0 -25.333 -5.66699 -46.666 -17 -63.999s-29 -32 -53 -44
c12.667 -6 22.667 -11.667 30 -17s12.833 -13.166 16.5 -23.499s6.16699 -24.666 7.5 -42.999s2.33301 -43.5 3 -75.5c0 -9.33301 1.33301 -16.333 4 -21s7.66699 -9 15 -13v-21h-103c-3.33301 6 -5.83301 11.333 -7.5 16s-3 9.83398 -4 15.501s-1.66699 12.167 -2 19.5
s-0.5 16.333 -0.5 27v14c0 4.66699 0.333008 9.66699 1 15v18c0 32 -20.333 48 -61 48h-92v-173zM391.001 393.993c24 0 40.667 3.83105 50 11.498s14 21.834 14 42.501s-4.66699 34.834 -14 42.501s-26 11.5 -50 11.5h-103v-108h103z" />
    <glyph glyph-name="macron" unicode="&#xaf;" horiz-adv-x="333" 
d="M315 640h-299v79h299v-79z" />
    <glyph glyph-name="degree" unicode="&#xb0;" horiz-adv-x="606" 
d="M304 686c20.667 0 40.001 -3.99902 58.001 -11.999s33.833 -19 47.5 -33s24.5 -30.167 32.5 -48.5s12 -37.833 12 -58.5s-4 -40.167 -12 -58.5s-18.833 -34.333 -32.5 -48s-29.834 -24.5 -48.501 -32.5s-38.334 -12 -59.001 -12s-40.167 4 -58.5 12
s-34.333 18.833 -48 32.5s-24.5 29.667 -32.5 48s-12 37.833 -12 58.5c0 21.333 4 41.166 12 59.499s18.833 34.333 32.5 48s29.834 24.5 48.501 32.5s38.667 12 60 12zM301.001 623.001c-12 0 -23.167 -2.33398 -33.5 -7.00098s-19.5 -11 -27.5 -19
s-14.333 -17.5 -19 -28.5s-7 -22.5 -7 -34.5s2.33301 -23.333 7 -34s11 -20 19 -28s17.5 -14.333 28.5 -19s22.5 -7 34.5 -7s23.333 2.33301 34 7s20 11 28 19s14.333 17.333 19 28s7 22 7 34c0 12.667 -2.33301 24.334 -7 35.001s-11 20 -19 28s-17.5 14.333 -28.5 19
s-22.833 7 -35.5 7z" />
    <glyph glyph-name="plusminus" unicode="&#xb1;" horiz-adv-x="584" 
d="M527 -16h-471v119h471v-119zM527 313h-176v-176h-119v176h-176v119h176v176h119v-176h176v-119z" />
    <glyph glyph-name="twosuperior" unicode="&#xb2;" horiz-adv-x="351" 
d="M326 284l-309.999 0.000976562c0.666992 20.667 2.83398 38.667 6.50098 54s9.5 29.5 17.5 42.5s18.5 25.167 31.5 36.5s29.167 23.333 48.5 36c24.667 16.667 44.5 30.5 59.5 41.5s26.5 21 34.5 30s13.167 17.667 15.5 26s3.5 18.166 3.5 29.499
c0 20 -5.33301 35.667 -16 47s-25.667 17 -45 17c-18.667 0 -33.334 -6 -44.001 -18s-16 -28.667 -16 -50c0 -2 0.166992 -4.66699 0.5 -8s0.833008 -7 1.5 -11h-92c-0.666992 4.66699 -1 8.66699 -1 12v8c0 18 2.83301 35.333 8.5 52s13.5 31 23.5 43
c24.667 30.667 66 46 124 46c48.667 0 86 -11.5 112 -34.5s39 -56.167 39 -99.5c0 -15.333 -1.5 -28.833 -4.5 -40.5s-8.33301 -23 -16 -34s-18.167 -22.167 -31.5 -33.5s-30 -24 -50 -38c-16.667 -11.333 -30 -20.833 -40 -28.5l-20 -15.5
c-4 -3.33301 -7.83301 -7 -11.5 -11s-8.83398 -10 -15.501 -18h187v-81z" />
    <glyph glyph-name="threesuperior" unicode="&#xb3;" horiz-adv-x="351" 
d="M134 533h14.0029c23.333 0 41.166 5 53.499 15s18.5 24.333 18.5 43c0 16.667 -4.66699 29.834 -14 39.501s-22.333 14.5 -39 14.5c-20.667 0 -35.167 -5.33301 -43.5 -16s-12.833 -30 -13.5 -58h-88c1.33301 25.333 4.16602 45.5 8.49902 60.5s11.833 28.5 22.5 40.5
c12.667 15.333 29 26.833 49 34.5s42.667 11.5 68 11.5c44 0 79.167 -10.5 105.5 -31.5s39.5 -49.5 39.5 -85.5c0 -38 -17.333 -67.667 -52 -89c44 -22 66 -56.333 66 -103c0 -42 -14.333 -75.5 -43 -100.5s-67.334 -37.5 -116.001 -37.5c-49.333 0 -87.333 12.333 -114 37
s-40.334 60 -41.001 106h92c2.66699 -44 24.334 -66 65.001 -66c18 0 32.833 5.66699 44.5 17s17.5 25.666 17.5 42.999c0 40.667 -28 61.667 -84 63h-16v62z" />
    <glyph glyph-name="acute" unicode="&#xb4;" horiz-adv-x="333" 
d="M191 607h-70l70 150h126z" />
    <glyph glyph-name="mu" unicode="&#xb5;" horiz-adv-x="611" 
d="M58 -220v760h140v-334c0 -19.333 1.16699 -34.5 3.5 -45.5s7.16602 -21.5 14.499 -31.5c14.667 -22 36.667 -33 66 -33c30 0 54.333 9.83301 73 29.5s28 45.167 28 76.5v338h140v-390c0 -29.333 2 -48.833 6 -58.5s12 -14.5 24 -14.5c4.66699 0 11.334 1.33301 20.001 4
v-87c-11.333 -6 -22.333 -10.333 -33 -13s-23 -4 -37 -4c-23.333 0 -42 4 -56 12s-27 22 -39 42c-20 -20 -38.5 -34 -55.5 -42s-37.167 -12 -60.5 -12c-21.333 0 -39.833 3 -55.5 9s-30.5 15.667 -44.5 29v-235h-134z" />
    <glyph glyph-name="paragraph" unicode="&#xb6;" 
d="M529 657h-43.002v-848h-98v848h-63v-848h-98v458c-30.667 1.33301 -58.667 8 -84 20s-47.166 28 -65.499 48s-32.5 43.667 -42.5 71s-15 57 -15 89c0 28 4.33301 55.333 13 82s21.334 51 38.001 73c38 52.667 89.667 79 155 79h303v-72z" />
    <glyph glyph-name="periodcentered" unicode="&#xb7;" horiz-adv-x="278" 
d="M188 292v-123h-124v123h124z" />
    <glyph glyph-name="cedilla" unicode="&#xb8;" horiz-adv-x="333" 
d="M205 0l-28.999 -63.001c14 4.66699 28 7 42 7c23.333 0 41.833 -6.33301 55.5 -19s20.5 -30 20.5 -52c0 -30 -11 -53 -33 -69s-53.667 -24 -95 -24c-11.333 0 -21.833 0.5 -31.5 1.5s-19.834 2.5 -30.501 4.5s-22.167 4.83301 -34.5 8.5s-26.5 8.16699 -42.5 13.5l19 52
c26.667 -12 47.167 -20 61.5 -24s28.5 -6 42.5 -6c16 0 29.5 4 40.5 12s16.5 17.667 16.5 29c0 10.667 -4.5 19.167 -13.5 25.5s-21.167 9.5 -36.5 9.5c-10 0 -18.167 -0.666992 -24.5 -2s-14.5 -4.66602 -24.5 -9.99902l54 106h43z" />
    <glyph glyph-name="onesuperior" unicode="&#xb9;" horiz-adv-x="351" 
d="M40 573v61c78 0 124 25 138 75h64v-425h-95v289h-107z" />
    <glyph glyph-name="ordmasculine" unicode="&#xba;" horiz-adv-x="365" 
d="M334 262h-301v78h301v-78zM185 729c49.333 0 88.001 -15.333 116.001 -46s42 -72.667 42 -126s-14.167 -95.166 -42.5 -125.499s-67.5 -45.5 -117.5 -45.5s-89.167 15.167 -117.5 45.5s-42.5 72.166 -42.5 125.499c0 54 14.167 96.167 42.5 126.5
s68.166 45.5 119.499 45.5zM182.001 661c-22.667 0 -40.833 -9.5 -54.5 -28.5s-20.5 -44.167 -20.5 -75.5c0 -30.667 6.83301 -55.5 20.5 -74.5s32.167 -28.5 55.5 -28.5c22.667 0 41 9.5 55 28.5s21 43.833 21 74.5c0 32 -7 57.333 -21 76s-32.667 28 -56 28z" />
    <glyph glyph-name="guillemotright" unicode="&#xbb;" 
d="M255 220l-167 -148v117l101 89l-101 89v114l167 -146v-115zM462 220l-167 -148v117l101 89l-101 89v114l167 -146v-115z" />
    <glyph glyph-name="onequarter" unicode="&#xbc;" horiz-adv-x="869" 
d="M40 573v61c78 0 124 25 138 75h64v-425h-95v289h-107zM680 715l-423 -735h-87l423 735h87zM850 93h-46v-93h-95v93h-179v74l165 258h109v-257h46v-75zM709 332l-106 -164h106v164z" />
    <glyph glyph-name="onehalf" unicode="&#xbd;" horiz-adv-x="869" 
d="M40 573v61c78 0 124 25 138 75h64v-425h-95v289h-107zM674 715l-423 -735h-87l423 735h87zM844 0l-310 0.00195312c0.666992 20 2.83398 37.833 6.50098 53.5s9.5 30 17.5 43s18.5 25.167 31.5 36.5s29.167 23.333 48.5 36c24.667 16.667 44.5 30.5 59.5 41.5
s26.5 21 34.5 30s13.167 17.667 15.5 26s3.5 18.166 3.5 29.499c0 20 -5.33301 35.667 -16 47s-25.667 17 -45 17c-18.667 0 -33.334 -6 -44.001 -18s-16 -28.667 -16 -50c0 -2 0.166992 -4.66699 0.5 -8s0.833008 -7 1.5 -11h-92c-0.666992 4.66699 -1 8.66699 -1 12v8
c0 18 2.83301 35.333 8.5 52s13.5 31 23.5 43c24.667 30.667 66 46 124 46c48.667 0 86 -11.5 112 -34.5s39 -56.167 39 -99.5c0 -15.333 -1.5 -28.833 -4.5 -40.5s-8.33301 -23 -16 -34s-18.167 -22.167 -31.5 -33.5s-30 -24 -50 -38l-39.5 -28.5
c-10.333 -7.66699 -17.166 -12.834 -20.499 -15.501c-4 -3.33301 -7.83301 -7 -11.5 -11s-8.83398 -10 -15.501 -18h187v-81z" />
    <glyph glyph-name="threequarters" unicode="&#xbe;" horiz-adv-x="869" 
d="M134 533h14.0029c23.333 0 41.166 5 53.499 15s18.5 24.333 18.5 43c0 16.667 -4.66699 29.834 -14 39.501s-22.333 14.5 -39 14.5c-20.667 0 -35.167 -5.33301 -43.5 -16s-12.833 -30 -13.5 -58h-88c1.33301 25.333 4.16602 45.5 8.49902 60.5s11.833 28.5 22.5 40.5
c12.667 15.333 29 26.833 49 34.5s42.667 11.5 68 11.5c44 0 79.167 -10.5 105.5 -31.5s39.5 -49.5 39.5 -85.5c0 -38 -17.333 -67.667 -52 -89c44 -22 66 -56.333 66 -103c0 -42 -14.333 -75.5 -43 -100.5s-67.334 -37.5 -116.001 -37.5c-49.333 0 -87.333 12.333 -114 37
s-40.334 60 -41.001 106h92c2.66699 -44 24.334 -66 65.001 -66c18 0 32.833 5.66699 44.5 17s17.5 25.666 17.5 42.999c0 40.667 -28 61.667 -84 63h-16v62zM712.003 715l-423 -735h-87l423 735h87zM850.003 93h-46v-93h-95v93h-179v74l165 258h109v-257h46v-75z
M709.003 332l-106 -164h106v164z" />
    <glyph glyph-name="questiondown" unicode="&#xbf;" horiz-adv-x="611" 
d="M363 339c0.666992 -21.333 -0.331055 -40.502 -2.99805 -57.502s-7.83398 -33 -15.501 -48s-18.167 -30 -31.5 -45s-30 -30.833 -50 -47.5c-14.667 -12 -26.667 -22.5 -36 -31.5s-16.5 -17.5 -21.5 -25.5s-8.5 -16.333 -10.5 -25s-3 -18.667 -3 -30
c0 -16.667 2.66699 -32 8 -46s12.666 -26.167 21.999 -36.5s20.333 -18.333 33 -24s26.667 -8.5 42 -8.5c34.667 0 61.834 12.833 81.501 38.5s29.5 61.167 29.5 106.5h136c-0.666992 -42.667 -4.83398 -77.667 -12.501 -105s-20.5 -52 -38.5 -74
c-44.667 -56 -108.667 -84 -192 -84c-37.333 0 -71.333 5.66699 -102 17s-57 27 -79 47s-39 44.167 -51 72.5s-18 59.5 -18 93.5c0 20.667 1.83301 39.334 5.5 56.001s10.167 32.5 19.5 47.5s21.833 29.667 37.5 44s35.167 29.833 58.5 46.5
c14.667 10.667 26.5 19.834 35.5 27.501s15.833 15.5 20.5 23.5s7.66699 17.333 9 28s2 24 2 40h124zM223.002 539.998h150v-146h-150v146z" />
    <glyph glyph-name="Agrave" unicode="&#xc0;" horiz-adv-x="722" 
d="M228 147l-49 -147h-153l259 729h166l252 -729h-154l-48 147h-273zM365 557l-95 -285h190zM347 936l70 -150h-70l-126 150h126z" />
    <glyph glyph-name="Aacute" unicode="&#xc1;" horiz-adv-x="722" 
d="M228 147l-49 -147h-153l259 729h166l252 -729h-154l-48 147h-273zM365 557l-95 -285h190zM384 786h-70l70 150h126z" />
    <glyph glyph-name="Acircumflex" unicode="&#xc2;" horiz-adv-x="722" 
d="M228 147l-49 -147h-153l259 729h166l252 -729h-154l-48 147h-273zM365 557l-95 -285h190zM420 936l103 -150h-78l-82 100l-82 -100h-76l108 150h107z" />
    <glyph glyph-name="Atilde" unicode="&#xc3;" horiz-adv-x="722" 
d="M228 147l-49 -147h-153l259 729h166l252 -729h-154l-48 147h-273zM365 557l-95 -285h190zM547 928c-4.66699 -84.667 -35.999 -127.001 -93.999 -127.001c-16.667 0 -35.334 4 -56.001 12l-71 26c-11.333 4 -21.333 6 -30 6c-12 0 -21 -3.5 -27 -10.5
s-10.333 -18.5 -13 -34.5h-63c2 39.333 11.167 69.833 27.5 91.5s38.5 32.5 66.5 32.5c4.66699 0 8.66699 -0.166992 12 -0.5s6.83301 -0.833008 10.5 -1.5s8.16699 -2 13.5 -4s12 -4.33301 20 -7l71 -25c4 -1.33301 9.83301 -2.66602 17.5 -3.99902s13.167 -2 16.5 -2
c20.667 0 32.667 16 36 48h63z" />
    <glyph glyph-name="Adieresis" unicode="&#xc4;" horiz-adv-x="722" 
d="M228 147l-49 -147h-153l259 729h166l252 -729h-154l-48 147h-273zM365 557l-95 -285h190zM326 800h-110v122h110v-122zM512 800h-110v122h110v-122z" />
    <glyph glyph-name="Aring" unicode="&#xc5;" horiz-adv-x="722" 
d="M228 147l-49 -147h-153l259 729h166l252 -729h-154l-48 147h-273zM365 557l-95 -285h190zM367 949c24.667 0 45.498 -8.66699 62.498 -26s25.5 -38.666 25.5 -63.999s-8.66699 -46.666 -26 -63.999s-38.666 -26 -63.999 -26s-46.666 8.66699 -63.999 26
s-26 38.666 -26 63.999s8.83301 46.666 26.5 63.999s39.5 26 65.5 26zM364.998 901c-11.333 0 -21.167 -4.16797 -29.5 -12.501s-12.5 -18.166 -12.5 -29.499s4.16699 -21.166 12.5 -29.499s18.5 -12.5 30.5 -12.5c11.333 0 21 4.16699 29 12.5s12 18.166 12 29.499
c0 12 -4 22 -12 30s-18 12 -30 12z" />
    <glyph glyph-name="AE" unicode="&#xc6;" horiz-adv-x="1000" 
d="M207 152l-53 -152h-153l263 729h682v-125h-366v-165h339v-125h-339v-189h386v-125h-536v152h-223zM430 604h-67l-114 -327h181v327z" />
    <glyph glyph-name="Ccedilla" unicode="&#xc7;" horiz-adv-x="722" 
d="M360 -63c13.333 4.66699 27.333 7.00195 42 7.00195c23.333 0 41.833 -6.33301 55.5 -19s20.5 -30 20.5 -52c0 -30 -11 -53 -33 -69s-53.667 -24 -95 -24c-11.333 0 -21.833 0.5 -31.5 1.5s-19.834 2.5 -30.501 4.5s-22.167 4.83301 -34.5 8.5s-26.5 8.16699 -42.5 13.5
l19 52c26.667 -12 47.167 -20 61.5 -24s28.5 -6 42.5 -6c16 0 29.5 4 40.5 12s16.5 17.667 16.5 29c0 10.667 -4.5 19.167 -13.5 25.5s-21.167 9.5 -36.5 9.5c-10 0 -18.333 -0.833008 -25 -2.5s-14.667 -4.83398 -24 -9.50098l43 83c-24 4 -45 8.5 -63 13.5
s-34 10.667 -48 17s-27 14 -39 23s-24.333 19.833 -37 32.5c-69.333 70.667 -104 169 -104 295c0 58.667 7.66699 111.667 23 159s37.5 87.666 66.5 120.999s64.167 58.833 105.5 76.5s87.666 26.5 138.999 26.5c56.667 0 107.167 -10.5 151.5 -31.5
s80.5 -50.833 108.5 -89.5c13.333 -20 23.5 -40.5 30.5 -61.5s11.5 -46.5 13.5 -76.5h-143c-10 44.667 -27.5 77.667 -52.5 99s-59.5 32 -103.5 32c-59.333 0 -105.666 -22.667 -138.999 -68s-50 -108.333 -50 -189s16 -143 48 -187s77.333 -66 136 -66
c46.667 0 83.834 12.667 111.501 38s44.167 61.333 49.5 108h146c-2 -41.333 -10.5 -78.5 -25.5 -111.5s-35.667 -61.333 -62 -85s-58 -42 -95 -55s-78.167 -19.833 -123.5 -20.5z" />
    <glyph glyph-name="Egrave" unicode="&#xc8;" horiz-adv-x="667" 
d="M229 125h395v-125h-545v729h527v-125h-377v-165h349v-125h-349v-189zM334 936l70 -150h-70l-126 150h126z" />
    <glyph glyph-name="Eacute" unicode="&#xc9;" horiz-adv-x="667" 
d="M229 125h395v-125h-545v729h527v-125h-377v-165h349v-125h-349v-189zM354 786h-70l70 150h126z" />
    <glyph glyph-name="Ecircumflex" unicode="&#xca;" horiz-adv-x="667" 
d="M229 125h395v-125h-545v729h527v-125h-377v-165h349v-125h-349v-189zM401 936l103 -150h-78l-82 100l-82 -100h-76l108 150h107z" />
    <glyph glyph-name="Edieresis" unicode="&#xcb;" horiz-adv-x="667" 
d="M229 125h395v-125h-545v729h527v-125h-377v-165h349v-125h-349v-189zM307 800h-110v122h110v-122zM493 800h-110v122h110v-122z" />
    <glyph glyph-name="Igrave" unicode="&#xcc;" horiz-adv-x="278" 
d="M213 0h-150v729h150v-729zM116 936l70 -150h-70l-126 150h126z" />
    <glyph glyph-name="Iacute" unicode="&#xcd;" horiz-adv-x="278" 
d="M213 0h-150v729h150v-729zM164 786h-70l70 150h126z" />
    <glyph glyph-name="Icircumflex" unicode="&#xce;" horiz-adv-x="278" 
d="M213 0h-150v729h150v-729zM196 936l103 -150h-78l-82 100l-82 -100h-76l108 150h107z" />
    <glyph glyph-name="Idieresis" unicode="&#xcf;" horiz-adv-x="278" 
d="M213 0h-150v729h150v-729zM101 800h-110v122h110v-122zM287 800h-110v122h110v-122z" />
    <glyph glyph-name="Eth" unicode="&#xd0;" horiz-adv-x="722" 
d="M0 339l-0.000976562 79.999h77v310h285c57.333 0 104 -6.66699 140 -20s66.333 -34.666 91 -63.999c28 -34.667 49.667 -76.5 65 -125.5s23 -100.5 23 -154.5s-7.66699 -105.667 -23 -155s-37 -91 -65 -125c-24 -30 -54.167 -51.667 -90.5 -65s-83.166 -20 -140.499 -20
h-285v339h-77zM226.999 124.999l135 0.00195312c32.667 0 59 4.16699 79 12.5s36.667 22.166 50 41.499c30.667 43.333 46 105 46 185c0 80.667 -15.333 142.667 -46 186c-13.333 19.333 -30 33.166 -50 41.499s-46.333 12.5 -79 12.5h-135v-185h150v-80h-150v-214z" />
    <glyph glyph-name="Ntilde" unicode="&#xd1;" horiz-adv-x="722" 
d="M218 504v-504h-150v729h154l289 -496v496h150v-729h-150zM548 928c-4.66699 -84.667 -35.999 -127.001 -93.999 -127.001c-16.667 0 -35.334 4 -56.001 12l-71 26c-11.333 4 -21.333 6 -30 6c-12 0 -21 -3.5 -27 -10.5s-10.333 -18.5 -13 -34.5h-63
c2 39.333 11.167 69.833 27.5 91.5s38.5 32.5 66.5 32.5c4.66699 0 8.66699 -0.166992 12 -0.5s6.83301 -0.833008 10.5 -1.5s8.16699 -2 13.5 -4s12 -4.33301 20 -7l71 -25c4 -1.33301 9.83301 -2.66602 17.5 -3.99902s13.167 -2 16.5 -2c20.667 0 32.667 16 36 48h63z" />
    <glyph glyph-name="Ograve" unicode="&#xd2;" horiz-adv-x="778" 
d="M396 741c50.667 0 97.332 -9.33203 139.999 -27.999s79.167 -44.834 109.5 -78.501s54 -74 71 -121s25.5 -98.5 25.5 -154.5c0 -54.667 -9 -106.5 -27 -155.5s-43 -90.833 -75 -125.5c-62.667 -67.333 -145.667 -101 -249 -101s-186.333 33.667 -249 101
c-32 34.667 -57 76.5 -75 125.5s-27 100.5 -27 154.5c0 55.333 8.83301 107.333 26.5 156s42.834 90.667 75.501 126c32 34.667 68.667 60.167 110 76.5s89.333 24.5 144 24.5zM387.998 613.001c-30 0 -57.1699 -6.16797 -81.5029 -18.501s-45.166 -29.5 -62.499 -51.5
s-30.666 -48.667 -39.999 -80s-14 -66 -14 -104c0 -38.667 4.66699 -73.667 14 -105s22.833 -58 40.5 -80s38.834 -39 63.501 -51s52.334 -18 83.001 -18c30 0 57.5 6 82.5 18s46.167 29 63.5 51s30.833 48.667 40.5 80s14.5 66 14.5 104
c0 38.667 -4.83301 73.834 -14.5 105.501s-23.334 58.5 -41.001 80.5s-39 39 -64 51s-53.167 18 -84.5 18zM379.995 936l70 -150h-70l-126 150h126z" />
    <glyph glyph-name="Oacute" unicode="&#xd3;" horiz-adv-x="778" 
d="M396 741c50.667 0 97.332 -9.33203 139.999 -27.999s79.167 -44.834 109.5 -78.501s54 -74 71 -121s25.5 -98.5 25.5 -154.5c0 -54.667 -9 -106.5 -27 -155.5s-43 -90.833 -75 -125.5c-62.667 -67.333 -145.667 -101 -249 -101s-186.333 33.667 -249 101
c-32 34.667 -57 76.5 -75 125.5s-27 100.5 -27 154.5c0 55.333 8.83301 107.333 26.5 156s42.834 90.667 75.501 126c32 34.667 68.667 60.167 110 76.5s89.333 24.5 144 24.5zM387.998 613.001c-30 0 -57.1699 -6.16797 -81.5029 -18.501s-45.166 -29.5 -62.499 -51.5
s-30.666 -48.667 -39.999 -80s-14 -66 -14 -104c0 -38.667 4.66699 -73.667 14 -105s22.833 -58 40.5 -80s38.834 -39 63.501 -51s52.334 -18 83.001 -18c30 0 57.5 6 82.5 18s46.167 29 63.5 51s30.833 48.667 40.5 80s14.5 66 14.5 104
c0 38.667 -4.83301 73.834 -14.5 105.501s-23.334 58.5 -41.001 80.5s-39 39 -64 51s-53.167 18 -84.5 18zM403.995 786h-70l70 150h126z" />
    <glyph glyph-name="Ocircumflex" unicode="&#xd4;" horiz-adv-x="778" 
d="M396 741c50.667 0 97.332 -9.33203 139.999 -27.999s79.167 -44.834 109.5 -78.501s54 -74 71 -121s25.5 -98.5 25.5 -154.5c0 -54.667 -9 -106.5 -27 -155.5s-43 -90.833 -75 -125.5c-62.667 -67.333 -145.667 -101 -249 -101s-186.333 33.667 -249 101
c-32 34.667 -57 76.5 -75 125.5s-27 100.5 -27 154.5c0 55.333 8.83301 107.333 26.5 156s42.834 90.667 75.501 126c32 34.667 68.667 60.167 110 76.5s89.333 24.5 144 24.5zM387.998 613.001c-30 0 -57.1699 -6.16797 -81.5029 -18.501s-45.166 -29.5 -62.499 -51.5
s-30.666 -48.667 -39.999 -80s-14 -66 -14 -104c0 -38.667 4.66699 -73.667 14 -105s22.833 -58 40.5 -80s38.834 -39 63.501 -51s52.334 -18 83.001 -18c30 0 57.5 6 82.5 18s46.167 29 63.5 51s30.833 48.667 40.5 80s14.5 66 14.5 104
c0 38.667 -4.83301 73.834 -14.5 105.501s-23.334 58.5 -41.001 80.5s-39 39 -64 51s-53.167 18 -84.5 18zM446.995 936l103 -150h-78l-82 100l-82 -100h-76l108 150h107z" />
    <glyph glyph-name="Otilde" unicode="&#xd5;" horiz-adv-x="778" 
d="M396 741c50.667 0 97.332 -9.33203 139.999 -27.999s79.167 -44.834 109.5 -78.501s54 -74 71 -121s25.5 -98.5 25.5 -154.5c0 -54.667 -9 -106.5 -27 -155.5s-43 -90.833 -75 -125.5c-62.667 -67.333 -145.667 -101 -249 -101s-186.333 33.667 -249 101
c-32 34.667 -57 76.5 -75 125.5s-27 100.5 -27 154.5c0 55.333 8.83301 107.333 26.5 156s42.834 90.667 75.501 126c32 34.667 68.667 60.167 110 76.5s89.333 24.5 144 24.5zM387.998 613.001c-30 0 -57.1699 -6.16797 -81.5029 -18.501s-45.166 -29.5 -62.499 -51.5
s-30.666 -48.667 -39.999 -80s-14 -66 -14 -104c0 -38.667 4.66699 -73.667 14 -105s22.833 -58 40.5 -80s38.834 -39 63.501 -51s52.334 -18 83.001 -18c30 0 57.5 6 82.5 18s46.167 29 63.5 51s30.833 48.667 40.5 80s14.5 66 14.5 104
c0 38.667 -4.83301 73.834 -14.5 105.501s-23.334 58.5 -41.001 80.5s-39 39 -64 51s-53.167 18 -84.5 18zM574.995 928c-4.66699 -84.667 -35.999 -127.001 -93.999 -127.001c-16.667 0 -35.334 4 -56.001 12l-71 26c-11.333 4 -21.333 6 -30 6c-12 0 -21 -3.5 -27 -10.5
s-10.333 -18.5 -13 -34.5h-63c2 39.333 11.167 69.833 27.5 91.5s38.5 32.5 66.5 32.5c4.66699 0 8.66699 -0.166992 12 -0.5s6.83301 -0.833008 10.5 -1.5s8.16699 -2 13.5 -4s12 -4.33301 20 -7l71 -25c4 -1.33301 9.83301 -2.66602 17.5 -3.99902s13.167 -2 16.5 -2
c20.667 0 32.667 16 36 48h63z" />
    <glyph glyph-name="Odieresis" unicode="&#xd6;" horiz-adv-x="778" 
d="M396 741c50.667 0 97.332 -9.33203 139.999 -27.999s79.167 -44.834 109.5 -78.501s54 -74 71 -121s25.5 -98.5 25.5 -154.5c0 -54.667 -9 -106.5 -27 -155.5s-43 -90.833 -75 -125.5c-62.667 -67.333 -145.667 -101 -249 -101s-186.333 33.667 -249 101
c-32 34.667 -57 76.5 -75 125.5s-27 100.5 -27 154.5c0 55.333 8.83301 107.333 26.5 156s42.834 90.667 75.501 126c32 34.667 68.667 60.167 110 76.5s89.333 24.5 144 24.5zM387.998 613.001c-30 0 -57.1699 -6.16797 -81.5029 -18.501s-45.166 -29.5 -62.499 -51.5
s-30.666 -48.667 -39.999 -80s-14 -66 -14 -104c0 -38.667 4.66699 -73.667 14 -105s22.833 -58 40.5 -80s38.834 -39 63.501 -51s52.334 -18 83.001 -18c30 0 57.5 6 82.5 18s46.167 29 63.5 51s30.833 48.667 40.5 80s14.5 66 14.5 104
c0 38.667 -4.83301 73.834 -14.5 105.501s-23.334 58.5 -41.001 80.5s-39 39 -64 51s-53.167 18 -84.5 18zM352.995 800h-110v122h110v-122zM538.995 800h-110v122h110v-122z" />
    <glyph glyph-name="multiply" unicode="&#xd7;" horiz-adv-x="584" 
d="M505 360l-129 -129l128 -129l-84 -84l-128 129l-128 -128l-84 84l128 128l-129 128l84 85l129 -129l129 129z" />
    <glyph glyph-name="Oslash" unicode="&#xd8;" horiz-adv-x="778" 
d="M82 -39l-51 45.999l86 95c-54.667 73.333 -82 159 -82 257c0 54.667 8.83301 106.5 26.5 155.5s43.167 90.833 76.5 125.5c62.667 67.333 145.667 101 249 101c48 0 90.5 -6.66699 127.5 -20s72.167 -34.666 105.5 -63.999l83 92l52 -45l-89 -99
c22.667 -30.667 40.5 -68 53.5 -112s19.5 -89.333 19.5 -136c0 -54 -9 -105.5 -27 -154.5s-43 -90.5 -75 -124.5c-63.333 -67.333 -146.333 -101 -249 -101c-90.667 0 -165 25 -223 75zM256 152.999c15.333 -15.333 34.5 -27.165 57.5 -35.498s47.5 -12.5 73.5 -12.5
c30.667 0 58.5 6 83.5 18s46.167 29.167 63.5 51.5s30.833 49.166 40.5 80.499s14.5 66.666 14.5 105.999c0 24 -1.83301 47.833 -5.5 71.5s-9.16699 45.167 -16.5 64.5zM528 555c-36.667 38.667 -83.333 58 -140 58c-31.333 0 -59.5 -6 -84.5 -18
s-46.167 -29.167 -63.5 -51.5s-30.833 -49.333 -40.5 -81s-14.5 -67.167 -14.5 -106.5c0 -56.667 9.66699 -105.667 29 -147z" />
    <glyph glyph-name="Ugrave" unicode="&#xd9;" horiz-adv-x="722" 
d="M654 729v-494c0 -41.333 -5.66699 -76.833 -17 -106.5s-29.333 -55.5 -54 -77.5c-26.667 -24 -58.667 -42.333 -96 -55s-78 -19 -122 -19s-84.667 6.33301 -122 19s-69.333 31 -96 55c-24.667 22 -42.667 47.833 -54 77.5s-17 65.167 -17 106.5v494h150v-494
c0 -86.667 46.333 -130 139 -130s139 43.333 139 130v494h150zM354 936l70 -150h-70l-126 150h126z" />
    <glyph glyph-name="Uacute" unicode="&#xda;" horiz-adv-x="722" 
d="M654 729v-494c0 -41.333 -5.66699 -76.833 -17 -106.5s-29.333 -55.5 -54 -77.5c-26.667 -24 -58.667 -42.333 -96 -55s-78 -19 -122 -19s-84.667 6.33301 -122 19s-69.333 31 -96 55c-24.667 22 -42.667 47.833 -54 77.5s-17 65.167 -17 106.5v494h150v-494
c0 -86.667 46.333 -130 139 -130s139 43.333 139 130v494h150zM378 786h-70l70 150h126z" />
    <glyph glyph-name="Ucircumflex" unicode="&#xdb;" horiz-adv-x="722" 
d="M654 729v-494c0 -41.333 -5.66699 -76.833 -17 -106.5s-29.333 -55.5 -54 -77.5c-26.667 -24 -58.667 -42.333 -96 -55s-78 -19 -122 -19s-84.667 6.33301 -122 19s-69.333 31 -96 55c-24.667 22 -42.667 47.833 -54 77.5s-17 65.167 -17 106.5v494h150v-494
c0 -86.667 46.333 -130 139 -130s139 43.333 139 130v494h150zM421 936l103 -150h-78l-82 100l-82 -100h-76l108 150h107z" />
    <glyph glyph-name="Udieresis" unicode="&#xdc;" horiz-adv-x="722" 
d="M654 729v-494c0 -41.333 -5.66699 -76.833 -17 -106.5s-29.333 -55.5 -54 -77.5c-26.667 -24 -58.667 -42.333 -96 -55s-78 -19 -122 -19s-84.667 6.33301 -122 19s-69.333 31 -96 55c-24.667 22 -42.667 47.833 -54 77.5s-17 65.167 -17 106.5v494h150v-494
c0 -86.667 46.333 -130 139 -130s139 43.333 139 130v494h150zM327 800h-110v122h110v-122zM513 800h-110v122h110v-122z" />
    <glyph glyph-name="Yacute" unicode="&#xdd;" horiz-adv-x="667" 
d="M419 0h-150v270l-242 459h167l149 -322l139 322h168l-231 -459v-270zM354 786h-70l70 150h126z" />
    <glyph glyph-name="Thorn" unicode="&#xde;" horiz-adv-x="667" 
d="M226 0h-150v729h150v-120h172c41.333 0 75.5 -4.5 102.5 -13.5s50.5 -23.167 70.5 -42.5c41.333 -40.667 62 -97.667 62 -171c0 -37.333 -5.16699 -70.833 -15.5 -100.5s-25 -55 -44 -76s-42 -37.167 -69 -48.5s-57.5 -17 -91.5 -17h-187v-140zM366 265
c40 0 69.5 8.83301 88.5 26.5s28.5 45.5 28.5 83.5c0 37.333 -9.5 64.833 -28.5 82.5s-48.5 26.5 -88.5 26.5h-140v-219h140z" />
    <glyph glyph-name="germandbls" unicode="&#xdf;" horiz-adv-x="611" 
d="M285 444l9.00098 -0.00488281c30 0.666992 53.833 8.83398 71.5 24.501s26.5 37.167 26.5 64.5c0 26 -8.66699 46.333 -26 61s-41.333 22 -72 22c-28 0 -49.5 -6.83301 -64.5 -20.5s-22.5 -33.167 -22.5 -58.5v-537h-140v518c0 40.667 5.16699 73.834 15.5 99.501
s27.166 47.167 50.499 64.5c19.333 14.667 44.166 26.167 74.499 34.5s62.166 12.5 95.499 12.5c34 0 65 -4.5 93 -13.5s52 -21.5 72 -37.5s35.667 -35.167 47 -57.5s17 -46.833 17 -73.5c0 -68 -29 -113.333 -87 -136c17.333 -3.33301 31.5 -8 42.5 -14
s23.167 -15 36.5 -27c18.667 -17.333 31.834 -36.166 39.501 -56.499s11.5 -46.166 11.5 -77.499c0 -38 -5.16699 -72.5 -15.5 -103.5s-25 -57.667 -44 -80s-41.833 -39.5 -68.5 -51.5s-56.334 -18 -89.001 -18c-11.333 0 -22.166 0.333008 -32.499 1
s-23.833 2.33398 -40.5 5.00098v112l13 1h20c34.667 1.33301 62.834 13.333 84.501 36s32.5 51.667 32.5 87c0 39.333 -12 69.833 -36 91.5s-57.667 32.5 -101 32.5h-13v95z" />
    <glyph glyph-name="agrave" unicode="&#xe0;" 
d="M524 0l-152 -0.000976562c-6.66699 8 -11 15.5 -13 22.5s-3 17.5 -3 31.5c-49.333 -51.333 -104 -77 -164 -77c-24.667 0 -47.167 3.83301 -67.5 11.5s-37.666 18.667 -51.999 33s-25.333 31.5 -33 51.5s-11.5 42 -11.5 66c0 95.333 53 152 159 170l56 10
c17.333 2.66699 30.666 4.83398 39.999 6.50098s16.833 3.16699 22.5 4.5s10.167 2.66602 13.5 3.99902s7.33301 3.33301 12 6c16 8.66699 24 22.667 24 42c0 36 -27 54 -81 54c-34.667 0 -59 -5.33301 -73 -16s-22.667 -30 -26 -58h-135
c8.66699 124.667 85.667 187 231 187c147.333 0 221 -55.333 221 -166v-300c0 -14 2.16699 -25.667 6.5 -35s12.833 -19.666 25.5 -30.999v-17zM355 254.999c-4 -2 -7.66699 -3.66797 -11 -5.00098s-7 -2.66602 -11 -3.99902s-8.83301 -2.5 -14.5 -3.5
s-13.167 -2.5 -22.5 -4.5l-48 -9c-29.333 -6 -50 -14.5 -62 -25.5s-18 -27.167 -18 -48.5c0 -20 6.83301 -35.833 20.5 -47.5s32.167 -17.5 55.5 -17.5c36 0 63.5 11 82.5 33s28.5 53.333 28.5 94v38zM258 756.998l70 -150h-70l-126 150h126z" />
    <glyph glyph-name="aacute" unicode="&#xe1;" 
d="M524 0l-152 -0.000976562c-6.66699 8 -11 15.5 -13 22.5s-3 17.5 -3 31.5c-49.333 -51.333 -104 -77 -164 -77c-24.667 0 -47.167 3.83301 -67.5 11.5s-37.666 18.667 -51.999 33s-25.333 31.5 -33 51.5s-11.5 42 -11.5 66c0 95.333 53 152 159 170l56 10
c17.333 2.66699 30.666 4.83398 39.999 6.50098s16.833 3.16699 22.5 4.5s10.167 2.66602 13.5 3.99902s7.33301 3.33301 12 6c16 8.66699 24 22.667 24 42c0 36 -27 54 -81 54c-34.667 0 -59 -5.33301 -73 -16s-22.667 -30 -26 -58h-135
c8.66699 124.667 85.667 187 231 187c147.333 0 221 -55.333 221 -166v-300c0 -14 2.16699 -25.667 6.5 -35s12.833 -19.666 25.5 -30.999v-17zM355 254.999c-4 -2 -7.66699 -3.66797 -11 -5.00098s-7 -2.66602 -11 -3.99902s-8.83301 -2.5 -14.5 -3.5
s-13.167 -2.5 -22.5 -4.5l-48 -9c-29.333 -6 -50 -14.5 -62 -25.5s-18 -27.167 -18 -48.5c0 -20 6.83301 -35.833 20.5 -47.5s32.167 -17.5 55.5 -17.5c36 0 63.5 11 82.5 33s28.5 53.333 28.5 94v38zM285 606.998h-70l70 150h126z" />
    <glyph glyph-name="acircumflex" unicode="&#xe2;" 
d="M524 0l-152 -0.000976562c-6.66699 8 -11 15.5 -13 22.5s-3 17.5 -3 31.5c-49.333 -51.333 -104 -77 -164 -77c-24.667 0 -47.167 3.83301 -67.5 11.5s-37.666 18.667 -51.999 33s-25.333 31.5 -33 51.5s-11.5 42 -11.5 66c0 95.333 53 152 159 170l56 10
c17.333 2.66699 30.666 4.83398 39.999 6.50098s16.833 3.16699 22.5 4.5s10.167 2.66602 13.5 3.99902s7.33301 3.33301 12 6c16 8.66699 24 22.667 24 42c0 36 -27 54 -81 54c-34.667 0 -59 -5.33301 -73 -16s-22.667 -30 -26 -58h-135
c8.66699 124.667 85.667 187 231 187c147.333 0 221 -55.333 221 -166v-300c0 -14 2.16699 -25.667 6.5 -35s12.833 -19.666 25.5 -30.999v-17zM355 254.999c-4 -2 -7.66699 -3.66797 -11 -5.00098s-7 -2.66602 -11 -3.99902s-8.83301 -2.5 -14.5 -3.5
s-13.167 -2.5 -22.5 -4.5l-48 -9c-29.333 -6 -50 -14.5 -62 -25.5s-18 -27.167 -18 -48.5c0 -20 6.83301 -35.833 20.5 -47.5s32.167 -17.5 55.5 -17.5c36 0 63.5 11 82.5 33s28.5 53.333 28.5 94v38zM328 756.998l103 -150h-78l-82 100l-82 -100h-76l108 150h107z" />
    <glyph glyph-name="atilde" unicode="&#xe3;" 
d="M524 0l-152 -0.000976562c-6.66699 8 -11 15.5 -13 22.5s-3 17.5 -3 31.5c-49.333 -51.333 -104 -77 -164 -77c-24.667 0 -47.167 3.83301 -67.5 11.5s-37.666 18.667 -51.999 33s-25.333 31.5 -33 51.5s-11.5 42 -11.5 66c0 95.333 53 152 159 170l56 10
c17.333 2.66699 30.666 4.83398 39.999 6.50098s16.833 3.16699 22.5 4.5s10.167 2.66602 13.5 3.99902s7.33301 3.33301 12 6c16 8.66699 24 22.667 24 42c0 36 -27 54 -81 54c-34.667 0 -59 -5.33301 -73 -16s-22.667 -30 -26 -58h-135
c8.66699 124.667 85.667 187 231 187c147.333 0 221 -55.333 221 -166v-300c0 -14 2.16699 -25.667 6.5 -35s12.833 -19.666 25.5 -30.999v-17zM355 254.999c-4 -2 -7.66699 -3.66797 -11 -5.00098s-7 -2.66602 -11 -3.99902s-8.83301 -2.5 -14.5 -3.5
s-13.167 -2.5 -22.5 -4.5l-48 -9c-29.333 -6 -50 -14.5 -62 -25.5s-18 -27.167 -18 -48.5c0 -20 6.83301 -35.833 20.5 -47.5s32.167 -17.5 55.5 -17.5c36 0 63.5 11 82.5 33s28.5 53.333 28.5 94v38zM449 748.998c-4 -84.667 -35.332 -127.001 -93.999 -127.001
c-16.667 0 -35.334 4 -56.001 12l-71 26c-12 4 -22 6 -30 6c-12 0 -21 -3.5 -27 -10.5s-10.333 -18.5 -13 -34.5h-63c2 39.333 11.167 69.833 27.5 91.5s38.5 32.5 66.5 32.5h11.5c3 0 6.33301 -0.5 10 -1.5s8 -2.33301 13 -4l21.5 -7.5l71 -25
c3.33301 -1.33301 9 -2.66602 17 -3.99902s13.667 -2 17 -2c20.667 0 32.667 16 36 48h63z" />
    <glyph glyph-name="adieresis" unicode="&#xe4;" 
d="M524 0l-152 -0.000976562c-6.66699 8 -11 15.5 -13 22.5s-3 17.5 -3 31.5c-49.333 -51.333 -104 -77 -164 -77c-24.667 0 -47.167 3.83301 -67.5 11.5s-37.666 18.667 -51.999 33s-25.333 31.5 -33 51.5s-11.5 42 -11.5 66c0 95.333 53 152 159 170l56 10
c17.333 2.66699 30.666 4.83398 39.999 6.50098s16.833 3.16699 22.5 4.5s10.167 2.66602 13.5 3.99902s7.33301 3.33301 12 6c16 8.66699 24 22.667 24 42c0 36 -27 54 -81 54c-34.667 0 -59 -5.33301 -73 -16s-22.667 -30 -26 -58h-135
c8.66699 124.667 85.667 187 231 187c147.333 0 221 -55.333 221 -166v-300c0 -14 2.16699 -25.667 6.5 -35s12.833 -19.666 25.5 -30.999v-17zM355 254.999c-4 -2 -7.66699 -3.66797 -11 -5.00098s-7 -2.66602 -11 -3.99902s-8.83301 -2.5 -14.5 -3.5
s-13.167 -2.5 -22.5 -4.5l-48 -9c-29.333 -6 -50 -14.5 -62 -25.5s-18 -27.167 -18 -48.5c0 -20 6.83301 -35.833 20.5 -47.5s32.167 -17.5 55.5 -17.5c36 0 63.5 11 82.5 33s28.5 53.333 28.5 94v38zM234 620.998h-110v122h110v-122zM420 620.998h-110v122h110v-122z" />
    <glyph glyph-name="aring" unicode="&#xe5;" 
d="M524 0l-152 -0.000976562c-6.66699 8 -11 15.5 -13 22.5s-3 17.5 -3 31.5c-49.333 -51.333 -104 -77 -164 -77c-24.667 0 -47.167 3.83301 -67.5 11.5s-37.666 18.667 -51.999 33s-25.333 31.5 -33 51.5s-11.5 42 -11.5 66c0 95.333 53 152 159 170l56 10
c17.333 2.66699 30.666 4.83398 39.999 6.50098s16.833 3.16699 22.5 4.5s10.167 2.66602 13.5 3.99902s7.33301 3.33301 12 6c16 8.66699 24 22.667 24 42c0 36 -27 54 -81 54c-34.667 0 -59 -5.33301 -73 -16s-22.667 -30 -26 -58h-135
c8.66699 124.667 85.667 187 231 187c147.333 0 221 -55.333 221 -166v-300c0 -14 2.16699 -25.667 6.5 -35s12.833 -19.666 25.5 -30.999v-17zM355 254.999c-4 -2 -7.66699 -3.66797 -11 -5.00098s-7 -2.66602 -11 -3.99902s-8.83301 -2.5 -14.5 -3.5
s-13.167 -2.5 -22.5 -4.5l-48 -9c-29.333 -6 -50 -14.5 -62 -25.5s-18 -27.167 -18 -48.5c0 -20 6.83301 -35.833 20.5 -47.5s32.167 -17.5 55.5 -17.5c36 0 63.5 11 82.5 33s28.5 53.333 28.5 94v38zM274 769.998c24.667 0 45.498 -8.66699 62.498 -26
s25.5 -38.666 25.5 -63.999s-8.66699 -46.666 -26 -63.999s-38.666 -26 -63.999 -26s-46.666 8.66699 -63.999 26s-26 38.666 -26 63.999s8.83301 46.666 26.5 63.999s39.5 26 65.5 26zM271.998 721.998c-11.333 0 -21.167 -4.16797 -29.5 -12.501
s-12.5 -18.166 -12.5 -29.499s4.16699 -21.166 12.5 -29.499s18.5 -12.5 30.5 -12.5c11.333 0 21 4.16699 29 12.5s12 18.166 12 29.499c0 12 -4 22 -12 30s-18 12 -30 12z" />
    <glyph glyph-name="ae" unicode="&#xe6;" horiz-adv-x="889" 
d="M850 152c-8 -26.667 -19.667 -50.835 -35 -72.502s-33.833 -40 -55.5 -55s-46 -26.667 -73 -35s-55.833 -12.5 -86.5 -12.5c-44 0 -83 8.83301 -117 26.5s-61.667 43.5 -83 77.5c-31.333 -37.333 -63.166 -64.166 -95.499 -80.499s-68.833 -24.5 -109.5 -24.5
c-52 0 -93 14.833 -123 44.5s-45 69.834 -45 120.501c0 96 53 153 159 171l56 10c17.333 2.66699 30.666 4.83398 39.999 6.50098s16.833 3.16699 22.5 4.5s10.167 2.66602 13.5 3.99902s7.33301 3.33301 12 6c7.33301 4 13.166 9.66699 17.499 17s6.5 15 6.5 23
c0 35.333 -28.333 53 -85 53c-32 0 -55 -5.5 -69 -16.5s-22.667 -30.167 -26 -57.5h-131c2 124.667 77.667 187 227 187c78.667 0 137.334 -16.667 176.001 -50c41.333 33.333 93 50 155 50c57.333 0 106.833 -14.333 148.5 -43s71.167 -69 88.5 -121
c6 -17.333 10.667 -37.833 14 -61.5s5 -47.834 5 -72.501v-10.5c0 -3.66699 -0.333008 -8.5 -1 -14.5h-362c0 -23.333 1.5 -42.166 4.5 -56.499s8.83301 -27.5 17.5 -39.5c10 -14.667 23 -26 39 -34s33.667 -12 53 -12c24 0 45.833 6.33301 65.5 19s32.5 29 38.5 49h138z
M354 253.999c-8.66699 -5.33301 -16.833 -9.16699 -24.5 -11.5s-19.167 -4.83301 -34.5 -7.5l-48 -7c-53.333 -7.33301 -80 -31.666 -80 -72.999c0 -20.667 6.83301 -36.834 20.5 -48.501s32.167 -17.5 55.5 -17.5c36 0 63.5 10.833 82.5 32.5s28.5 53.167 28.5 94.5v38z
M711.001 318.998c-7.33301 82 -43.667 123 -109 123s-101 -41 -107 -123h216z" />
    <glyph glyph-name="ccedilla" unicode="&#xe7;" 
d="M274 -63c13.333 4.66699 27.3301 7.00098 41.9971 7.00098c23.333 0 41.833 -6.33301 55.5 -19s20.5 -30 20.5 -52c0 -30 -11 -53 -33 -69s-53.667 -24 -95 -24c-11.333 0 -22.166 0.5 -32.499 1.5s-20.666 2.5 -30.999 4.5s-21.666 4.83301 -33.999 8.5
s-26.166 8.16699 -41.499 13.5l19 52c25.333 -11.333 45.5 -19.166 60.5 -23.499s29.5 -6.5 43.5 -6.5c16 0 29.5 4 40.5 12s16.5 17.667 16.5 29c0 10.667 -4.66699 19.167 -14 25.5s-21.666 9.5 -36.999 9.5c-9.33301 0 -17.5 -0.833008 -24.5 -2.5
s-15.167 -4.83398 -24.5 -9.50098l43 85c-69.333 9.33301 -122.333 37.666 -159 84.999s-55 112.333 -55 195c0 92.667 22.167 164.167 66.5 214.5s107.166 75.5 188.499 75.5c68.667 0 123.334 -18.5 164.001 -55.5s63.667 -88.833 69 -155.5h-134
c-8 36 -19.5 61.333 -34.5 76s-36.833 22 -65.5 22c-41.333 0 -70.333 -15.333 -87 -46c-8.66699 -16 -15.334 -35.333 -20.001 -58s-7 -46.667 -7 -72c0 -54 10 -95.833 30 -125.5s48.333 -44.5 85 -44.5c27.333 0 48.5 7.33301 63.5 22s26.833 39.667 35.5 75h134
c-2.66699 -31.333 -10.334 -60 -23.001 -86s-29.167 -48.167 -49.5 -66.5s-44 -32.5 -71 -42.5s-56.167 -15 -87.5 -15z" />
    <glyph glyph-name="egrave" unicode="&#xe8;" 
d="M162 226c1.33301 -26 3.49902 -46.165 6.49902 -60.498s8.16699 -26.833 15.5 -37.5c20.667 -29.333 50.667 -44 90 -44c25.333 0 47.333 6 66 18s32.334 28.667 41.001 50h138c-8 -26.667 -19.833 -50.834 -35.5 -72.501s-34.334 -40 -56.001 -55s-46 -26.667 -73 -35
s-55.5 -12.5 -85.5 -12.5c-38 0 -72.333 6.5 -103 19.5s-56.667 31.5 -78 55.5s-37.666 53.167 -48.999 87.5s-17 73.166 -17 116.499c0 45.333 5.83301 86 17.5 122s28.167 66.667 49.5 92s47.5 44.833 78.5 58.5s65.833 20.5 104.5 20.5c56.667 0 105.5 -14.5 146.5 -43.5
s70.167 -69.167 87.5 -120.5c6 -17.333 10.667 -37.833 14 -61.5s5 -48.167 5 -73.5v-10c0 -3.33301 -0.333008 -8 -1 -14h-362zM378.999 319.002c-3.33301 40 -14.333 70.5 -33 91.5s-44 31.5 -76 31.5c-62 0 -97.333 -41 -106 -123h215zM258.999 757.002l70 -150h-70
l-126 150h126z" />
    <glyph glyph-name="eacute" unicode="&#xe9;" 
d="M162 226c1.33301 -26 3.49902 -46.165 6.49902 -60.498s8.16699 -26.833 15.5 -37.5c20.667 -29.333 50.667 -44 90 -44c25.333 0 47.333 6 66 18s32.334 28.667 41.001 50h138c-8 -26.667 -19.833 -50.834 -35.5 -72.501s-34.334 -40 -56.001 -55s-46 -26.667 -73 -35
s-55.5 -12.5 -85.5 -12.5c-38 0 -72.333 6.5 -103 19.5s-56.667 31.5 -78 55.5s-37.666 53.167 -48.999 87.5s-17 73.166 -17 116.499c0 45.333 5.83301 86 17.5 122s28.167 66.667 49.5 92s47.5 44.833 78.5 58.5s65.833 20.5 104.5 20.5c56.667 0 105.5 -14.5 146.5 -43.5
s70.167 -69.167 87.5 -120.5c6 -17.333 10.667 -37.833 14 -61.5s5 -48.167 5 -73.5v-10c0 -3.33301 -0.333008 -8 -1 -14h-362zM378.999 319.002c-3.33301 40 -14.333 70.5 -33 91.5s-44 31.5 -76 31.5c-62 0 -97.333 -41 -106 -123h215zM292.999 607.002h-70l70 150h126z
" />
    <glyph glyph-name="ecircumflex" unicode="&#xea;" 
d="M162 226c1.33301 -26 3.49902 -46.165 6.49902 -60.498s8.16699 -26.833 15.5 -37.5c20.667 -29.333 50.667 -44 90 -44c25.333 0 47.333 6 66 18s32.334 28.667 41.001 50h138c-8 -26.667 -19.833 -50.834 -35.5 -72.501s-34.334 -40 -56.001 -55s-46 -26.667 -73 -35
s-55.5 -12.5 -85.5 -12.5c-38 0 -72.333 6.5 -103 19.5s-56.667 31.5 -78 55.5s-37.666 53.167 -48.999 87.5s-17 73.166 -17 116.499c0 45.333 5.83301 86 17.5 122s28.167 66.667 49.5 92s47.5 44.833 78.5 58.5s65.833 20.5 104.5 20.5c56.667 0 105.5 -14.5 146.5 -43.5
s70.167 -69.167 87.5 -120.5c6 -17.333 10.667 -37.833 14 -61.5s5 -48.167 5 -73.5v-10c0 -3.33301 -0.333008 -8 -1 -14h-362zM378.999 319.002c-3.33301 40 -14.333 70.5 -33 91.5s-44 31.5 -76 31.5c-62 0 -97.333 -41 -106 -123h215zM335.999 757.002l103 -150h-78
l-82 100l-82 -100h-76l108 150h107z" />
    <glyph glyph-name="edieresis" unicode="&#xeb;" 
d="M162 226c1.33301 -26 3.49902 -46.165 6.49902 -60.498s8.16699 -26.833 15.5 -37.5c20.667 -29.333 50.667 -44 90 -44c25.333 0 47.333 6 66 18s32.334 28.667 41.001 50h138c-8 -26.667 -19.833 -50.834 -35.5 -72.501s-34.334 -40 -56.001 -55s-46 -26.667 -73 -35
s-55.5 -12.5 -85.5 -12.5c-38 0 -72.333 6.5 -103 19.5s-56.667 31.5 -78 55.5s-37.666 53.167 -48.999 87.5s-17 73.166 -17 116.499c0 45.333 5.83301 86 17.5 122s28.167 66.667 49.5 92s47.5 44.833 78.5 58.5s65.833 20.5 104.5 20.5c56.667 0 105.5 -14.5 146.5 -43.5
s70.167 -69.167 87.5 -120.5c6 -17.333 10.667 -37.833 14 -61.5s5 -48.167 5 -73.5v-10c0 -3.33301 -0.333008 -8 -1 -14h-362zM378.999 319.002c-3.33301 40 -14.333 70.5 -33 91.5s-44 31.5 -76 31.5c-62 0 -97.333 -41 -106 -123h215zM241.999 621.002h-110v122h110
v-122zM427.999 621.002h-110v122h110v-122z" />
    <glyph glyph-name="igrave" unicode="&#xec;" horiz-adv-x="278" 
d="M207 0h-140v540h140v-540zM116 757l70 -150h-70l-126 150h126z" />
    <glyph glyph-name="iacute" unicode="&#xed;" horiz-adv-x="278" 
d="M207 0h-140v540h140v-540zM164 607h-70l70 150h126z" />
    <glyph glyph-name="icircumflex" unicode="&#xee;" horiz-adv-x="278" 
d="M207 0h-140v540h140v-540zM196 757l103 -150h-78l-82 100l-82 -100h-76l108 150h107z" />
    <glyph glyph-name="idieresis" unicode="&#xef;" horiz-adv-x="278" 
d="M207 0h-140v540h140v-540zM101 621h-110v122h110v-122zM287 621h-110v122h110v-122z" />
    <glyph glyph-name="eth" unicode="&#xf0;" horiz-adv-x="611" 
d="M348 660c76 -51.333 131.834 -108.668 167.501 -172.001s53.5 -136.333 53.5 -219c0 -92.667 -23.333 -164.5 -70 -215.5s-112.334 -76.5 -197.001 -76.5c-42 0 -79.5 6.5 -112.5 19.5s-61 32 -84 57s-40.5 55.167 -52.5 90.5s-18 75.666 -18 120.999
c0 112.667 39.667 191.334 119 236.001c18.667 10.667 38.334 18.834 59.001 24.501s41 8.5 61 8.5c13.333 0 25.833 -1.33301 37.5 -4s27.5 -7.66699 47.5 -15c-26.667 42.667 -58.334 74.667 -95.001 96l-77 -46l-42 37l70 44l-18.5 11
c-5.66699 3.33301 -11.834 6.66602 -18.501 9.99902l-22.5 11.5l-30.5 15.5l67 47c9.33301 -3.33301 16.833 -6.16602 22.5 -8.49902s11.334 -5 17.001 -8l19 -10l28.5 -15.5l15 -7l87 52l51 -34zM300.001 428.998c-38 0 -68.168 -15.333 -90.501 -46s-33.5 -72 -33.5 -124
c0 -51.333 11.333 -92.333 34 -123s53.334 -46 92.001 -46c38 0 68.5 15.333 91.5 46s34.5 71.667 34.5 123c0 52 -11.333 93.333 -34 124s-54 46 -94 46z" />
    <glyph glyph-name="ntilde" unicode="&#xf1;" horiz-adv-x="611" 
d="M203 540l-0.000976562 -78.001c20 30.667 42.833 52.834 68.5 66.501s56.834 20.5 93.501 20.5c58.667 0 103.5 -16 134.5 -48s46.5 -78.333 46.5 -139v-362h-140v333c0 64.667 -30 97 -90 97c-34.667 0 -62.167 -9.66699 -82.5 -29s-30.5 -45 -30.5 -77v-324h-140v540
h140zM477.999 748.999c-4 -84.667 -35.332 -127.001 -93.999 -127.001c-16.667 0 -35.334 4 -56.001 12l-71 26c-12 4 -22 6 -30 6c-12 0 -21 -3.5 -27 -10.5s-10.333 -18.5 -13 -34.5h-63c2 39.333 11.167 69.833 27.5 91.5s38.5 32.5 66.5 32.5h11.5
c3 0 6.33301 -0.5 10 -1.5s8 -2.33301 13 -4l21.5 -7.5l71 -25c3.33301 -1.33301 9 -2.66602 17 -3.99902s13.667 -2 17 -2c20.667 0 32.667 16 36 48h63z" />
    <glyph glyph-name="ograve" unicode="&#xf2;" horiz-adv-x="611" 
d="M306 549c40.667 0 77.167 -6.66699 109.5 -20s59.833 -32.333 82.5 -57s40.167 -54.667 52.5 -90s18.5 -75 18.5 -119c0 -44.667 -6.16699 -84.667 -18.5 -120s-30 -65.333 -53 -90s-51 -43.5 -84 -56.5s-70.167 -19.5 -111.5 -19.5s-78.5 6.5 -111.5 19.5
s-61 31.833 -84 56.5s-40.667 54.667 -53 90s-18.5 75 -18.5 119c0 91.333 23.667 162 71 212s114 75 200 75zM300 436c-18.667 0 -35.6689 -4.16699 -51.002 -12.5s-28.5 -20.166 -39.5 -35.499s-19.5 -33.5 -25.5 -54.5s-9 -44.5 -9 -70.5c0 -52 11.667 -93.833 35 -125.5
s54 -47.5 92 -47.5c18.667 0 35.834 4.16699 51.501 12.5s29.167 20 40.5 35s20 33 26 54s9 44.5 9 70.5c0 53.333 -11.667 95.666 -35 126.999s-54.666 47 -93.999 47zM290.998 757l70 -150h-70l-126 150h126z" />
    <glyph glyph-name="oacute" unicode="&#xf3;" horiz-adv-x="611" 
d="M306 549c40.667 0 77.167 -6.66699 109.5 -20s59.833 -32.333 82.5 -57s40.167 -54.667 52.5 -90s18.5 -75 18.5 -119c0 -44.667 -6.16699 -84.667 -18.5 -120s-30 -65.333 -53 -90s-51 -43.5 -84 -56.5s-70.167 -19.5 -111.5 -19.5s-78.5 6.5 -111.5 19.5
s-61 31.833 -84 56.5s-40.667 54.667 -53 90s-18.5 75 -18.5 119c0 91.333 23.667 162 71 212s114 75 200 75zM300 436c-18.667 0 -35.6689 -4.16699 -51.002 -12.5s-28.5 -20.166 -39.5 -35.499s-19.5 -33.5 -25.5 -54.5s-9 -44.5 -9 -70.5c0 -52 11.667 -93.833 35 -125.5
s54 -47.5 92 -47.5c18.667 0 35.834 4.16699 51.501 12.5s29.167 20 40.5 35s20 33 26 54s9 44.5 9 70.5c0 53.333 -11.667 95.666 -35 126.999s-54.666 47 -93.999 47zM314.998 607h-70l70 150h126z" />
    <glyph glyph-name="ocircumflex" unicode="&#xf4;" horiz-adv-x="611" 
d="M306 549c40.667 0 77.167 -6.66699 109.5 -20s59.833 -32.333 82.5 -57s40.167 -54.667 52.5 -90s18.5 -75 18.5 -119c0 -44.667 -6.16699 -84.667 -18.5 -120s-30 -65.333 -53 -90s-51 -43.5 -84 -56.5s-70.167 -19.5 -111.5 -19.5s-78.5 6.5 -111.5 19.5
s-61 31.833 -84 56.5s-40.667 54.667 -53 90s-18.5 75 -18.5 119c0 91.333 23.667 162 71 212s114 75 200 75zM300 436c-18.667 0 -35.6689 -4.16699 -51.002 -12.5s-28.5 -20.166 -39.5 -35.499s-19.5 -33.5 -25.5 -54.5s-9 -44.5 -9 -70.5c0 -52 11.667 -93.833 35 -125.5
s54 -47.5 92 -47.5c18.667 0 35.834 4.16699 51.501 12.5s29.167 20 40.5 35s20 33 26 54s9 44.5 9 70.5c0 53.333 -11.667 95.666 -35 126.999s-54.666 47 -93.999 47zM357.998 757l103 -150h-78l-82 100l-82 -100h-76l108 150h107z" />
    <glyph glyph-name="otilde" unicode="&#xf5;" horiz-adv-x="611" 
d="M306 549c40.667 0 77.167 -6.66699 109.5 -20s59.833 -32.333 82.5 -57s40.167 -54.667 52.5 -90s18.5 -75 18.5 -119c0 -44.667 -6.16699 -84.667 -18.5 -120s-30 -65.333 -53 -90s-51 -43.5 -84 -56.5s-70.167 -19.5 -111.5 -19.5s-78.5 6.5 -111.5 19.5
s-61 31.833 -84 56.5s-40.667 54.667 -53 90s-18.5 75 -18.5 119c0 91.333 23.667 162 71 212s114 75 200 75zM300 436c-18.667 0 -35.6689 -4.16699 -51.002 -12.5s-28.5 -20.166 -39.5 -35.499s-19.5 -33.5 -25.5 -54.5s-9 -44.5 -9 -70.5c0 -52 11.667 -93.833 35 -125.5
s54 -47.5 92 -47.5c18.667 0 35.834 4.16699 51.501 12.5s29.167 20 40.5 35s20 33 26 54s9 44.5 9 70.5c0 53.333 -11.667 95.666 -35 126.999s-54.666 47 -93.999 47zM481.998 749c-4 -84.667 -35.332 -127.001 -93.999 -127.001c-16.667 0 -35.334 4 -56.001 12l-71 26
c-12 4 -22 6 -30 6c-12 0 -21 -3.5 -27 -10.5s-10.333 -18.5 -13 -34.5h-63c2 39.333 11.167 69.833 27.5 91.5s38.5 32.5 66.5 32.5h11.5c3 0 6.33301 -0.5 10 -1.5s8 -2.33301 13 -4l21.5 -7.5l71 -25c3.33301 -1.33301 9 -2.66602 17 -3.99902s13.667 -2 17 -2
c20.667 0 32.667 16 36 48h63z" />
    <glyph glyph-name="odieresis" unicode="&#xf6;" horiz-adv-x="611" 
d="M306 549c40.667 0 77.167 -6.66699 109.5 -20s59.833 -32.333 82.5 -57s40.167 -54.667 52.5 -90s18.5 -75 18.5 -119c0 -44.667 -6.16699 -84.667 -18.5 -120s-30 -65.333 -53 -90s-51 -43.5 -84 -56.5s-70.167 -19.5 -111.5 -19.5s-78.5 6.5 -111.5 19.5
s-61 31.833 -84 56.5s-40.667 54.667 -53 90s-18.5 75 -18.5 119c0 91.333 23.667 162 71 212s114 75 200 75zM300 436c-18.667 0 -35.6689 -4.16699 -51.002 -12.5s-28.5 -20.166 -39.5 -35.499s-19.5 -33.5 -25.5 -54.5s-9 -44.5 -9 -70.5c0 -52 11.667 -93.833 35 -125.5
s54 -47.5 92 -47.5c18.667 0 35.834 4.16699 51.501 12.5s29.167 20 40.5 35s20 33 26 54s9 44.5 9 70.5c0 53.333 -11.667 95.666 -35 126.999s-54.666 47 -93.999 47zM263.998 621h-110v122h110v-122zM449.998 621h-110v122h110v-122z" />
    <glyph glyph-name="divide" unicode="&#xf7;" horiz-adv-x="584" 
d="M534 172h-484v119h484v-119zM354 474v-123h-124v123h124zM354 112v-123h-124v123h124z" />
    <glyph glyph-name="oslash" unicode="&#xf8;" horiz-adv-x="611" 
d="M54 -38l-43 40l75 77c-33.333 48 -50 109.333 -50 184c0 44.667 6.16699 84.667 18.5 120s30 65.333 53 90s51.167 43.5 84.5 56.5s71 19.5 113 19.5c71.333 0 132 -20.667 182 -62l68 70l43 -41l-72 -73c31.333 -48.667 47 -108.667 47 -180
c0 -44 -6.16699 -83.667 -18.5 -119s-30 -65.333 -53 -90s-51 -43.667 -84 -57s-70.167 -20 -111.5 -20c-36 0 -70 5.16699 -102 15.5s-58 24.5 -78 42.5zM220 132c24 -28 52.6689 -42 86.002 -42c18.667 0 35.667 4.16699 51 12.5s28.666 20 39.999 35s20.166 33 26.499 54
s9.5 43.833 9.5 68.5c0 26.667 -4 52 -12 76zM392.002 390c-13.333 16.667 -27.167 28.666 -41.5 35.999s-30.166 11 -47.499 11c-18.667 0 -35.834 -4.16699 -51.501 -12.5s-29 -20.166 -40 -35.499s-19.667 -33.5 -26 -54.5s-9.5 -43.833 -9.5 -68.5
c0 -30.667 4.66699 -58 14 -82z" />
    <glyph glyph-name="ugrave" unicode="&#xf9;" horiz-adv-x="611" 
d="M401 0l0.000976562 64.001c-20 -30.667 -42.833 -52.834 -68.5 -66.501s-56.834 -20.5 -93.501 -20.5c-58.667 0 -103.5 16 -134.5 48s-46.5 78.333 -46.5 139v376h140v-347c0 -64.667 30 -97 90 -97c34.667 0 62.167 9.66699 82.5 29s30.5 45 30.5 77v338h140v-540h-140
zM289.001 757.001l70 -150h-70l-126 150h126z" />
    <glyph glyph-name="uacute" unicode="&#xfa;" horiz-adv-x="611" 
d="M401 0l0.000976562 64.001c-20 -30.667 -42.833 -52.834 -68.5 -66.501s-56.834 -20.5 -93.501 -20.5c-58.667 0 -103.5 16 -134.5 48s-46.5 78.333 -46.5 139v376h140v-347c0 -64.667 30 -97 90 -97c34.667 0 62.167 9.66699 82.5 29s30.5 45 30.5 77v338h140v-540h-140
zM312.001 607.001h-70l70 150h126z" />
    <glyph glyph-name="ucircumflex" unicode="&#xfb;" horiz-adv-x="611" 
d="M401 0l0.000976562 64.001c-20 -30.667 -42.833 -52.834 -68.5 -66.501s-56.834 -20.5 -93.501 -20.5c-58.667 0 -103.5 16 -134.5 48s-46.5 78.333 -46.5 139v376h140v-347c0 -64.667 30 -97 90 -97c34.667 0 62.167 9.66699 82.5 29s30.5 45 30.5 77v338h140v-540h-140
zM355.001 757.001l103 -150h-78l-82 100l-82 -100h-76l108 150h107z" />
    <glyph glyph-name="udieresis" unicode="&#xfc;" horiz-adv-x="611" 
d="M401 0l0.000976562 64.001c-20 -30.667 -42.833 -52.834 -68.5 -66.501s-56.834 -20.5 -93.501 -20.5c-58.667 0 -103.5 16 -134.5 48s-46.5 78.333 -46.5 139v376h140v-347c0 -64.667 30 -97 90 -97c34.667 0 62.167 9.66699 82.5 29s30.5 45 30.5 77v338h140v-540h-140
zM261.001 621.001h-110v122h110v-122zM447.001 621.001h-110v122h110v-122z" />
    <glyph glyph-name="yacute" unicode="&#xfd;" 
d="M538 540l-221.999 -638.999c-6 -16.667 -11.667 -30.667 -17 -42s-11.166 -21 -17.499 -29s-13.333 -14.5 -21 -19.5s-16.5 -9.5 -26.5 -13.5c-12.667 -5.33301 -27.834 -9.33301 -45.501 -12s-35.167 -4 -52.5 -4c-8.66699 0 -16.5 0.333008 -23.5 1
s-15.833 1.66699 -26.5 3v105c8.66699 -2.66699 15.667 -4.33398 21 -5.00098s10.666 -1 15.999 -1c26 0 47 8.66699 63 26s24 40 24 68l-201 562h154l119 -393l112 393h144zM286.001 607.001h-70l70 150h126z" />
    <glyph glyph-name="thorn" unicode="&#xfe;" horiz-adv-x="611" 
d="M198 460c33.333 59.333 83.333 88.999 150 88.999c32.667 0 62.834 -7.16699 90.501 -21.5s51.5 -34.333 71.5 -60s35.667 -56 47 -91s17 -73.167 17 -114.5s-5.66699 -79.333 -17 -114s-27 -64.667 -47 -90s-43.833 -45.166 -71.5 -59.499s-57.834 -21.5 -90.501 -21.5
c-66.667 0 -116.667 29 -150 87v-282h-140v947h140v-269zM314 431.999c-34.667 0 -62.665 -15.667 -83.998 -47s-32 -72.333 -32 -123c0 -25.333 2.83301 -48.166 8.5 -68.499s13.667 -38 24 -53s22.666 -26.5 36.999 -34.5s30.5 -12 48.5 -12c17.333 0 33.333 4 48 12
s27.167 19.5 37.5 34.5s18.333 32.667 24 53s8.5 43.166 8.5 68.499c0 52 -10.833 93.333 -32.5 124s-50.834 46 -87.501 46z" />
    <glyph glyph-name="ydieresis" unicode="&#xff;" 
d="M538 540l-221.999 -638.999c-6 -16.667 -11.667 -30.667 -17 -42s-11.166 -21 -17.499 -29s-13.333 -14.5 -21 -19.5s-16.5 -9.5 -26.5 -13.5c-12.667 -5.33301 -27.834 -9.33301 -45.501 -12s-35.167 -4 -52.5 -4c-8.66699 0 -16.5 0.333008 -23.5 1
s-15.833 1.66699 -26.5 3v105c8.66699 -2.66699 15.667 -4.33398 21 -5.00098s10.666 -1 15.999 -1c26 0 47 8.66699 63 26s24 40 24 68l-201 562h154l119 -393l112 393h144zM235.001 621.001h-110v122h110v-122zM421.001 621.001h-110v122h110v-122z" />
    <glyph glyph-name="dotlessi" unicode="&#x131;" horiz-adv-x="278" 
d="M207 0h-140v540h140v-540z" />
    <glyph glyph-name="Lslash" unicode="&#x141;" horiz-adv-x="611" 
d="M395 535v-88l-165 -113v-209h367v-125h-517v257l-80 -56v89l80 56v383h150v-306z" />
    <glyph glyph-name="lslash" unicode="&#x142;" horiz-adv-x="278" 
d="M252 482v-79l-56 -40v-363h-140v294l-56 -40v79l56 40v356h140v-287z" />
    <glyph glyph-name="OE" unicode="&#x152;" horiz-adv-x="1000" 
d="M624 125l345.998 -0.00390625v-125h-490v59c-12 -15.333 -23.667 -28.333 -35 -39s-23 -19.167 -35 -25.5s-25 -10.833 -39 -13.5s-29.333 -4 -46 -4c-43.333 0 -83.166 9.5 -119.499 28.5s-67.666 45.333 -93.999 79s-46.833 73.834 -61.5 120.501s-22 98 -22 154
c0 56.667 7.33301 108.334 22 155.001s35.167 86.834 61.5 120.501s58 59.834 95 78.501s77.5 28 121.5 28c32.667 0 60.167 -4.66699 82.5 -14s45.5 -26 69.5 -50v52h471v-125h-327v-165h299v-125h-299v-189zM473.998 539.996c-14.667 25.333 -31.167 43.8311 -49.5 55.498
s-41.166 17.5 -68.499 17.5c-26.667 0 -51 -6 -73 -18s-40.667 -29.167 -56 -51.5s-27.333 -49.166 -36 -80.499s-13 -66 -13 -104s4.33301 -72.667 13 -104s20.667 -58.166 36 -80.499s34 -39.5 56 -51.5s46.333 -18 73 -18c27.333 0 50.166 5.83301 68.499 17.5
s34.833 30.167 49.5 55.5v362z" />
    <glyph glyph-name="oe" unicode="&#x153;" horiz-adv-x="944" 
d="M914 152c-8 -26.667 -19.8291 -50.6699 -35.4961 -72.0029s-34.334 -39.666 -56.001 -54.999s-46 -27.166 -73 -35.499s-55.5 -12.5 -85.5 -12.5c-74.667 0 -134.334 25 -179.001 75c-51.333 -50 -116.333 -75 -195 -75c-41.333 0 -78.5 6.5 -111.5 19.5
s-61 31.833 -84 56.5s-40.667 54.667 -53 90s-18.5 75.333 -18.5 120s6.16699 84.667 18.5 120s30 65.333 53 90s51 43.5 84 56.5s70.167 19.5 111.5 19.5c81.333 0 146.333 -25.333 195 -76c43.333 50.667 103.333 76 180 76c56.667 0 105.834 -14.333 147.501 -43
s71.167 -69 88.5 -121c6 -17.333 10.667 -37.833 14 -61.5s5 -48.167 5 -73.5v-10c0 -3.33301 -0.333008 -8 -1 -14h-362c0.666992 -24 2.66699 -43.167 6 -57.5s8.66602 -27.166 15.999 -38.499c9.33301 -14.667 22.166 -26 38.499 -34s34.166 -12 53.499 -12
c24.667 0 46.667 6.33301 66 19s32.333 29 39 49h138zM288.004 435.997c-18.667 0 -35.6689 -4.16699 -51.002 -12.5s-28.5 -20.166 -39.5 -35.499s-19.5 -33.5 -25.5 -54.5s-9 -44.5 -9 -70.5c0 -52 11.667 -93.833 35 -125.5s54 -47.5 92 -47.5
c18.667 0 35.834 4.16699 51.501 12.5s29.167 20 40.5 35s20 33 26 54s9 44.5 9 70.5c0 53.333 -11.667 95.666 -35 126.999s-54.666 47 -93.999 47zM774.002 318.997c-2 20 -4.83398 35.999 -8.50098 47.999s-9.16699 22.667 -16.5 32
c-9.33301 13.333 -21.5 23.833 -36.5 31.5s-30.5 11.5 -46.5 11.5c-19.333 0 -37.333 -5.16699 -54 -15.5s-29 -24.166 -37 -41.499c-4.66699 -8.66699 -8.16699 -18 -10.5 -28s-4.16602 -22.667 -5.49902 -38h215z" />
    <glyph glyph-name="Scaron" unicode="&#x160;" horiz-adv-x="667" 
d="M467 507c-2.66699 37.333 -16.834 65.667 -42.501 85s-62.5 29 -110.5 29c-38.667 0 -69.334 -8 -92.001 -24s-34 -38 -34 -66c0 -13.333 2.16699 -24.833 6.5 -34.5s11.833 -18 22.5 -25s24.834 -13.333 42.501 -19s39.834 -11.167 66.501 -16.5l114 -22
c67.333 -12.667 116.333 -34.834 147 -66.501s46 -76.167 46 -133.5c0 -75.333 -26.167 -133.666 -78.5 -174.999s-125.833 -62 -220.5 -62c-93.333 0 -165.833 20.5 -217.5 61.5s-79.834 100.833 -84.501 179.5h146c2.66699 -39.333 17.834 -69.333 45.501 -90
s67.167 -31 118.5 -31c46 0 82 8.66699 108 26s39 41.333 39 72c0 29.333 -10.333 52 -31 68s-56 28.667 -106 38l-102 20c-37.333 6.66699 -68.833 15.5 -94.5 26.5s-46.834 24.333 -63.501 40s-28.667 34.167 -36 55.5s-11 46 -11 74c0 71.333 24 126.5 72 165.5
s115.667 58.5 203 58.5c93.333 0 164.333 -20 213 -60s73.334 -98 74.001 -174h-140zM273 786.001l-103 150h78l82 -97l82 97h76l-108 -150h-107z" />
    <glyph glyph-name="scaron" unicode="&#x161;" 
d="M370 366c-0.666992 48.667 -34.332 72.999 -100.999 72.999c-24.667 0 -44.334 -4.5 -59.001 -13.5s-22 -21.167 -22 -36.5c0 -11.333 3.33301 -19.666 10 -24.999s19.667 -11 39 -17l177 -51c70.667 -21.333 106 -66.666 106 -135.999
c0 -26.667 -5.66699 -51.834 -17 -75.501s-27 -43.5 -47 -59.5c-40 -32 -97.333 -48 -172 -48c-82.667 0 -145.334 15 -188.001 45s-65 75 -67 135h137c3.33301 -15.333 6.83301 -26.5 10.5 -33.5s9.83398 -13.167 18.501 -18.5c18 -12 45 -18 81 -18
c32.667 0 58.167 4.66699 76.5 14s27.5 22.333 27.5 39c0 11.333 -3.5 20.166 -10.5 26.499s-19.167 12.166 -36.5 17.499l-167 52c-13.333 4 -24.5 7.83301 -33.5 11.5s-16.667 7.16699 -23 10.5s-12 6.83301 -17 10.5s-9.83301 7.83398 -14.5 12.501
c-20 22 -30 51.333 -30 88c0 56 19.833 100 59.5 132s93.834 48 162.501 48c72.667 0 129.667 -16.167 171 -48.5s62.666 -77.166 63.999 -134.499h-135zM225.002 606.999l-103 150h78l82 -97l82 97h76l-108 -150h-107z" />
    <glyph glyph-name="Ydieresis" unicode="&#x178;" horiz-adv-x="667" 
d="M419 0h-150v270l-242 459h167l149 -322l139 322h168l-231 -459v-270zM304 800h-110v122h110v-122zM490 800h-110v122h110v-122z" />
    <glyph glyph-name="Zcaron" unicode="&#x17d;" horiz-adv-x="611" 
d="M578 604l-372 -479h372v-125h-548v125l373 479h-373v125h548v-125zM251 786l-103 150h78l82 -97l82 97h76l-108 -150h-107z" />
    <glyph glyph-name="zcaron" unicode="&#x17e;" horiz-adv-x="500" 
d="M459 427l-265 -314h274v-113h-447v113l267 314h-249v113h420v-113zM195 607l-103 150h78l82 -97l82 97h76l-108 -150h-107z" />
    <glyph glyph-name="florin" unicode="&#x192;" 
d="M500 383l-137 0.00195312l-59 -382c-6.66699 -44 -15.667 -80 -27 -108s-26 -50.667 -44 -68c-14.667 -14.667 -32.667 -25.834 -54 -33.501s-44 -11.5 -68 -11.5c-16 0 -31 1.66699 -45 5s-29 9 -45 17l24 115c22.667 -14 41.334 -21 56.001 -21
c18.667 0 32.667 8.16699 42 24.5s17.333 45.166 24 86.499l60 376h-123v97h138l11 59c11.333 71.333 32 123.333 62 156s71.333 49 124 49c16 0 30.667 -1.16699 44 -3.5s30.666 -6.83301 51.999 -13.5l-20 -115c-14 6.66699 -24.667 11 -32 13s-15 3 -23 3
c-38.667 0 -64 -35.667 -76 -107l-7 -41h123v-97z" />
    <glyph glyph-name="circumflex" unicode="&#x2c6;" horiz-adv-x="333" 
d="M223 757l103 -150h-78l-82 100l-82 -100h-76l108 150h107z" />
    <glyph glyph-name="caron" unicode="&#x2c7;" horiz-adv-x="333" 
d="M112 607l-103 150h78l82 -97l82 97h76l-108 -150h-107z" />
    <glyph glyph-name="breve" unicode="&#x2d8;" horiz-adv-x="333" 
d="M299 737c0 -18.667 -3.33203 -35.999 -9.99902 -51.999s-16 -30 -28 -42s-26 -21.333 -42 -28s-33.333 -10 -52 -10c-19.333 0 -37 3.33301 -53 10s-29.833 16 -41.5 28s-20.834 26 -27.501 42s-10 33.667 -10 53v10h56c6 -44 31.667 -66 77 -66c22 0 39 5.16699 51 15.5
s20 27.166 24 50.499h56v-11z" />
    <glyph glyph-name="dotaccent" unicode="&#x2d9;" horiz-adv-x="333" 
d="M222 621h-110v122h110v-122z" />
    <glyph glyph-name="ring" unicode="&#x2da;" horiz-adv-x="333" 
d="M169 770c24.667 0 45.498 -8.66699 62.498 -26s25.5 -38.666 25.5 -63.999s-8.66699 -46.666 -26 -63.999s-38.666 -26 -63.999 -26s-46.666 8.66699 -63.999 26s-26 38.666 -26 63.999s8.83301 46.666 26.5 63.999s39.5 26 65.5 26zM166.998 722
c-11.333 0 -21.167 -4.16797 -29.5 -12.501s-12.5 -18.166 -12.5 -29.499s4.16699 -21.166 12.5 -29.499s18.5 -12.5 30.5 -12.5c11.333 0 21 4.16699 29 12.5s12 18.166 12 29.499c0 12 -4 22 -12 30s-18 12 -30 12z" />
    <glyph glyph-name="ogonek" unicode="&#x2db;" horiz-adv-x="333" 
d="M244 0c-21.333 -13.333 -38.999 -25.332 -52.999 -35.999s-25.167 -21 -33.5 -31s-14.166 -20.333 -17.499 -31s-5 -22.334 -5 -35.001c0 -33.333 25 -50 75 -50c19.333 0 38.666 2 57.999 6v-47c-26 -6.66699 -52.333 -10 -79 -10c-44.667 0 -79.834 8.5 -105.501 25.5
s-38.5 40.167 -38.5 69.5c0 30 11 57.167 33 81.5s52.333 43.5 91 57.5h75z" />
    <glyph glyph-name="tilde" unicode="&#x2dc;" horiz-adv-x="333" 
d="M345 749c-4 -84.667 -35.332 -127.001 -93.999 -127.001c-16.667 0 -35.334 4 -56.001 12l-71 26c-12 4 -22 6 -30 6c-12 0 -21 -3.5 -27 -10.5s-10.333 -18.5 -13 -34.5h-63c2 39.333 11.167 69.833 27.5 91.5s38.5 32.5 66.5 32.5h11.5c3 0 6.33301 -0.5 10 -1.5
s8 -2.33301 13 -4l21.5 -7.5l71 -25c3.33301 -1.33301 9 -2.66602 17 -3.99902s13.667 -2 17 -2c20.667 0 32.667 16 36 48h63z" />
    <glyph glyph-name="hungarumlaut" unicode="&#x2dd;" horiz-adv-x="333" 
d="M26 610h-70l70 147h126zM214 610h-70l70 147h126z" />
    <glyph glyph-name="endash" unicode="&#x2013;" 
d="M557 207h-566v104h566v-104z" />
    <glyph glyph-name="emdash" unicode="&#x2014;" horiz-adv-x="1000" 
d="M1003 207h-1010v104h1010v-104z" />
    <glyph glyph-name="quoteleft" unicode="&#x2018;" horiz-adv-x="278" 
d="M67 469v109c0 28.667 3.5 52 10.5 70s18.5 33.667 34.5 47c24.667 20.667 54.667 32 90 34v-46c-55.333 -10 -82 -39.667 -80 -89h80v-125h-135z" />
    <glyph glyph-name="quoteright" unicode="&#x2019;" horiz-adv-x="278" 
d="M201 729v-109c0 -28.667 -3.5 -52 -10.5 -70s-18.5 -33.667 -34.5 -47c-24.667 -20.667 -54.667 -32 -90 -34v46c55.333 10 82 39.667 80 89h-80v125h135z" />
    <glyph glyph-name="quotesinglbase" unicode="&#x201a;" horiz-adv-x="278" 
d="M201 125v-109c0 -28.667 -3.5 -52 -10.5 -70s-18.5 -33.667 -34.5 -47c-24.667 -20.667 -54.667 -32 -90 -34v46c55.333 10 82 39.667 80 89h-80v125h135z" />
    <glyph glyph-name="quotedblleft" unicode="&#x201c;" horiz-adv-x="500" 
d="M71 469v109c0 28.667 3.5 52 10.5 70s18.5 33.667 34.5 47c24.667 20.667 54.667 32 90 34v-46c-55.333 -10 -82 -39.667 -80 -89h80v-125h-135zM298 469v109c0 28.667 3.5 52 10.5 70s18.5 33.667 34.5 47c24.667 20.667 54.667 32 90 34v-46
c-55.333 -10 -82 -39.667 -80 -89h80v-125h-135z" />
    <glyph glyph-name="quotedblright" unicode="&#x201d;" horiz-adv-x="500" 
d="M208 729v-109c0 -28.667 -3.5 -52 -10.5 -70s-18.5 -33.667 -34.5 -47c-24.667 -20.667 -54.667 -32 -90 -34v46c55.333 10 82 39.667 80 89h-80v125h135zM440 729v-109c0 -28.667 -3.5 -52 -10.5 -70s-18.5 -33.667 -34.5 -47c-24.667 -20.667 -54.667 -32 -90 -34v46
c55.333 10 82 39.667 80 89h-80v125h135z" />
    <glyph glyph-name="quotedblbase" unicode="&#x201e;" horiz-adv-x="500" 
d="M207 125v-109c0 -28.667 -3.5 -52 -10.5 -70s-18.5 -33.667 -34.5 -47c-24.667 -20.667 -54.667 -32 -90 -34v46c55.333 10 82 39.667 80 89h-80v125h135zM432 125v-109c0 -28.667 -3.5 -52 -10.5 -70s-18.5 -33.667 -34.5 -47c-24.667 -20.667 -54.667 -32 -90 -34v46
c55.333 10 82 39.667 80 89h-80v125h135z" />
    <glyph glyph-name="dagger" unicode="&#x2020;" 
d="M523 369h-179v-563h-134v563h-179v116h179v224h134v-224h179v-116z" />
    <glyph glyph-name="daggerdbl" unicode="&#x2021;" 
d="M520 369h-179v-223h179v-116h-179v-224h-134v224h-179v116h179v223h-179v116h179v224h134v-224h179v-116z" />
    <glyph glyph-name="bullet" unicode="&#x2022;" horiz-adv-x="350" 
d="M177 425c16.667 0 32.501 -3.33105 47.501 -9.99805s28 -15.667 39 -27s19.833 -24.666 26.5 -39.999s10 -31.333 10 -48c0 -17.333 -3.33301 -33.5 -10 -48.5s-15.667 -28.167 -27 -39.5s-24.5 -20.333 -39.5 -27s-31.167 -10 -48.5 -10s-33.5 3.33301 -48.5 10
s-28.167 15.667 -39.5 27s-20.333 24.5 -27 39.5s-10 31.167 -10 48.5s3.33301 33.666 10 48.999s15.667 28.666 27 39.999s24.666 20.166 39.999 26.499s32 9.5 50 9.5z" />
    <glyph glyph-name="ellipsis" unicode="&#x2026;" horiz-adv-x="1000" 
d="M242 0h-150v146h150v-146zM575 0h-150v146h150v-146zM908 0h-150v146h150v-146z" />
    <glyph glyph-name="perthousand" unicode="&#x2030;" horiz-adv-x="1000" 
d="M162 739c20 0 39 -3.83203 57 -11.499s33.833 -18.334 47.5 -32.001s24.334 -29.5 32.001 -47.5s11.5 -37 11.5 -57c0 -20.667 -4 -40 -12 -58s-18.667 -33.667 -32 -47s-29 -23.833 -47 -31.5s-37.333 -11.5 -58 -11.5s-40.167 3.83301 -58.5 11.5
s-34.166 18.167 -47.499 31.5s-24 29 -32 47s-12 37.333 -12 58s4 40 12 58s18.667 33.667 32 47s29.166 23.833 47.499 31.5s38.166 11.5 59.499 11.5zM160 659.001c-19.333 0 -35.833 -6.66699 -49.5 -20s-20.5 -29.666 -20.5 -48.999s6.83301 -35.833 20.5 -49.5
s30.167 -20.5 49.5 -20.5s36 6.66699 50 20s21 29.666 21 48.999s-6.83301 35.833 -20.5 49.5s-30.5 20.5 -50.5 20.5zM563 738.001l-421 -759h-66l420 759h67zM473 274.001c20 0 39 -3.83203 57 -11.499s33.833 -18.334 47.5 -32.001s24.334 -29.5 32.001 -47.5
s11.5 -37 11.5 -57c0 -20.667 -4 -40 -12 -58s-18.667 -33.667 -32 -47s-29 -23.833 -47 -31.5s-37.333 -11.5 -58 -11.5s-40.167 3.83301 -58.5 11.5s-34.166 18.167 -47.499 31.5s-24 29 -32 47s-12 37.333 -12 58s4 40 12 58s18.667 33.667 32 47
s29.166 23.833 47.499 31.5s38.166 11.5 59.499 11.5zM471 194.002c-19.333 0 -35.833 -6.83105 -49.5 -20.498s-20.5 -29.834 -20.5 -48.501c0 -19.333 7 -35.833 21 -49.5s30.667 -20.5 50 -20.5s35.833 6.66699 49.5 20s20.5 29.666 20.5 48.999
s-6.83301 35.833 -20.5 49.5s-30.5 20.5 -50.5 20.5zM842 274.004c20 0 39 -3.83203 57 -11.499s33.833 -18.334 47.5 -32.001s24.334 -29.5 32.001 -47.5s11.5 -37 11.5 -57c0 -20.667 -4 -40 -12 -58s-18.667 -33.667 -32 -47s-29 -23.833 -47 -31.5
s-37.333 -11.5 -58 -11.5s-40.167 3.83301 -58.5 11.5s-34.166 18.167 -47.499 31.5s-24 29 -32 47s-12 37.333 -12 58s4 40 12 58s18.667 33.667 32 47s29.166 23.833 47.499 31.5s38.166 11.5 59.499 11.5zM840 194.005c-19.333 0 -35.833 -6.66699 -49.5 -20
s-20.5 -29.666 -20.5 -48.999s6.83301 -35.833 20.5 -49.5s30.167 -20.5 49.5 -20.5s36 6.66699 50 20s21 29.666 21 48.999s-6.83301 35.833 -20.5 49.5s-30.5 20.5 -50.5 20.5z" />
    <glyph glyph-name="guilsinglleft" unicode="&#x2039;" horiz-adv-x="333" 
d="M83 332l167 149v-117l-101 -89l101 -89v-114l-167 146v114z" />
    <glyph glyph-name="guilsinglright" unicode="&#x203a;" horiz-adv-x="333" 
d="M247 220l-167 -148v117l101 89l-101 89v114l167 -146v-115z" />
    <glyph glyph-name="fraction" unicode="&#x2044;" horiz-adv-x="167" 
d="M337 715l-423 -735h-87l423 735h87z" />
    <glyph glyph-name="trademark" unicode="&#x2122;" horiz-adv-x="1000" 
d="M303 273h-95v378h-137v78h365v-78h-133v-378zM661 273l-85 349v-349h-91v456h137l86 -350l84 350h137v-456h-91v349l-83 -349h-94z" />
    <glyph glyph-name="minus" unicode="&#x2212;" horiz-adv-x="584" 
d="M544 172h-504v119h504v-119z" />
    <glyph glyph-name="fi" unicode="&#xfb01;" horiz-adv-x="611" 
d="M548 0h-140v540h140v-540zM548 604h-140v125h140v-125zM308 436l-83 -0.000976562v-436h-140v436h-76v93h76v65c0 90 45.667 135 137 135c11.333 0 23.833 -0.166992 37.5 -0.5s28.167 -1.16602 43.5 -2.49902v-105c-14 2 -27.333 3 -40 3c-25.333 0 -38 -14 -38 -42v-53
h83v-93z" />
    <glyph glyph-name="fl" unicode="&#xfb02;" horiz-adv-x="611" 
d="M546 0h-140v729h140v-729zM311 436l-83 -0.000976562v-436h-140v436h-76v93h76v65c0 90 45.667 135 137 135c11.333 0 23.833 -0.166992 37.5 -0.5s28.167 -1.16602 43.5 -2.49902v-105c-14 2 -27.333 3 -40 3c-25.333 0 -38 -14 -38 -42v-53h83v-93z" />
    <glyph glyph-name=".null" horiz-adv-x="0" 
 />
    <glyph glyph-name="nonmarkingreturn" horiz-adv-x="278" 
 />
    <glyph glyph-name="periodcentered" horiz-adv-x="278" 
d="M188 292v-123h-124v123h124z" />
    </font>
</defs>
</svg>
